<?xml version="1.0" encoding="utf-8"?>
<!-- Generator: Adobe Illustrator 24.0.0, SVG Export Plug-In . SVG Version: 6.00 Build 0)  -->
<svg version="1.1" id="Слой_1" xmlns="http://www.w3.org/2000/svg" xmlns:xlink="http://www.w3.org/1999/xlink" x="0px" y="0px"
	 viewBox="0 0 2000 1419.57" style="enable-background:new 0 0 2000 1419.57;" xml:space="preserve">
<style type="text/css">
	.st0{fill:#D7E9F4;}
	.st1{fill:#FFFFFF;}
	.st2{fill:#0E2549;}
	.st3{fill:#A1C5E2;}
	.st4{fill:#E2474B;}
	.st5{fill:#1E5272;}
	.st6{fill:#2E6B99;}
	.st7{fill:#EBF4FE;}
	.st8{fill:#D2EBFC;}
</style>
<path class="st0" d="M112.62,1303.7c0,0,166.89-704.05,353.55-763.28c186.66-59.23,235.19,66.81,323.81,58.7
	c88.62-8.12,385.99-256.5,492.22-355.05c180.91-167.84,688.6-265.18,582.7-10.05c-88.66,213.59-404.32,551.51-358.05,644.26
	c9,18.04,201.28-105.13,253.17-89.07c232.62,72.03-78.3,515.19-78.3,515.19L112.62,1303.7z"/>
<path class="st1" d="M1917.02,322.31h-177.87v-64.06h46.87c0.83,0,1.5-0.67,1.5-1.5c0-0.83-0.67-1.5-1.5-1.5h-108.87v-60.32h163.87
	c0.83,0,1.5-0.67,1.5-1.5c0-0.83-0.67-1.5-1.5-1.5h-314.03c-0.83,0-1.5,0.67-1.5,1.5c0,0.83,0.67,1.5,1.5,1.5h33.49v60.32h-88.49
	c-0.83,0-1.5,0.67-1.5,1.5c0,0.83,0.67,1.5,1.5,1.5h158.16v64.06h-27.16c-0.83,0-1.5,0.67-1.5,1.5c0,0.83,0.67,1.5,1.5,1.5h314.03
	c0.83,0,1.5-0.67,1.5-1.5C1918.52,322.98,1917.84,322.31,1917.02,322.31z M1563.48,255.25v-60.32h110.67v60.32H1563.48z
	 M1736.15,322.31h-103v-64.06h103V322.31z"/>
<path class="st1" d="M436.5,1096.23h-88.49v-60.32h33.49c0.83,0,1.5-0.67,1.5-1.5s-0.67-1.5-1.5-1.5H174.98
	c-0.83,0-1.5,0.67-1.5,1.5s0.67,1.5,1.5,1.5h56.36v60.32H122.48c-0.83,0-1.5,0.67-1.5,1.5c0,0.83,0.67,1.5,1.5,1.5h46.87v64.06
	h-49.36c-0.83,0-1.5,0.67-1.5,1.5c0,0.83,0.67,1.5,1.5,1.5H305.5c0.83,0,1.5-0.67,1.5-1.5c0-0.83-0.67-1.5-1.5-1.5h-27.16v-64.06
	H436.5c0.83,0,1.5-0.67,1.5-1.5C438,1096.9,437.33,1096.23,436.5,1096.23z M275.34,1163.29h-103v-64.06h103V1163.29z
	 M234.34,1096.23v-60.32h110.67v60.32H234.34z"/>
<g>
	<polygon class="st1" points="1144.66,1234.21 1144.61,1265.62 1101.09,1265.62 1097.46,1235.81 	"/>
	<path class="st2" d="M1146.23,1267.24h-46.58l-4.02-32.99l50.66-1.73L1146.23,1267.24z M1102.53,1263.99h40.45l0.05-28.1
		l-43.74,1.49L1102.53,1263.99z"/>
	<path class="st3" d="M1146.99,1263.72c0,0,62.89,19.96,65.06,36.41h-112.78v-36.41H1146.99z"/>
	<polygon class="st1" points="969.24,1234.89 968.06,1266.67 924.54,1266.67 922.48,1234.21 	"/>
	<path class="st2" d="M969.62,1268.29h-46.61l-2.27-35.74l50.19,0.74L969.62,1268.29z M926.07,1265.04h40.42l1.07-28.55l-43.34-0.63
		L926.07,1265.04z"/>
	<path class="st3" d="M970.44,1264.77c0,0,62.89,19.96,65.06,36.41H922.73v-36.41H970.44z"/>
	<polygon class="st2" points="1039.61,1294.93 1039.61,1304.39 919.79,1304.39 919.79,1293.58 	"/>
	<polygon class="st2" points="1095.76,1293.26 1095.76,1303.34 1215.58,1303.34 1215.58,1292.53 	"/>
	<polygon class="st2" points="983.68,1240.67 914.41,1240.67 908.51,685.53 1108.16,720.01 1155.67,1240.67 1089,1240.67 
		1019.2,894.74 1027.19,818.89 	"/>
	<path class="st3" d="M936.57,1230.08c-0.01,0-0.02,0-0.04,0c-0.9-0.02-1.61-0.76-1.59-1.66l10.23-459.78
		c0.02-0.9,0.79-1.6,1.66-1.59c0.9,0.02,1.61,0.76,1.59,1.66l-10.23,459.78C938.18,1229.38,937.46,1230.08,936.57,1230.08z"/>
	<path class="st3" d="M1104.7,1228.18l-71.01-403.54c-0.08-0.48-0.38-0.88-0.77-1.11l3.86-22.8l0.02-0.13v-45.5
		c0-0.9-0.73-1.63-1.63-1.63s-1.63,0.73-1.63,1.63v45.23l-15.95,94.15c-0.15,0.89,0.45,1.72,1.33,1.88
		c0.09,0.02,0.18,0.02,0.27,0.02c0.78,0,1.47-0.56,1.6-1.36l10.78-63.6l69.91,397.32c0.14,0.79,0.83,1.34,1.6,1.34
		c0.09,0,0.19-0.01,0.28-0.03C1104.26,1229.9,1104.85,1229.06,1104.7,1228.18z"/>
	<path class="st1" d="M1057.86,755.1c0,0-0.67,45.96-8.67,47.46h-76.5c-2.5-2.41-6.5-16.14,17.5-16.64c24-0.5,31.14,0,31.14,0
		l-1.14-30.82H1057.86z"/>
	<path class="st2" d="M1049.32,803.95h-77.19l-0.4-0.39c-1.72-1.66-3.26-6.13-1.66-10.2c1.52-3.87,6.23-8.54,20.1-8.83
		c18.06-0.38,26.55-0.19,29.72-0.07l-1.14-30.75h40.53l-0.02,1.41c-0.16,11.05-1.34,47.22-9.8,48.81L1049.32,803.95z M973.34,801.16
		h75.69c4.1-1.13,6.99-23.68,7.4-44.67h-34.8l1.14,30.92l-1.55-0.11c-0.07,0-7.41-0.49-31.01,0c-12.33,0.26-16.36,3.98-17.56,7.06
		C971.57,797.15,972.55,799.99,973.34,801.16z"/>
	<path class="st1" d="M1150.58,387.43c0,0-18.47,49.74-15.89,56.48c2.58,6.73,3,32.72,3,32.72l-50.11,96.34l-82.21-30.65
		l17.55-87.84c0,0,46.88-21.11,50.92-26.93c5.59-8.06,18.3-55.69,18.3-55.69L1150.58,387.43z"/>
	<path class="st2" d="M1088.32,574.89l-84.71-31.58l17.97-89.9l0.72-0.33c18.69-8.41,47.5-22.39,50.29-26.41
		c5.38-7.75,17.95-54.74,18.08-55.21c0.22-0.82,1.07-1.31,1.89-1.09c0.82,0.22,1.31,1.06,1.09,1.89
		c-0.52,1.96-12.84,47.99-18.52,56.18c-4,5.77-43.49,23.81-50.83,27.13l-17.14,85.77l79.7,29.71l49.3-94.78
		c-0.07-3.25-0.61-25.84-2.9-31.81c-2.65-6.93,12.76-49.17,15.88-57.57c0.3-0.8,1.18-1.21,1.98-0.91c0.8,0.3,1.21,1.18,0.91,1.98
		c-7.06,19.02-17.62,50.88-15.89,55.39c2.65,6.91,3.09,32.18,3.11,33.25l0.01,0.39l-0.18,0.35L1088.32,574.89z"/>
	<path class="st2" d="M1170.48,282.15c10,4.57,34.43,15.37,28.22,33.92c-7.08,21.16-19.76,47.17-26.68,60.78
		c-2.73,5.37-8.97,7.93-14.68,6.02l-63.88-21.38c-5.85-1.96-9.3-8-8.02-14.05c4.32-20.36,13.84-63.36,18.26-68.84
		C1118.75,259.94,1154.65,274.91,1170.48,282.15z"/>
	<path class="st1" d="M1093.78,376.97c-2.25-4.74,1.11-19.38,6.13-35.68c0.14-0.47,0.04-0.98-0.28-1.34
		c-3.36-3.9-7.64-11.28-4.78-19.24c2.48-6.9,7.02-3.76,10.21-0.2c0.57,0.63,1.6,0.4,1.89-0.43c6.84-19.4,13.63-36.14,13.63-36.14
		l75.91,25.41c0,0-5.97,17.34-13.23,36.6c-0.33,0.86-19.08,46.32-22.32,49.92c-1.76,1.96-4.3,3.23-7.38,3.92
		c0,0-6.2,2.35-33.79-6.88L1093.78,376.97z"/>
	<path class="st2" d="M1150.88,401.59c-4.25,0-13.35-1.13-31.57-7.23c-0.81-0.27-1.25-1.15-0.98-1.96c0.27-0.81,1.15-1.25,1.96-0.98
		c26.12,8.74,32.74,6.9,32.8,6.88l0.16-0.05c2.89-0.65,5.1-1.81,6.56-3.45c2.91-3.24,21.33-47.63,22.02-49.43
		c5.96-15.81,11.1-30.49,12.7-35.08l-73.04-24.45c-1.75,4.36-7.42,18.71-13.07,34.72c-0.33,0.92-1.09,1.59-2.03,1.78
		c-0.92,0.18-1.85-0.13-2.47-0.82c-2.13-2.37-4.05-3.6-5.26-3.35c-1.11,0.22-1.89,1.77-2.34,3.04c-2.86,7.95,2.19,15.04,4.49,17.71
		c0.67,0.77,0.88,1.82,0.58,2.8c-7.75,25.15-7.22,32.45-6.22,34.57c0.37,0.77,0.04,1.7-0.73,2.06c-0.77,0.37-1.7,0.04-2.06-0.73
		c-2.15-4.54-0.18-16.55,6.03-36.74c-2.68-3.13-8.4-11.29-5.01-20.72c1.06-2.94,2.62-4.64,4.66-5.03c2.28-0.45,4.86,0.83,7.67,3.78
		c6.7-18.95,13.37-35.42,13.44-35.58l0.55-1.35l78.77,26.36l-0.51,1.48c-0.06,0.17-6.06,17.58-13.24,36.64
		c-0.17,0.44-19.03,46.42-22.61,50.41c-1.89,2.11-4.62,3.58-8.12,4.38C1153.64,401.38,1152.71,401.59,1150.88,401.59z"/>
	<path class="st2" d="M1140.39,339.6c-0.32,0-0.64-0.06-0.96-0.18c-1.35-0.53-2.02-2.06-1.49-3.41l0.6-1.54
		c0.53-1.35,2.06-2.02,3.41-1.49c1.35,0.53,2.02,2.06,1.49,3.41l-0.6,1.54C1142.44,338.96,1141.45,339.6,1140.39,339.6z"/>
	<path class="st2" d="M1171.93,351.55c-0.29,0-0.58-0.05-0.86-0.14c-1.37-0.48-2.1-1.97-1.63-3.35l0.64-1.84
		c0.48-1.37,1.97-2.1,3.35-1.63c1.37,0.48,2.1,1.97,1.63,3.35l-0.64,1.84C1174.04,350.87,1173.02,351.55,1171.93,351.55z"/>
	<path class="st2" d="M1128.91,323.79c-0.53,0-1.07-0.2-1.48-0.61c-0.83-0.82-0.84-2.15-0.02-2.98c7.99-8.11,21.36-3.77,21.93-3.58
		c1.1,0.37,1.7,1.56,1.33,2.66c-0.37,1.1-1.55,1.69-2.66,1.33l0,0c-0.11-0.04-11.46-3.69-17.6,2.54
		C1130,323.58,1129.45,323.79,1128.91,323.79z"/>
	<path class="st2" d="M1154.51,362.08c-0.99,0-1.83-0.07-2.34-0.13c-0.97-0.11-1.67-0.99-1.56-1.96c0.11-0.97,1-1.67,1.96-1.57
		c2.75,0.3,5.49-0.15,5.81-0.73c0.45-1.02,1.16-7.34,1.74-12.41c1.09-9.71,1.84-15.74,2.9-17.58c0.57-0.99,1.51-1.62,2.71-1.8
		c5.26-0.83,14.7,7.49,16.55,9.16c0.73,0.66,0.78,1.78,0.12,2.5c-0.66,0.72-1.78,0.78-2.5,0.12c-7.86-7.14-13.05-8.79-13.78-8.24
		c-0.79,1.38-1.79,10.31-2.46,16.23c-0.99,8.78-1.46,12.48-2.16,13.73C1160.26,361.64,1156.95,362.08,1154.51,362.08z"/>
	<path class="st2" d="M1177.4,312.17c9.98,2.7,29.71,5.1,34.19-14.85c4.48-19.96-1.61-14.21-1.61-14.21s-5.44,2.98-7.03,2.65
		c-1.59-0.33,1.21,1.79,1.34-15.95c0,0-13.63-7.53-22.9-0.45c-9.26,7.08-12.09,0.51-12.94-4.85c-0.73-4.56-8.51-1.51-10.99,2.08
		c-3.72,3.73-25.26-5.93-32.95-4.78c-12.17,1.83-16.51,2.87-20.8,16.78c-0.82,2.67-5.18,29.93-5.18,29.93l17.36-24.4
		C1115.9,284.12,1161.09,307.75,1177.4,312.17z"/>
	<path class="st2" d="M1157.04,372.89c0.52,1.3-1.51,5.27-5.16,3.69c-9.36-4.07-15.59-14.12-13.48-12.75
		c0.83,0.54,6.4,4.23,10.28,6.2C1153.95,372.7,1156.45,371.41,1157.04,372.89z"/>
	<path class="st4" d="M1076.05,429.42c0,0,63.23,22.35,65.72,22.51c2.5,0.16-39.35,286.39-39.35,286.39l-132.89-42.67
		L1076.05,429.42z"/>
	<path class="st1" d="M987.96,532.75V767.2V532.75z"/>
	<path class="st2" d="M987.96,768.81c-0.89,0-1.61-0.72-1.61-1.61V532.75c0-0.89,0.72-1.61,1.61-1.61c0.89,0,1.61,0.72,1.61,1.61
		V767.2C989.57,768.09,988.85,768.81,987.96,768.81z"/>
	<path class="st1" d="M1169.96,582.88c4.77,8.49,108.17-67.39,109.71-73.17c3.52-13.25-4.96-25.52-4-29.44
		c1.5-6.14,14.24,13.16,16.99,18.77c0.47,0.96,1.22,1.03,2.15,0.51c11.15-6.23,40.65-24.09,42.2-17.87
		c1.42,5.7-28.06,19.8-27.83,21.2c0.61,3.69,3.32,17.19-11.5,23.17c-9.57,3.86-35.51,96.05-85.46,86.3
		C1162.25,602.6,1165.19,574.38,1169.96,582.88z"/>
	<path class="st2" d="M1219.63,614.7c-2.51,0-5.09-0.25-7.74-0.76c-36.99-7.21-45.76-24.57-46.01-30.65
		c-0.11-2.68,1.25-3.36,1.84-3.52c0.74-0.21,2.17-0.2,3.55,2.15c2.5,0.59,16.72-5.55,55.24-32.6c27.29-19.16,50.05-37.22,51.6-40.1
		c2.13-8.13-0.52-15.92-2.46-21.61c-1.17-3.43-2.01-5.9-1.57-7.73c0.49-1.99,1.87-2.35,2.44-2.42c0.08-0.01,0.16-0.01,0.25-0.01
		c5.48,0,16.07,18.58,17.23,20.67c0,0,0,0,0,0c1.37-0.77,3.03-1.71,4.88-2.77c21.05-12.02,33.31-18.17,37.83-16.24
		c0.96,0.41,1.62,1.18,1.86,2.17c1.06,4.24-6.39,9.5-21.44,18.31c-2.44,1.43-5.16,3.02-6.24,3.8c1.86,11.9-2.38,20.02-12.63,24.16
		c-2.03,0.82-6.45,9.61-10.73,18.1C1274.32,571.94,1252.79,614.7,1219.63,614.7z M1169.36,584.58c0.22,0.88,0.64,2.01,1.38,3.38
		c2.68,4.92,12.1,17,41.77,22.79c35.17,6.86,58.31-39.1,72.13-66.56c6.25-12.41,9.38-18.43,12.42-19.66
		c13.22-5.33,11.21-17.19,10.56-21.08l-0.05-0.31c-0.26-1.56,0.67-2.1,7.93-6.36c4.27-2.5,9.59-5.62,13.74-8.58
		c6.44-4.6,6.19-6.12,6.18-6.13c-0.13-0.07-2.1-1.02-13.59,4.54c-7.11,3.44-15.33,8.14-21.33,11.57c-1.86,1.06-3.52,2.01-4.9,2.78
		c-0.93,0.52-1.82,0.66-2.63,0.4c-0.53-0.16-1.26-0.58-1.77-1.62c-2.82-5.74-11.07-17.45-13.98-18.91
		c-0.08,1.03,0.73,3.41,1.51,5.71c1.96,5.76,4.93,14.45,2.51,23.57c-1.17,4.41-35.7,29.7-48.91,39.07
		c-14.61,10.37-49.7,34.62-59.93,35.92C1170.94,585.29,1169.98,585.01,1169.36,584.58z M1278.1,509.28c0,0,0,0.01,0,0.01
		C1278.1,509.28,1278.1,509.28,1278.1,509.28z M1277.31,480.45L1277.31,480.45L1277.31,480.45z"/>
	<path class="st3" d="M865.4,711.17c0,0,84.53-260.69,119.97-284.39c35.43-23.7,46.72-19.82,75.7-19.59
		c28.98,0.23,29.4,75.6,20.17,101.29c-11.73,32.64-72.85,234.87-72.85,234.87L865.4,711.17z"/>
	<path class="st3" d="M1074.35,758.2c0,0,30.06-205.79,42.32-247.5c7.7-26.2,14.92-81.46,30.07-76.66
		c32.69,10.36,51.49,127.13,51.49,127.13l65.54-53.68l39.34,56.07c0,0-64.26,107-113.03,106.52c-21.49-0.21-47.1-58.6-47.1-58.6
		l-19,157.89L1074.35,758.2z"/>
	<polygon class="st3" points="993.72,525.06 987.96,775.13 1061.08,776.14 1065.12,507.75 	"/>
	<path class="st2" d="M1062.8,777.92l-76.63-1.06l5.8-251.84c0.02-0.97,0.82-1.76,1.79-1.71c0.97,0.02,1.73,0.82,1.71,1.79
		l-5.72,248.31l69.61,0.96l4.01-266.65c0.01-0.96,0.79-1.72,1.75-1.72c0.01,0,0.02,0,0.03,0c0.97,0.01,1.74,0.81,1.72,1.78
		L1062.8,777.92z"/>
	<path class="st2" d="M1142.44,603.31c-0.07,0-0.15,0-0.23-0.01c-0.96-0.12-1.63-1-1.51-1.96l9.94-77.08c0.12-0.96,1-1.64,1.96-1.51
		c0.96,0.12,1.63,1,1.51,1.96l-9.94,77.08C1144.06,602.67,1143.31,603.31,1142.44,603.31z"/>
</g>
<g>
	<path class="st3" d="M586.98,1043.53H408.37c-23.98,0-43.41-19.44-43.41-43.41V633c0-23.98,19.44-43.41,43.41-43.41h141.75
		c23.98,0,43.41,19.44,43.41,43.41v332.2l36.87,34.91C630.4,1024.09,610.96,1043.53,586.98,1043.53z"/>
	<path class="st2" d="M586.98,1045.28H408.37c-24.9,0-45.16-20.26-45.16-45.16V633c0-24.9,20.26-45.16,45.16-45.16h141.75
		c24.9,0,45.16,20.26,45.16,45.16v331.45l36.87,34.91v0.75C632.14,1025.02,611.88,1045.28,586.98,1045.28z M408.37,591.34
		c-22.97,0-41.66,18.69-41.66,41.66v367.12c0,22.97,18.69,41.66,41.66,41.66h178.62c22.72,0,41.26-18.29,41.66-40.92l-36.86-34.91
		V633c0-22.97-18.69-41.66-41.66-41.66H408.37z"/>
	<path class="st2" d="M488.98,978.39c-0.01,0-0.02,0-0.03,0l-74.48,1.27c9.91-120.79-19.63-300.75-19.93-302.56
		c-0.16-0.95-1.06-1.6-2.01-1.44c-0.95,0.16-1.6,1.06-1.44,2.01c0.3,1.8,29.83,181.68,19.87,302.05L395.07,980
		c-0.97,0.02-1.74,0.81-1.72,1.78c0.02,0.96,0.8,1.72,1.75,1.72c0.01,0,0.02,0,0.03,0l93.88-1.6c0.97-0.02,1.74-0.81,1.72-1.78
		C490.72,979.16,489.94,978.39,488.98,978.39z"/>
	<path class="st2" d="M533.82,1268.8h-16.55v-204.78c10.52-2.14,18.37-10.49,18.37-20.49h-47.35c0,10,7.85,18.35,18.37,20.49v204.78
		h-16.55c-16.44,0-29.76,13.33-29.76,29.76v5.83h103.24v-5.83C563.59,1282.12,550.26,1268.8,533.82,1268.8z"/>
</g>
<g>
	<polygon class="st1" points="854.45,1185.55 883.18,1257.51 833.24,1257.51 808.61,1211.58 	"/>
	<path class="st2" d="M886.03,1259.44h-53.95l-26.06-48.6l49.39-28.05L886.03,1259.44z M834.39,1255.58h45.94l-26.86-67.26
		l-42.27,24.01L834.39,1255.58z"/>
	<path class="st4" d="M885.92,1255.18c0,0,72.18,24.45,74.67,44.59H831.16v-44.59H885.92z"/>
	<polygon class="st1" points="691.82,1218.34 685.98,1258.09 638.71,1258.09 643.71,1214.81 	"/>
	<path class="st2" d="M687.65,1260.02h-51.1l5.46-47.27l52.03,3.82L687.65,1260.02z M640.87,1256.16h43.44l5.3-36.05l-44.2-3.24
		L640.87,1256.16z"/>
	<path class="st4" d="M688.72,1255.76c0,0,72.18,24.45,74.67,44.59H633.96v-44.59H688.72z"/>
	<polygon class="st2" points="768.1,1292.7 768.1,1304.28 630.58,1304.28 630.58,1291.04 	"/>
	<polygon class="st2" points="827.12,1291.36 827.12,1303.7 964.64,1303.7 964.64,1290.46 	"/>
	<path class="st2" d="M693.57,1272.08c-0.75,0-1.45-0.48-1.69-1.23c-0.3-0.93,0.22-1.93,1.15-2.22l24.95-7.97
		c0.93-0.3,1.93,0.22,2.23,1.15c0.3,0.93-0.22,1.93-1.15,2.22l-24.95,7.97C693.93,1272.05,693.75,1272.08,693.57,1272.08z"/>
	<path class="st2" d="M706.05,1280.05c-0.75,0-1.45-0.48-1.69-1.23c-0.3-0.93,0.22-1.93,1.15-2.22l24.95-7.97
		c0.93-0.3,1.93,0.22,2.23,1.15c0.3,0.93-0.22,1.93-1.15,2.22l-24.95,7.97C706.41,1280.02,706.23,1280.05,706.05,1280.05z"/>
	<path class="st2" d="M723.34,1288.01c-0.75,0-1.45-0.48-1.69-1.23c-0.3-0.93,0.22-1.93,1.15-2.22l24.95-7.97
		c0.93-0.3,1.93,0.22,2.23,1.15c0.3,0.93-0.22,1.93-1.15,2.22l-24.95,7.97C723.7,1287.99,723.52,1288.01,723.34,1288.01z"/>
	<path class="st2" d="M887.23,1268.79c-0.75,0-1.45-0.48-1.69-1.23c-0.3-0.93,0.22-1.93,1.15-2.22l24.95-7.97
		c0.93-0.29,1.93,0.22,2.23,1.15c0.3,0.93-0.22,1.93-1.15,2.22l-24.95,7.97C887.59,1268.76,887.41,1268.79,887.23,1268.79z"/>
	<path class="st2" d="M899.71,1276.75c-0.75,0-1.45-0.48-1.69-1.23c-0.3-0.93,0.22-1.93,1.15-2.22l24.95-7.97
		c0.93-0.3,1.93,0.22,2.23,1.15c0.3,0.93-0.22,1.93-1.15,2.22l-24.95,7.97C900.06,1276.73,899.88,1276.75,899.71,1276.75z"/>
	<path class="st2" d="M917,1284.72c-0.75,0-1.45-0.48-1.69-1.23c-0.3-0.93,0.22-1.93,1.15-2.22l24.95-7.97
		c0.93-0.3,1.93,0.22,2.23,1.15c0.3,0.93-0.22,1.93-1.15,2.22l-24.95,7.97C917.36,1284.7,917.17,1284.72,917,1284.72z"/>
	<path class="st5" d="M638.81,886.24c0,0,158.65-7.04,162.65,31.75c4,38.78-93.25,313.1-93.25,313.1l-76.25-10.83
		c0,0,54.86-201.15,52.48-215.58c-9.4-57.08-228.65-126.4-228.65-126.4L638.81,886.24z"/>
	<path class="st6" d="M427.12,855.98c0,0-19.07,125.18,72.1,132.89c92.06,7.79,180.38,6.4,200.42,26.06
		c5.87,5.76,109.18,216.14,109.18,216.14l72.16-28.45c0,0-120.74-260.34-130-272.86c-16.68-22.54-29.32-34.71-112.17-43.53
		C563.98,878.27,427.12,855.98,427.12,855.98z"/>
	<path class="st1" d="M644.67,520.54c0,0-16.57,48.86-13.56,55.23c3.01,6.37,25.36,21.48,25.36,21.48l-67.52,105.24l-86.55-25.68
		l13.7-85.56c0,0,47.4-22.58,51.28-28.39c5.37-8.04,16.1-54.59,16.1-54.59L644.67,520.54z"/>
	<path class="st2" d="M589.61,704.3l-1.11-0.33l-87.85-26.06l14.04-87.7l0.73-0.35c18.18-8.66,48.01-23.88,50.67-27.85
		c5.16-7.71,15.77-53.62,15.88-54.08c0.19-0.83,1.02-1.35,1.85-1.16c0.83,0.19,1.35,1.02,1.16,1.85
		c-0.44,1.91-10.85,46.92-16.32,55.1c-3.85,5.76-43.75,25.03-51.17,28.58l-13.36,83.42l84.15,24.96l66.09-103.01
		c-5.08-3.5-21.86-15.36-24.64-21.25c-3.12-6.6,10.7-48.13,13.5-56.38c0.27-0.81,1.15-1.24,1.96-0.96c0.81,0.27,1.24,1.15,0.96,1.96
		c-6.33,18.66-15.63,49.85-13.63,54.08c2.32,4.92,18.71,16.73,24.83,20.86l1.25,0.84L589.61,704.3z"/>
	<path class="st2" d="M651.41,418.7c10.77,3.44,37.05,11.48,32.56,29.9c-5.12,21.01-15.51,47.22-21.24,60.96
		c-2.26,5.42-8.43,8.48-14.5,7.19l-68-14.43c-6.23-1.32-10.4-6.8-9.7-12.74c2.36-19.98,7.75-62.21,11.75-67.91
		C595.85,402.32,634.36,413.26,651.41,418.7z"/>
	<path class="st1" d="M582.15,517.17c-2.8-4.34-0.84-18.73,2.65-34.88c0.1-0.47-0.06-0.94-0.42-1.26
		c-3.86-3.43-9.03-10.11-6.9-18.04c1.84-6.87,6.84-4.29,10.5-1.17c0.65,0.56,1.69,0.23,1.91-0.6c5.05-19.3,10.33-36.04,10.33-36.04
		l80.8,17.14c0,0-4.37,17.24-9.87,36.44c-0.25,0.86-14.9,46.34-17.86,50.11c-1.61,2.05-4.1,3.51-7.19,4.48c0,0-6.15,2.86-35.52-3.38
		L582.15,517.17z"/>
	<path class="st2" d="M640.01,535.57c-5.3,0-14.42-0.82-29.75-4.07c-0.84-0.18-1.37-1-1.19-1.84c0.18-0.84,1-1.38,1.84-1.19
		c27.89,5.92,34.52,3.49,34.59,3.47l0.15-0.06c2.92-0.91,5.09-2.24,6.44-3.95c2.63-3.35,17.06-47.78,17.59-49.59
		c4.48-15.66,8.25-30.17,9.45-34.83l-77.85-16.52c-1.35,4.35-5.72,18.69-9.9,34.62c-0.24,0.91-0.92,1.62-1.82,1.9
		c-0.9,0.29-1.87,0.09-2.59-0.52c-2.5-2.13-4.67-3.12-5.93-2.72c-1.11,0.35-1.74,1.88-2.07,3.11c-2.11,7.85,3.79,14.14,6.43,16.48
		c0.78,0.69,1.13,1.74,0.91,2.75c-5.38,24.86-4.11,31.79-2.87,33.71c0.46,0.72,0.26,1.68-0.46,2.14c-0.72,0.46-1.68,0.26-2.14-0.46
		c-0.99-1.54-4.01-6.21,2.41-35.91c-3.11-2.79-9.8-10.09-7.27-19.51c0.77-2.88,2.17-4.65,4.14-5.27c2.31-0.72,5.13,0.27,8.41,2.95
		c4.96-18.88,10.16-35.38,10.21-35.55l0.42-1.34l83.75,17.77l-0.4,1.56c-0.04,0.17-4.44,17.48-9.88,36.49
		c-0.12,0.44-14.85,46.46-18.13,50.64c-1.73,2.2-4.38,3.88-7.88,4.98C646.1,535.03,644.32,535.57,640.01,535.57z"/>
	<path class="st2" d="M617.64,476.84c-0.25,0-0.51-0.04-0.76-0.11c-1.39-0.42-2.18-1.88-1.76-3.28l0.46-1.54
		c0.42-1.39,1.88-2.18,3.28-1.76c1.39,0.42,2.18,1.88,1.76,3.28l-0.46,1.54C619.82,476.1,618.77,476.84,617.64,476.84z"/>
	<path class="st2" d="M654.84,484.83c-0.21,0-0.43-0.03-0.65-0.08c-1.41-0.36-2.26-1.79-1.9-3.2l0.47-1.83
		c0.36-1.41,1.79-2.26,3.2-1.9c1.41,0.36,2.26,1.79,1.9,3.2l-0.47,1.83C657.09,484.04,656.02,484.83,654.84,484.83z"/>
	<path class="st2" d="M626.61,465.95c-0.42,0-0.84-0.13-1.21-0.39c-0.07-0.05-5.55-3.81-12.43-2.8c-1.15,0.17-2.22-0.63-2.39-1.78
		c-0.17-1.15,0.63-2.22,1.78-2.39c8.61-1.27,15.2,3.33,15.48,3.53c0.95,0.67,1.17,1.99,0.5,2.93
		C627.91,465.64,627.26,465.95,626.61,465.95z"/>
	<path class="st2" d="M619.77,502.13c-1.71,1.49,3.34,8.9,10.99,10.19c12.48,2.11,18.23-4.97,15.11-5.05
		c-1.22-0.03-6.29,1.4-13.73,0C624.11,505.76,620.91,501.13,619.77,502.13z"/>
	<path class="st2" d="M635.13,499.21c-0.08,0-0.16,0-0.23,0c-0.98-0.01-1.76-0.81-1.75-1.79c0.01-0.97,0.8-1.75,1.77-1.75
		c0.07,0,0.13,0,0.19,0c2.86,0,5.5-0.68,5.82-1.27c0.63-1.36,0.67-1.45-0.66-9.73c-0.3-1.85-0.65-4.09-1.08-6.82l-0.02-0.15
		c-0.04-0.63-0.39-6.23,1.27-9.67c0.6-1.25,1.99-2.1,4.11-2.52c5.43-1.08,14.75,0.62,19.45,4.8c0.73,0.65,0.8,1.77,0.15,2.5
		c-0.65,0.73-1.77,0.8-2.5,0.15c-3.44-3.06-10.5-4.53-15.06-4.15c-2.03,0.17-2.84,0.65-2.97,0.81c-1.03,2.13-1.01,6.26-0.91,7.77
		c0.42,2.69,0.77,4.9,1.06,6.73c1.38,8.64,1.49,9.34,0.37,11.77C642.75,498.92,637.17,499.21,635.13,499.21z"/>
	<path class="st2" d="M591.61,422.19c0,0-0.65-20.38,13.02-17.94c13.67,2.45,15.97-11.09,28.77-8.7c12.81,2.39,5.63,5.84,18.75,9.82
		c13.12,3.98,20.14-3.13,23.24,7.5c3.11,10.63,13.64,8.57,17.86,15.89c4.22,7.31,2.27,15.43-4.39,17.74c-6.66,2.31,3,8.49-2.6,13.99
		c-5.6,5.51-27.65,3.58-30.89-5.23c-3.24-8.82-4.88-14.79-13.08-15.71c-8.19-0.92-18.42,2.72-23.9,0.8
		c-5.48-1.92-12.7-8.34-15.83-6.97c-3.13,1.36-6.62,6.3-9.6,5.72C589.96,438.51,581.21,428.17,591.61,422.19z"/>
	<path class="st2" d="M604.45,425.16c0,0-3.65,9.8-7.63,14.04c-3.97,4.24-9.37,6.95-9.29,14.01c0.09,7.06-16.85-3.75-12.15-11.05
		c9.69-15.05-4.92-19.49,4.68-26.96c5.73-4.46,15.8-3.7,15.8-3.7L604.45,425.16z"/>
	<path class="st2" d="M604.45,425.16c0,0-3.65,9.8-7.63,14.04c-3.97,4.24-9.37,6.95-9.29,14.01c0.09,7.06-16.85-3.75-12.15-11.05
		c9.69-15.05-4.92-19.49,4.68-26.96c5.73-4.46,15.8-3.7,15.8-3.7L604.45,425.16z"/>
	<path class="st4" d="M542.15,561.49c-17.59-9.07-128.56,67.6-159.92,168.68c-35.19,113.47,93.8,81.6,93.8,81.6l-19.92-126.6
		l-32.17,181.84l206.81,19.22l21.74-135.1c0,0-9.62,59.77,67.22,61.05c33.84,0.57,81.74,0,81.74,0l5.52-51.68l-86.21-12.26
		c0,0-7.81-97.44-41.96-132.8c-16.11-16.69-29.37-26.52-36.33-28.21C621.55,582.13,631.49,607.57,542.15,561.49z"/>
	<path class="st1" d="M665.34,791.18l40.97-4.35l13.31,3.47l1.94,4.94c0,0-21.89-1.29-34.83,2.65c-12.93,3.94-22.76,2.68-22.76,2.68
		l-0.7-2.97L665.34,791.18z"/>
	<path class="st1" d="M658.53,804.56c-18.19-1.56-96.13,8.98-96.13,8.98l6.57-42.1c0,0,85.03,14.47,91.46,12.62
		c12.08-3.47,28.08-5.58,42.35-6.14c18.88-0.74,36.5,3.78,36.21,8.92c-0.15,2.77-25.58,0.56-32.09,3.18
		C688.51,797.38,671.49,805.67,658.53,804.56z"/>
	<path class="st2" d="M559.87,816.01l7.34-47.03l2.11,0.36c32.53,5.54,85.87,13.88,90.52,12.67c11.45-3.29,27.47-5.62,42.85-6.22
		c16.25-0.63,32.05,2.49,36.76,7.27c1.46,1.48,1.7,2.93,1.65,3.88c-0.19,3.38-4.9,3.46-16.27,3.65c-6.38,0.11-14.33,0.24-17.14,1.37
		c-2.95,1.18-5.86,2.39-8.73,3.58c-15.03,6.22-29.22,12.1-40.61,11.12l0,0c-17.75-1.53-94.89,8.86-95.67,8.96L559.87,816.01z
		 M570.73,773.87l-5.81,37.19c14.34-1.9,77.33-10.01,93.79-8.61l0,0c10.37,0.9,24.1-4.79,38.63-10.82c2.88-1.19,5.81-2.41,8.77-3.59
		c3.54-1.42,11.22-1.55,18.65-1.67c3.92-0.07,9-0.15,11.48-0.52c-3.69-3.33-17.73-6.44-33.37-5.82c-15.06,0.59-30.7,2.85-41.85,6.06
		C654.73,787.9,588.84,776.94,570.73,773.87z"/>
	<path class="st1" d="M669.39,793.56l42.44-6.26l-1.96,0.64c0,0,40.3,6.68-19.04,11.57c-13.61,1.12-24.61-0.16-23.91,1.24l0.39-0.78
		L669.39,793.56z"/>
	<path class="st2" d="M675.14,804.37c-1.04,0-1.94-0.76-2.09-1.82c-0.16-1.16,0.64-2.23,1.8-2.39c4.89-0.69,9.32-1.72,13.22-2.63
		c4.77-1.11,8.88-2.06,12.48-2.11c4.36-0.05,17.34-0.21,19.6-1.76c-0.02-0.03-0.03-0.07-0.06-0.11c-0.96-1.32-9.39-4.55-17.77-4.61
		c-9.59-0.09-18.22,3.19-18.31,3.22c-1.09,0.42-2.31-0.13-2.73-1.22c-0.42-1.09,0.13-2.31,1.22-2.73c0.38-0.14,9.27-3.5,19.52-3.5
		c0.11,0,0.22,0,0.32,0c8.07,0.06,19.44,3.11,21.46,6.82c1.03,1.89,0.65,3.31,0.14,4.16c-1.68,2.87-6.92,3.76-23.36,3.96
		c-3.14,0.04-7.04,0.95-11.57,2c-3.99,0.93-8.51,1.98-13.59,2.7C675.34,804.36,675.24,804.37,675.14,804.37z"/>
	<polygon class="st4" points="524.03,565.46 553.08,551.02 600.64,582.66 579.97,599.12 	"/>
	<polygon class="st4" points="657.76,595.02 644.04,572.93 600.64,582.66 611.91,604.01 	"/>
	<path class="st2" d="M661.17,596.51l-16.12-25.97l-43.99,9.87l-47.82-31.82l-33.6,16.7l60.51,36.41l18.32-14.59
		c-2,33.03-14.85,235.77-31.31,288.97c-0.31,1.01,0.25,2.07,1.26,2.39c0.19,0.06,0.38,0.09,0.56,0.09c0.81,0,1.57-0.53,1.82-1.34
		c16.19-52.33,28.85-247.17,31.31-287.21l8.66,16.41L661.17,596.51z M579.8,596.55l-51.37-30.91l24.5-12.17l44.12,29.35
		L579.8,596.55z M643.04,575.32l11.31,18.21l-41.3,8.1l-9.24-17.51L643.04,575.32z"/>
	<path class="st4" d="M453.82,737.58l145.11,25.99l-16.9,49.97c0,0-100.5,2.91-122.01,0c-40.05-5.41-82.87-40.69-82.87-40.69
		L453.82,737.58z"/>
	<path class="st2" d="M582.92,812.88c-0.21,0-0.42-0.03-0.63-0.1c-1.03-0.35-1.59-1.47-1.24-2.5l15.26-45.13l-133.33-21.14
		l37.92-63.86c0.56-0.94,1.77-1.25,2.7-0.69c0.94,0.56,1.25,1.77,0.69,2.7l-34.95,58.86l132.21,20.96l-16.76,49.55
		C584.51,812.36,583.74,812.88,582.92,812.88z"/>
</g>
<g>
	<path class="st7" d="M1660.54,829.57l-1196.99-1.62c-6.6,0-12-5.4-12-12v-1.4c0-6.6,5.4-12,12-12l1196.99,1.62c6.6,0,12,5.4,12,12
		v1.4C1672.54,824.17,1667.14,829.57,1660.54,829.57z"/>
	<path class="st2" d="M1660.54,831.07L1660.54,831.07l-1196.99-1.62c-7.44,0-13.5-6.06-13.5-13.5v-1.4c0-7.44,6.06-13.5,13.5-13.5
		l1196.99,1.62c7.44,0,13.5,6.06,13.5,13.5v1.4C1674.04,825.01,1667.99,831.07,1660.54,831.07z M463.55,804.05
		c-5.79,0-10.5,4.71-10.5,10.5v1.4c0,5.79,4.71,10.5,10.5,10.5l1196.99,1.62c5.79,0,10.5-4.71,10.5-10.5v-1.4
		c0-5.79-4.71-10.5-10.5-10.5L463.55,804.05z"/>
	<polygon class="st7" points="422.71,1304.39 397.3,1304.39 514.41,828.14 539.82,828.14 	"/>
	<path class="st2" d="M423.81,1305.8H395.5l0.43-1.75l117.38-477.32h28.31l-0.43,1.75L423.81,1305.8z M399.1,1302.98h22.5
		l116.42-473.42h-22.5L399.1,1302.98z"/>
	<polygon class="st7" points="1656.3,1304.39 1681.7,1304.39 1611.65,829.57 1586.25,829.57 	"/>
	<path class="st2" d="M1683.44,1305.89H1655l-0.19-1.28l-70.31-476.54h28.44l0.19,1.28L1683.44,1305.89z M1657.59,1302.89h22.37
		l-69.61-471.82h-22.37L1657.59,1302.89z"/>
</g>
<g>
	
		<ellipse transform="matrix(0.1831 -0.9831 0.9831 0.1831 408.1425 993.0317)" class="st3" cx="801.58" cy="250.94" rx="96.68" ry="96.68"/>
	<path class="st2" d="M801.7,252.64l-57.82-26.72c-0.75-0.35-1.08-1.24-0.73-1.99c0.35-0.75,1.24-1.08,1.99-0.73l56.31,26.03
		l65.2-42.24c0.69-0.45,1.62-0.25,2.07,0.44c0.45,0.7,0.25,1.62-0.44,2.07L801.7,252.64z"/>
</g>
<g>
	<polygon class="st7" points="1000.98,647.92 966.09,789.2 762.29,789.2 803.55,647.92 	"/>
	<path class="st2" d="M967.26,790.7H760.29l42.14-144.28h200.48l-0.46,1.86L967.26,790.7z M764.29,787.7h200.62l34.15-138.28H804.67
		L764.29,787.7z"/>
	
		<rect x="701.21" y="789.2" transform="matrix(-1 -1.224647e-16 1.224647e-16 -1 1667.1138 1591.7557)" class="st3" width="264.7" height="13.35"/>
	<path class="st2" d="M967.4,804.05h-267.7V787.7h267.7V804.05z M702.71,801.05h261.7V790.7h-261.7V801.05z"/>
	<path class="st2" d="M880.42,745.39c-0.42,0-0.84-0.02-1.27-0.05c-4.77-0.41-9.04-3.05-12.03-7.43c-2.92-4.29-4.26-9.76-3.78-15.39
		c1.01-11.75,9.72-20.65,19.46-19.8c9.72,0.83,16.82,11.07,15.81,22.83C897.66,736.78,889.63,745.39,880.42,745.39z M881.54,705.66
		c-7.66,0-14.37,7.43-15.2,17.11c-0.42,4.95,0.74,9.73,3.27,13.45c2.47,3.63,5.95,5.8,9.8,6.13c8.07,0.67,15.35-6.96,16.22-17.07
		c0.87-10.1-5-18.89-13.08-19.58C882.21,705.67,881.88,705.66,881.54,705.66z"/>
</g>
<g>
	<path class="st4" d="M1238.19,802.55L1238.19,802.55c-24.3,0-44-19.7-44-44v-26.71h88v26.71
		C1282.19,782.86,1262.49,802.55,1238.19,802.55z"/>
	<path class="st4" d="M1272.68,787.42c-0.64,0-1.28-0.02-1.93-0.06l0.2-2.99c9.6,0.66,18.34-4.14,23.98-13.13
		c4.97-7.92,6.35-17.6,3.28-23.01c-1.1-1.93-2.59-3.03-4.56-3.36c-6.11-1.03-15.42,5.75-18.48,8.45l-1.98-2.25
		c0.49-0.43,12.19-10.62,20.96-9.16c2.88,0.48,5.12,2.11,6.67,4.84c3.64,6.42,2.27,17.15-3.35,26.09
		C1291.61,782.18,1282.65,787.42,1272.68,787.42z"/>
	<path class="st1" d="M1223.52,789.8c-0.21,0-0.42-0.05-0.62-0.16c-19.83-10.94-17.44-44.44-17.33-45.86
		c0.06-0.71,0.69-1.21,1.38-1.18c0.71,0.06,1.23,0.67,1.18,1.38c-0.03,0.33-2.37,33.27,16.01,43.41c0.62,0.34,0.85,1.12,0.5,1.74
		C1224.41,789.56,1223.97,789.8,1223.52,789.8z"/>
	<path class="st2" d="M1216.32,724.82c-0.39,0-0.77-0.15-1.06-0.44c-0.58-0.59-0.58-1.54,0.01-2.12
		c7.79-7.73,10.03-10.35,9.89-19.16c-0.12-7.95-3.78-11.31-7.66-14.88c-3.03-2.79-6.17-5.67-7.77-10.69
		c-3.78-11.88,10.91-22.95,11.54-23.41c0.67-0.5,1.6-0.35,2.1,0.31c0.49,0.67,0.35,1.6-0.31,2.1c-0.14,0.1-13.6,10.25-10.46,20.09
		c1.35,4.26,4.07,6.75,6.94,9.39c4.17,3.84,8.49,7.81,8.63,17.04c0.15,9.97-2.65,13.27-10.78,21.34
		C1217.09,724.68,1216.71,724.82,1216.32,724.82z"/>
	<path class="st2" d="M1255.42,724.82c-0.39,0-0.77-0.15-1.06-0.44c-0.58-0.59-0.58-1.54,0.01-2.12
		c7.79-7.73,10.02-10.35,9.89-19.16c-0.12-7.95-3.78-11.31-7.66-14.88c-3.03-2.79-6.17-5.67-7.77-10.69
		c-3.78-11.88,10.91-22.95,11.54-23.41c0.67-0.5,1.6-0.35,2.1,0.31c0.49,0.67,0.35,1.6-0.31,2.1c-0.14,0.1-13.6,10.25-10.46,20.09
		c1.35,4.26,4.07,6.75,6.94,9.39c4.17,3.84,8.49,7.81,8.63,17.04c0.15,9.97-2.65,13.27-10.78,21.34
		C1256.19,724.68,1255.81,724.82,1255.42,724.82z"/>
	<path class="st2" d="M1234.52,716.89c-0.39,0-0.77-0.15-1.06-0.44c-0.58-0.59-0.58-1.54,0.01-2.12
		c7.79-7.73,10.02-10.35,9.89-19.16c-0.12-7.95-3.78-11.31-7.66-14.88c-3.03-2.79-6.17-5.67-7.77-10.69
		c-3.78-11.88,10.91-22.95,11.54-23.41c0.67-0.49,1.6-0.35,2.1,0.31c0.49,0.67,0.35,1.6-0.31,2.1c-0.14,0.1-13.6,10.25-10.46,20.09
		c1.35,4.26,4.07,6.75,6.94,9.39c4.17,3.84,8.49,7.81,8.63,17.04c0.15,9.97-2.65,13.27-10.78,21.34
		C1235.29,716.75,1234.9,716.89,1234.52,716.89z"/>
</g>
<g>
	<polygon class="st1" points="1303.83,1215.94 1308.94,1265.5 1352.32,1265.5 1358.93,1212.44 	"/>
	<path class="st2" d="M1353.75,1267.12h-46.28l-5.43-52.7l58.73-3.73L1353.75,1267.12z M1310.4,1263.88h40.49l6.19-49.7l-51.46,3.27
		L1310.4,1263.88z"/>
	<path class="st4" d="M1306.56,1263.61c0,0-62.7,19.9-64.86,36.3h112.42v-36.3H1306.56z"/>
	<polygon class="st1" points="1443.92,1210.56 1433.57,1264.49 1476.95,1264.49 1484.73,1212.23 	"/>
	<path class="st2" d="M1478.35,1266.11h-46.74l10.98-57.22l44.01,1.8L1478.35,1266.11z M1435.54,1262.87h40.02l7.31-49.09
		l-37.61-1.54L1435.54,1262.87z"/>
	<path class="st4" d="M1431.19,1262.6c0,0-62.7,19.9-64.86,36.3h112.42v-36.3H1431.19z"/>
	<polygon class="st2" points="1361.06,1294.67 1361.06,1304.28 1480.51,1304.28 1480.51,1293.3 	"/>
	<polygon class="st2" points="1357.63,1292.88 1357.63,1304.28 1238.19,1304.28 1238.19,1292.05 	"/>
	<path class="st2" d="M1455.69,1294.79c-0.82,0-1.49-0.67-1.49-1.49v-21.78c0-0.82,0.67-1.49,1.49-1.49s1.49,0.67,1.49,1.49v21.78
		C1457.18,1294.12,1456.52,1294.79,1455.69,1294.79z"/>
	<path class="st2" d="M1331.06,1295.8c-0.82,0-1.49-0.67-1.49-1.49v-21.78c0-0.82,0.67-1.49,1.49-1.49s1.49,0.67,1.49,1.49v21.78
		C1332.55,1295.13,1331.88,1295.8,1331.06,1295.8z"/>
	<path class="st2" d="M1503.98,865.95l-106.28,100.06l-22.73,266.82l-78.87,1.96c0,0,5.4-275.26,13.87-301.07
		c9-27.44,141.28-192.77,141.28-192.77l182.71-22.4c0,0,22.82,73.3,8.2,108.75c-14.63,35.45-148.52,411.17-148.52,411.17
		l-88.67-4.57L1503.98,865.95z"/>
	<path class="st3" d="M1504.98,867.18c-0.11,0-0.23-0.01-0.35-0.04c-0.74-0.19-1.18-0.94-0.99-1.68l17.33-66.67
		c0.19-0.74,0.94-1.18,1.68-0.99c0.74,0.19,1.18,0.94,0.99,1.68l-17.33,66.67C1506.15,866.77,1505.6,867.18,1504.98,867.18z"/>
	<polygon class="st4" points="1506.84,503.46 1523.52,490.92 1541.15,501.35 1533.41,515.32 1564.88,702.75 1542.65,753.93 
		1516.05,706.44 1517.67,516.14 	"/>
	<path class="st2" d="M1520.8,320.92c10.18-0.69,34.89-2.68,38.02,15.16c3.56,20.35,4.7,47.12,5.06,61.26
		c0.14,5.58-3.82,10.42-9.32,11.38l-61.58,10.78c-5.64,0.99-11.13-2.41-12.75-7.9c-5.46-18.49-15.16-58.31-13.97-64.73
		C1470.3,325.05,1504.69,322.01,1520.8,320.92z"/>
	<path class="st1" d="M1554.27,413.91c0,0,6.58,47.97,11.76,52.67c5.18,4.7,29.44,13.2,29.44,13.2l-66.95,60.65l-53.29-38.6
		c0,0,22.33-14.84,23.52-21.53c1.64-9.25-7.04-55.43-7.04-55.43L1554.27,413.91z"/>
	<path class="st2" d="M1528.63,542.36l-56.03-40.59l1.8-1.2c8.43-5.6,22.09-16.13,22.87-20.54c1.57-8.88-6.95-54.43-7.04-54.89
		c-0.15-0.82,0.38-1.6,1.2-1.76c0.81-0.15,1.6,0.38,1.76,1.2c0.36,1.9,8.71,46.56,7.04,55.97c-1.09,6.18-16.74,17.43-22.38,21.31
		l50.56,36.62l64.18-58.14c-6.31-2.3-23.17-8.66-27.58-12.66c-5.32-4.82-11.13-45.48-12.24-53.58c-0.11-0.82,0.46-1.58,1.29-1.69
		c0.82-0.11,1.58,0.46,1.69,1.29c2.52,18.34,7.8,48.61,11.28,51.76c4.06,3.68,16,12.93,22.66,15.27l3.74,2.9L1528.63,542.36z"/>
	<path class="st1" d="M1532.29,434.27c-17.11,5.08-39.5,5.6-46.61,0.61c-4.17-2.93-8.05-16.71-11.26-32.66
		c-0.09-0.46-8.64-57.47-8.64-57.47l78.11-13.68c0,0,2.86,17.25,5.49,36.68c0.12,0.87,1.15,1.27,1.82,0.71
		c3.71-3.11,9.06-6.06,10.49,1.14c1.78,8.97-5.29,15.98-9.09,18.65c-0.4,0.28-0.61,0.75-0.55,1.23c1.48,13.78,2.23,25.78,1.09,30.28
		c-0.63,2.45-2.25,4.68-4.61,6.67L1532.29,434.27z"/>
	<path class="st2" d="M1503.63,439.88c-8.05,0-15.06-1.14-18.81-3.77c-4.01-2.81-7.89-13.8-11.87-33.59
		c-0.09-0.46-6.65-44.16-8.65-57.55l-0.22-1.45l81.05-14.19l0.25,1.5c0.03,0.17,2.83,17.08,5.41,36.04
		c3.47-2.77,6.37-3.76,8.65-2.96c1.9,0.67,3.16,2.49,3.74,5.41c1.71,8.6-4.09,16.19-9.61,20.11c1.76,16.48,2.1,26.53,1.04,30.71
		c-0.68,2.66-2.39,5.16-5.1,7.45c-0.63,0.54-1.58,0.46-2.12-0.18c-0.54-0.63-0.46-1.58,0.18-2.12c2.22-1.87,3.61-3.86,4.13-5.89
		c0.66-2.6,1.01-9.87-1.13-29.75c-0.11-1.02,0.34-2.03,1.19-2.62c1.06-0.75,10.37-7.6,8.47-17.12c-0.25-1.24-0.76-2.79-1.79-3.15
		c-1.26-0.44-3.54,0.6-6.26,2.88c-0.73,0.61-1.74,0.78-2.63,0.44c-0.89-0.34-1.52-1.15-1.65-2.09c-2.16-15.93-4.49-30.54-5.24-35.14
		l-75.17,13.16c2.97,19.82,8.28,55.15,8.42,55.98c4.94,24.54,8.79,30.39,10.64,31.69c6.5,4.57,28.53,4.17,45.31-0.82
		c0.8-0.24,1.63,0.22,1.87,1.01c0.24,0.8-0.22,1.63-1.01,1.87C1524.01,438.3,1513.1,439.88,1503.63,439.88z"/>
	<path class="st2" d="M1489.19,387.83c-1.04,0-1.97-0.74-2.17-1.8l-0.34-1.83c-0.22-1.2,0.57-2.35,1.76-2.57
		c1.2-0.22,2.35,0.57,2.57,1.76l0.34,1.83c0.22,1.2-0.57,2.35-1.76,2.57C1489.46,387.82,1489.32,387.83,1489.19,387.83z"/>
	<path class="st2" d="M1524.18,382.05c-1.06,0-1.99-0.77-2.17-1.85l-0.3-1.83c-0.2-1.2,0.62-2.34,1.82-2.53
		c1.21-0.2,2.34,0.62,2.54,1.82l0.3,1.83c0.2,1.2-0.62,2.34-1.82,2.53C1524.42,382.04,1524.29,382.05,1524.18,382.05z"/>
	<path class="st2" d="M1515.01,368.59c-0.58,0-1.11-0.39-1.27-0.97c-0.19-0.7,0.22-1.43,0.93-1.63c0.44-0.12,10.83-2.92,16.82-0.43
		c0.67,0.28,0.99,1.05,0.71,1.73c-0.28,0.67-1.05,1-1.73,0.71c-5.16-2.15-15.01,0.51-15.11,0.54
		C1515.24,368.58,1515.12,368.59,1515.01,368.59z"/>
	<path class="st1" d="M1493.51,371.05c0,0-6.24-2.12-14.69,3.42L1493.51,371.05z"/>
	<path class="st2" d="M1478.82,375.8c-0.43,0-0.85-0.21-1.11-0.6c-0.4-0.61-0.23-1.43,0.38-1.83c8.88-5.83,15.56-3.66,15.84-3.57
		c0.69,0.24,1.06,0.99,0.83,1.68c-0.23,0.69-0.98,1.06-1.67,0.83c-0.24-0.08-5.81-1.8-13.54,3.27
		C1479.32,375.73,1479.07,375.8,1478.82,375.8z"/>
	<path class="st2" d="M1506.74,401.67c-0.02,0-0.04,0-0.07,0c-1.67-0.06-7.22-0.52-8.41-3.72c-0.89-2.4-0.75-3.09,0.93-11.49
		c0.36-1.81,0.8-3.99,1.33-6.65c0.18-0.92,1.08-1.51,1.98-1.33c0.92,0.18,1.51,1.07,1.33,1.98c-0.52,2.67-0.96,4.86-1.33,6.67
		c-1.64,8.15-1.61,8.23-1.08,9.65c0.22,0.59,2.75,1.41,5.38,1.52c0.93,0.04,1.66,0.82,1.62,1.75
		C1508.39,400.96,1507.64,401.67,1506.74,401.67z"/>
	<path class="st2" d="M1551.96,388.04c0,0-1.91,2.71-5.94,8.31c-4.65,6.47-57.01,12.55-60.97,11.34c-8.74-2.66-7.9-10.05-10.8-8.91
		c-3.6,1.41,6.95,37.4,11.73,41.89c4.77,4.48,42.72-0.31,62.21-7.98C1564.37,426.32,1551.96,388.04,1551.96,388.04z"/>
	<path class="st2" d="M1544.71,335.11c0,0-55.36,27.06-85.32,11.16c-29.96-15.89,11.79-24.07,37.44-25.92
		C1522.48,318.51,1558.71,317.43,1544.71,335.11z"/>
	<path class="st1" d="M1350.71,568.65c22.51,1.64,126.28-80.06,138.86-79.84c1.05,0.02,33.15,3.25,33.89,2.78
		c7.27-4.59,12.88-4.78,17.13-1.48c16.39-5.04,38.93-13.07,39.97-12.88c46.47,8.49,98.65,137.98,101.63,146.86
		c10.71,31.97-29.21,48.66-29.21,48.66c-0.36,3.6,12.52,94.41,12.52,94.41l-146.36,4.8l0,0l-97.88,4.37
		c0,0,11.07-158.04,7.96-203.89c-1.53-22.56-37.53,95.72-69.84,48.88C1319.47,563.46,1333.89,567.43,1350.71,568.65z"/>
	<path class="st2" d="M1419.6,777.94l0.12-1.72c0.11-1.58,11.02-158.46,7.96-203.68c-0.03-0.38-0.06-0.69-0.1-0.93
		c-1.77,1.98-5.22,8.34-8.32,14.04c-10.24,18.86-25.7,47.35-42.65,48.26c-6.68,0.35-12.9-3.59-18.51-11.72
		c-26.39-38.25-27.62-47.68-25.03-52.17c2.39-4.14,8.38-3.66,15.32-3.09c0.8,0.06,1.61,0.13,2.42,0.19l0,0
		c0.2,0.01,0.41,0.02,0.63,0.02c13.26,0,53.67-27.12,86.25-48.99c28.5-19.13,46.29-30.88,51.83-30.88c0.02,0,0.04,0,0.06,0
		c0.33,0.01,1.96,0.16,6.93,0.63c7.84,0.74,23.89,2.23,26.41,2.21c7.11-4.4,13.14-4.96,17.93-1.69c7.61-2.36,16.55-5.35,23.77-7.76
		c14.23-4.76,15.39-5.08,16.19-4.93c19.93,3.64,42.87,28.55,68.19,74.05c19.88,35.72,33.4,70.19,34.62,73.83
		c10.08,30.07-22.96,47.23-29.1,50.12c0.54,7.6,7.61,58.87,12.48,93.22l0.24,1.7l-148.07,4.86L1419.6,777.94z M1427.98,568
		c0.17,0,0.33,0.02,0.5,0.06c2,0.44,2.18,3.13,2.26,4.27c2.91,42.86-6.65,185.07-7.84,202.39l96.16-4.29l144.66-4.75
		c-2.1-14.86-12.64-89.58-12.29-93.09l0.09-0.91l0.84-0.35c1.58-0.66,38.47-16.52,28.34-46.75c-1.15-3.44-14.93-38.35-34.39-73.31
		c-24.42-43.87-47.18-68.92-65.86-72.48c-1.34,0.26-8.21,2.56-14.86,4.79c-7.48,2.5-16.78,5.61-24.58,8.01l-0.76,0.23l-0.63-0.49
		c-3.89-3.02-8.91-2.5-15.37,1.57c-0.71,0.45-0.97,0.61-28.04-1.93c-3.41-0.32-6.36-0.6-6.71-0.61c-0.01,0-0.02,0-0.04,0
		c-4.84,0-27.84,15.43-50.08,30.36c-35.24,23.66-75.22,50.47-88.81,49.48c-0.82-0.06-1.64-0.13-2.45-0.19
		c-5.65-0.46-10.99-0.89-12.41,1.57c-2.71,4.68,5.44,20.67,24.9,48.88c4.96,7.19,10.28,10.7,15.81,10.39
		c15.23-0.81,30.81-29.51,40.11-46.65C1423.04,572.26,1425.48,568,1427.98,568z M1580.59,478.76L1580.59,478.76L1580.59,478.76z"/>
	<path class="st4" d="M1523.45,490.29l-6.86,266.24L1523.45,490.29z"/>
	<path class="st2" d="M1516.59,757.98c-0.01,0-0.03,0-0.04,0c-0.8-0.02-1.43-0.68-1.41-1.48l6.86-266.24
		c0.02-0.8,0.7-1.44,1.48-1.41c0.8,0.02,1.43,0.68,1.41,1.48l-6.86,266.24C1518.01,757.35,1517.37,757.98,1516.59,757.98z"/>
	<polygon class="st4" points="1506.88,504.06 1523.57,491.52 1542.46,500.17 1530.62,516.85 1542.55,683.75 1520.32,734.93 
		1493.72,687.44 1517.72,516.74 	"/>
	<path class="st1" d="M1574.71,563.23c0,0,21.77,48.13,16.77,56.7c-5,8.56-107.73,17.81-107.73,17.81l5.59,42.67
		c0,0,99.85,10.25,154.68-8.97L1574.71,563.23z"/>
	<path class="st2" d="M1549.03,684.51c-32.95,0-59.32-2.63-59.84-2.69l-1.12-0.12l-5.93-45.26l1.48-0.13
		c0.26-0.02,25.96-2.35,51.94-5.69c48.17-6.19,54.04-10.31,54.69-11.42c3.37-5.78-8.54-37.04-16.84-55.39
		c-0.32-0.72-0.01-1.56,0.71-1.88c0.72-0.32,1.56-0.01,1.88,0.71c2.26,5,21.92,49.06,16.7,58c-0.95,1.63-3.48,5.96-56.79,12.81
		c-22.47,2.89-44.73,5.02-50.57,5.56l5.25,40.08c11.13,1.04,102.15,8.81,152.95-9c0.74-0.26,1.55,0.13,1.81,0.87
		c0.26,0.74-0.13,1.55-0.87,1.81C1617.88,682.12,1580.47,684.51,1549.03,684.51z"/>
	<polygon class="st1" points="1523.45,490.29 1555.35,506.87 1593.98,478.33 1573.08,470.04 	"/>
	<polygon class="st1" points="1523.45,490.29 1502.27,509.85 1472.14,497.39 1483.32,484.83 	"/>
	<path class="st2" d="M1597.05,477.93l-23.98-9.51l-49.88,20.36l-40.43-5.14L1468.21,499l32.64,12.61l22.7-19.57l31.94,16.59
		L1597.05,477.93z M1500.18,508.1l-26.56-10.26l10.42-11l35.57,4.52L1500.18,508.1z M1527.03,490.46l46.06-18.8l17.82,7.07
		l-35.7,26.37L1527.03,490.46z"/>
	<polygon class="st1" points="1496.71,543.12 1497.35,552.22 1463.75,554.64 1463.1,545.51 	"/>
	<path class="st2" d="M1462.35,556.24l-0.86-12.13l36.61-2.6l0.86,12.1L1462.35,556.24z M1464.71,546.91l0.43,6.12l30.61-2.2
		l-0.43-6.1L1464.71,546.91z"/>
	<polygon class="st7" points="1271.41,513.39 1306.31,654.68 1510.11,654.68 1468.85,513.39 	"/>
	<path class="st2" d="M1512.11,656.18h-206.97l-0.28-1.14l-35.36-143.14h200.48l0.31,1.08L1512.11,656.18z M1307.48,653.18h200.62
		l-40.38-138.28h-194.39L1307.48,653.18z"/>
	<rect x="1306.49" y="654.68" class="st3" width="264.7" height="13.35"/>
	<path class="st2" d="M1572.69,669.53h-267.7v-16.35h267.7V669.53z M1307.99,666.53h261.7v-10.35h-261.7V666.53z"/>
	<path class="st2" d="M1391.98,610.87c-9.21,0-17.23-8.61-18.2-19.85c-1.01-11.75,6.08-21.99,15.81-22.83
		c4.77-0.41,9.43,1.46,13.12,5.28c3.61,3.73,5.86,8.89,6.35,14.52l0,0c0.48,5.64-0.86,11.1-3.78,15.39
		c-2.99,4.38-7.26,7.02-12.03,7.43C1392.82,610.85,1392.4,610.87,1391.98,610.87z M1390.86,571.13c-0.34,0-0.68,0.01-1.02,0.04
		c-8.08,0.69-13.94,9.48-13.08,19.58c0.87,10.1,8.12,17.74,16.22,17.07c3.85-0.33,7.34-2.51,9.8-6.13c2.53-3.72,3.7-8.5,3.27-13.45
		l0,0c-0.42-4.95-2.38-9.46-5.51-12.69C1397.77,572.68,1394.36,571.13,1390.86,571.13z"/>
	<path class="st1" d="M1348.2,671.21c0,0-3.74-24.78-9.12-26.04c-5.38-1.25-3.65,22.04-4.18,22.15c-0.85,0.18-0.41-27.32-5.38-28.9
		c-4.97-1.58-4.35,25.49-4.83,25.43c-0.71-0.09,0.76-17.42-3.88-21.09c-4.64-3.67-2.64,18.8-3.56,18.44
		c-0.61-0.24,1.54-15.1-3.17-15.9c-2.93-0.49-6.35,16.93-6.35,16.93s-1.94,11.1,10.2,13.66
		C1321.11,676.58,1344.35,682.22,1348.2,671.21z"/>
	<path class="st2" d="M1333.65,679.34c-4.09,0-9.18-0.58-15.48-1.96l-0.53-0.11c-13.31-2.81-11.31-15.14-11.28-15.27
		c3.68-18.79,6.89-18.25,7.95-18.07c1.02,0.17,1.8,0.72,2.41,1.52c0.4-2.36,1.07-3.74,2.17-4.27c0.51-0.24,1.55-0.51,2.79,0.48
		c1.27,1.01,2.15,2.72,2.75,4.85c0.6-4.81,1.55-7.94,3.13-9.06c0.71-0.5,1.56-0.63,2.37-0.37c2.46,0.78,3.81,4.7,4.69,11.61
		c0.47-1.99,1.16-3.51,2.16-4.3c0.76-0.6,1.66-0.8,2.6-0.59c5.84,1.36,9.27,21.15,10.18,27.19l0.05,0.34l-0.11,0.33
		C1348.17,675.51,1344.19,679.34,1333.65,679.34z M1314.06,646.75c-1.25,1.16-3.47,8.18-4.96,15.76c-0.06,0.37-1.52,9.78,9.12,12.03
		l0.55,0.12c15.74,3.45,25.65,2.17,27.99-3.6c-1.75-11.38-5.28-23.9-8-24.53c-0.11-0.02-0.14-0.02-0.23,0.05
		c-2.14,1.7-2.12,13.47-2.11,17.34c0.01,4,0.01,4.51-1.23,4.77l-0.63,0.13l-0.54-0.4c-0.72-0.55-0.77-1.09-1.1-6.75
		c-0.81-13.9-2.08-21.27-3.78-21.91c-1,0.63-2.27,4.73-2.81,20.37c-0.14,4.21-0.15,4.29-0.72,4.78l-0.47,0.4l-0.62-0.07
		c-1.4-0.17-1.41-1.07-1.48-4.85c-0.08-4.26-0.27-14.2-3.04-16.5c-1.01,1.75-1.04,9.55-1.04,12.59c-0.01,4.6-0.02,5.3-0.86,5.87
		l-0.61,0.41l-0.74-0.26c-1.08-0.42-1.05-1.19-0.97-4.07C1315.99,651.25,1315.41,647.33,1314.06,646.75z"/>
	<path class="st1" d="M1499.72,414.76c-0.93,1.26,0.14,6.1,4.52,5.42c11.22-1.75,20.76-10.82,18.1-9.94
		c-1.04,0.35-8.08,2.75-12.81,3.78C1503.1,415.43,1500.77,413.34,1499.72,414.76z"/>
</g>
<g>
	<polygon class="st8" points="1662,1072.14 1703,1005.14 1775,1038.64 1766.9,1093.14 	"/>
	<path class="st2" d="M1768.15,1094.92l-108.55-21.73l42.82-69.97l74.23,34.54L1768.15,1094.92z M1664.4,1071.09l101.25,20.27
		l7.7-51.83l-69.77-32.46L1664.4,1071.09z"/>
	<polygon class="st8" points="1573.58,1073.23 1587.49,1031.3 1685.14,1061.65 1665.88,1099.6 	"/>
	<path class="st2" d="M1666.66,1101.38l-94.99-27.13l14.87-44.82l100.76,31.32L1666.66,1101.38z M1575.5,1072.22l89.61,25.6
		l17.9-35.26l-94.55-29.39L1575.5,1072.22z"/>
	<polygon class="st6" points="1561.18,1066.27 1783.9,1066.27 1757.23,1304.32 1586.52,1304.83 	"/>
</g>
<path class="st2" d="M1847.88,1305.89H82.98c-0.83,0-1.5-0.67-1.5-1.5c0-0.83,0.67-1.5,1.5-1.5h1764.9c0.83,0,1.5,0.67,1.5,1.5
	C1849.38,1305.22,1848.71,1305.89,1847.88,1305.89z"/>
</svg>
