<?xml version="1.0" encoding="utf-8"?>
<!-- Generator: Adobe Illustrator 23.0.2, SVG Export Plug-In . SVG Version: 6.00 Build 0)  -->
<svg version="1.1" xmlns="http://www.w3.org/2000/svg" xmlns:xlink="http://www.w3.org/1999/xlink" x="0px" y="0px"
	 viewBox="0 0 500 500" style="enable-background:new 0 0 500 500;" xml:space="preserve">
<style type="text/css">
	.st0{fill:#E0E0E0;}
	.st1{fill:#FAFAFA;}
	.st2{fill:#EBEBEB;}
	.st3{fill:#F5F5F5;}
	.st4{display:none;}
	.st5{display:inline;fill:#EBEBEB;}
	.st6{fill:#E8505B;}
	.st7{fill:#455A64;}
	.st8{fill:#263238;}
	.st9{fill:#B78876;}
	.st10{fill:#AA6550;}
	.st11{opacity:0.3;}
	.st12{opacity:0.2;}
</style>
<g id="Background_Complete">
	<g>
		<g>
			<g>
				<g>
					<g>
						<g>
							<g>
								<g>
									<g>
										<g>
											<rect x="52.9" y="56.1" class="st0" width="101.6" height="105.9"/>
										</g>
									</g>
								</g>
							</g>
						</g>
					</g>
				</g>
			</g>
		</g>
		<g>
			<g>
				<g>
					<g>
						<g>
							<g>
								<g>
									<g>
										<g>
											<rect x="46" y="56.1" class="st1" width="101.6" height="105.9"/>
										</g>
									</g>
								</g>
							</g>
						</g>
					</g>
				</g>
			</g>
			<g>
				<g>
					<g>
						<g>
							<g>
								<g>
									<g>
										<g>
											<path class="st0" d="M147.6,162H46V56.1h101.6V162z M46.1,162h101.5V56.2H46.1V162z"/>
										</g>
									</g>
								</g>
							</g>
						</g>
					</g>
				</g>
			</g>
		</g>
		<g>
			<g>
				<g>
					<g>
						<g>
							<g>
								<g>
									<g>
										<g>
											<rect x="59.7" y="70.4" class="st1" width="74.3" height="77.4"/>
										</g>
									</g>
								</g>
							</g>
						</g>
					</g>
				</g>
			</g>
		</g>
		<g>
			<g>
				<g>
					<g>
						<g>
							<g>
								<g>
									<g>
										<g>
											<g>
												<path class="st0" d="M59.7,148.3c0.1,0.1-0.6,0.9-1.8,2.1c-1.2,1.3-2.9,2.9-4.7,4.8c-1.9,1.8-3.6,3.5-4.9,4.6
													c-1.3,1.2-2.1,1.9-2.1,1.8c-0.1-0.1,0.6-0.9,1.8-2.1c1.2-1.3,2.9-2.9,4.7-4.8c1.9-1.8,3.6-3.5,4.9-4.7
													C58.8,148.9,59.6,148.2,59.7,148.3z"/>
											</g>
										</g>
									</g>
								</g>
							</g>
						</g>
					</g>
				</g>
			</g>
		</g>
		<g>
			<g>
				<g>
					<g>
						<g>
							<g>
								<g>
									<g>
										<g>
											<g>
												<path class="st0" d="M133.9,148.1c0.1-0.1,0.9,0.6,2.1,1.8c1.3,1.2,2.9,2.9,4.8,4.7c1.8,1.9,3.5,3.6,4.6,4.9
													c1.2,1.3,1.9,2.1,1.8,2.1c-0.1,0.1-0.9-0.6-2.1-1.8c-1.3-1.2-2.9-2.9-4.8-4.7c-1.8-1.9-3.5-3.6-4.7-4.9
													C134.5,149,133.9,148.2,133.9,148.1z"/>
											</g>
										</g>
									</g>
								</g>
							</g>
						</g>
					</g>
				</g>
			</g>
		</g>
		<g>
			<g>
				<g>
					<g>
						<g>
							<g>
								<g>
									<g>
										<g>
											<g>
												<path class="st0" d="M133.7,70.6c-0.1-0.1,0.6-0.9,1.8-2.1c1.2-1.3,2.9-2.9,4.7-4.8c1.9-1.8,3.6-3.5,4.9-4.6
													c1.3-1.2,2.1-1.9,2.1-1.8c0.1,0.1-0.6,0.9-1.8,2.1c-1.2,1.3-2.9,2.9-4.7,4.8c-1.9,1.8-3.6,3.5-4.9,4.7
													C134.6,70,133.8,70.6,133.7,70.6z"/>
											</g>
										</g>
									</g>
								</g>
							</g>
						</g>
					</g>
				</g>
			</g>
		</g>
		<g>
			<g>
				<g>
					<g>
						<g>
							<g>
								<g>
									<g>
										<g>
											<g>
												<path class="st0" d="M59.5,70.8c-0.1,0.1-0.9-0.6-2.1-1.8c-1.3-1.2-2.9-2.9-4.8-4.7c-1.8-1.9-3.5-3.6-4.6-4.9
													c-1.2-1.3-1.9-2.1-1.8-2.1c0.1-0.1,0.9,0.6,2.1,1.8c1.3,1.2,2.9,2.9,4.8,4.7c1.8,1.9,3.5,3.6,4.7,4.9
													C58.9,69.9,59.5,70.7,59.5,70.8z"/>
											</g>
										</g>
									</g>
								</g>
							</g>
						</g>
					</g>
				</g>
			</g>
		</g>
		<g>
			<g>
				<g>
					<g>
						<g>
							<g>
								<g>
									<g>
										<g>
											<g>
												<path class="st0" d="M133.7,147.8c0,0,0-0.1,0-0.4c0-0.3,0-0.6,0-1.1c0-1,0-2.4,0-4.2c0-3.7,0-9-0.1-15.8
													c0-13.6-0.1-32.9-0.1-56l0.3,0.3c-21.6,0-47,0-74,0h0l0.3-0.3c0,28.4,0,55,0,77.4l-0.3-0.3c22.2,0.1,40.7,0.1,53.6,0.1
													c6.5,0,11.6,0.1,15.1,0.1c1.7,0,3.1,0,4,0c0.4,0,0.8,0,1,0C133.6,147.8,133.7,147.8,133.7,147.8c0,0-0.1,0-0.3,0
													c-0.2,0-0.6,0-1,0c-0.9,0-2.2,0-3.9,0c-3.5,0-8.6,0-15,0.1c-13,0-31.5,0.1-53.8,0.1l-0.3,0l0-0.3c0-22.4,0-49,0-77.4
													l0-0.3h0.3h0c27,0,52.4,0,74,0h0.3l0,0.3c-0.1,23.2-0.1,42.6-0.1,56.2c0,6.7-0.1,12.1-0.1,15.7c0,1.8,0,3.2,0,4.1
													c0,0.4,0,0.8,0,1C133.7,147.7,133.7,147.8,133.7,147.8z"/>
											</g>
										</g>
									</g>
								</g>
							</g>
						</g>
					</g>
				</g>
			</g>
		</g>
		<g>
			<g>
				<g>
					<g>
						<g>
							<g>
								<g>
									<g>
										<g>
											<rect x="84.4" y="96.7" class="st2" width="24.8" height="24.8"/>
										</g>
									</g>
								</g>
							</g>
						</g>
					</g>
				</g>
			</g>
		</g>
	</g>
	<g>
		<g>
			<g>
				<g>
					<g>
						<g>
							<g>
								
									<rect x="390.1" y="58.1" transform="matrix(1 -5.349424e-03 5.349424e-03 1 -0.4357 2.114)" class="st0" width="9.8" height="48.8"/>
							</g>
						</g>
					</g>
				</g>
			</g>
		</g>
		<g>
			<g>
				<g>
					<g>
						<g>
							<g>
								<g>
									
										<rect x="305" y="58.2" transform="matrix(1 -5.347244e-03 5.347244e-03 1 -0.379 1.6997)" class="st2" width="25.4" height="27"/>
								</g>
							</g>
						</g>
					</g>
				</g>
			</g>
			<g>
				<g>
					<g>
						<g>
							<g>
								<g>
									
										<rect x="330.3" y="58.1" transform="matrix(1 -5.355092e-03 5.355092e-03 1 -0.3785 1.8377)" class="st3" width="25.4" height="27"/>
								</g>
							</g>
						</g>
					</g>
				</g>
			</g>
			<g>
				<g>
					<g>
						<g>
							<g>
								<g>
									<g>
										<path class="st0" d="M304.9,65.8c16.9,0.1,33.8,0,50.7-0.2c0.3,0,0.3-0.5,0-0.5c-16.9-0.1-33.8,0-50.7,0.3
											C304.6,65.3,304.6,65.8,304.9,65.8L304.9,65.8z"/>
									</g>
								</g>
							</g>
						</g>
					</g>
				</g>
			</g>
		</g>
		<g>
			<g>
				<g>
					<g>
						<g>
							<g>
								<g>
									
										<rect x="289.1" y="84.8" transform="matrix(1 -5.357894e-03 5.357894e-03 1 -0.5088 1.6741)" class="st2" width="46.2" height="22"/>
								</g>
							</g>
						</g>
					</g>
				</g>
			</g>
			<g>
				<g>
					<g>
						<g>
							<g>
								<g>
									
										<rect x="335.1" y="84.6" transform="matrix(1 -5.355717e-03 5.355717e-03 1 -0.5066 1.9196)" class="st3" width="46.2" height="22"/>
								</g>
							</g>
						</g>
					</g>
				</g>
			</g>
			<g>
				<g>
					<g>
						<g>
							<g>
								<g>
									<g>
										<path class="st0" d="M289.1,91c30.7,0.3,61.5,0,92.1-0.5c0.3,0,0.3-0.5,0-0.5c-30.7-0.2-61.5-0.1-92.1,0.5
											C288.8,90.6,288.8,91,289.1,91L289.1,91z"/>
									</g>
								</g>
							</g>
						</g>
					</g>
				</g>
			</g>
		</g>
		<g>
			<g>
				<g>
					<g>
						<g>
							<g>
								<rect x="271.8" y="106.9" class="st0" width="178.9" height="7.9"/>
							</g>
						</g>
					</g>
				</g>
			</g>
			<g>
				<g>
					<g>
						<g>
							<g>
								<rect x="301.1" y="110.7" class="st0" width="7.3" height="15.8"/>
							</g>
						</g>
					</g>
				</g>
			</g>
			<g>
				<g>
					<g>
						<g>
							<g>
								<rect x="409.5" y="110.7" class="st0" width="7.3" height="15.8"/>
							</g>
						</g>
					</g>
				</g>
			</g>
		</g>
		<g>
			<g>
				<g>
					<g>
						<g>
							<g>
								
									<rect x="399.7" y="39.9" transform="matrix(1 -5.359504e-03 5.359504e-03 1 -0.3879 2.1694)" class="st2" width="9.8" height="67.2"/>
							</g>
						</g>
					</g>
				</g>
			</g>
		</g>
		<g>
			<g>
				<g>
					<g>
						<g>
							<g>
								<g>
									
										<rect x="409.5" y="52.4" transform="matrix(1 -5.370590e-03 5.370590e-03 1 -0.4215 2.2416)" class="st3" width="15.2" height="54.4"/>
								</g>
							</g>
						</g>
					</g>
				</g>
			</g>
			<g>
				<g>
					<g>
						<g>
							<g>
								<g>
									<path class="st0" d="M424.5,62.8c0,0.1-3.4,0.3-7.6,0.3c-4.2,0-7.6-0.1-7.6-0.3s3.4-0.3,7.6-0.3
										C421.1,62.6,424.5,62.7,424.5,62.8z"/>
								</g>
							</g>
						</g>
					</g>
				</g>
			</g>
			<g>
				<g>
					<g>
						<g>
							<g>
								<g>
									<path class="st0" d="M424.5,60.5c0,0.1-3.4,0.3-7.6,0.3c-4.2,0-7.6-0.1-7.6-0.3c0-0.1,3.4-0.3,7.6-0.3
										C421.1,60.3,424.5,60.4,424.5,60.5z"/>
								</g>
							</g>
						</g>
					</g>
				</g>
			</g>
			<g>
				<g>
					<g>
						<g>
							<g>
								<g>
									<path class="st0" d="M424.5,98.6c0,0.1-3.4,0.3-7.6,0.3c-4.2,0-7.6-0.1-7.6-0.3s3.4-0.3,7.6-0.3
										C421.1,98.3,424.5,98.4,424.5,98.6z"/>
								</g>
							</g>
						</g>
					</g>
				</g>
			</g>
			<g>
				<g>
					<g>
						<g>
							<g>
								<g>
									<path class="st0" d="M424.5,96.3c0,0.1-3.4,0.3-7.6,0.3c-4.2,0-7.6-0.1-7.6-0.3c0-0.1,3.4-0.3,7.6-0.3
										C421.1,96,424.5,96.2,424.5,96.3z"/>
								</g>
							</g>
						</g>
					</g>
				</g>
			</g>
			<g>
				<g>
					<g>
						<g>
							<g>
								<g>
									<path class="st0" d="M417.2,91.3c-0.1,0-0.3-5.5-0.3-12.3c0-6.8,0.1-12.3,0.3-12.3c0.1,0,0.3,5.5,0.3,12.3
										C417.4,85.8,417.3,91.3,417.2,91.3z"/>
								</g>
							</g>
						</g>
					</g>
				</g>
			</g>
		</g>
		<g>
			<g>
				<g>
					<g>
						<g>
							<g>
								<rect x="424.7" y="65.7" class="st2" width="16.6" height="41.1"/>
							</g>
						</g>
					</g>
				</g>
			</g>
		</g>
		<g>
			<g>
				<g>
					<g>
						<g>
							<path class="st0" d="M407.1,51.3c0,1.6-1.3,2.8-2.8,2.8c-1.6,0-2.8-1.3-2.8-2.8c0-1.6,1.3-2.8,2.8-2.8
								C405.8,48.5,407.1,49.8,407.1,51.3z"/>
						</g>
					</g>
				</g>
			</g>
		</g>
		<g>
			<g>
				<g>
					<g>
						<g>
							<rect x="403.4" y="59.1" class="st0" width="1.7" height="40"/>
						</g>
					</g>
				</g>
			</g>
		</g>
	</g>
</g>
<g id="Background_Simple" class="st4">
	<path class="st5" d="M422.8,114.6l-2.2-3.6c-18.6-30.3-52.3-48.6-87.8-46.4c-4.6,0.3-9.1,0.9-13.6,1.8c-32.3,6.8-60.4,30.9-72,61.8
		c-6.8,18.2-8.8,39.1-21.8,53.5c-16.9,18.8-45.6,19.4-70.9,18.6c-25.3-0.8-54-0.1-70.8,18.7c-10.5,11.8-13.9,28.6-13,44.4
		c2.3,41.8,31.8,79.2,69.3,97.8c37.5,18.6,81.7,20.3,122.8,12.1c57.6-11.5,112.3-42.9,145.2-91.5C440.8,233.2,449.2,167,422.8,114.6
		z"/>
</g>
<g id="Gears">
	<g>
		<g>
			<g>
				<g>
					<g>
						<path class="st6" d="M402.1,151.9c2-1.8,4.3-3.3,6.7-4.4l0.2-7.4l12-2.4l3,6.8c2.6,0.2,5.3,0.7,7.8,1.6l5.4-5.1l10.2,6.8
							l-2.7,6.9c1.8,2,3.3,4.3,4.4,6.7l7.4,0.2l2.4,12l-6.8,3c-0.2,2.6-0.7,5.3-1.6,7.8l5.1,5.4l-6.8,10.2l-6.9-2.7
							c-2,1.8-4.3,3.3-6.7,4.4l-0.2,7.4l-12,2.4l-3-6.8c-2.6-0.2-5.3-0.7-7.8-1.6l-5.4,5.1l-10.2-6.8l2.7-6.9
							c-1.8-2-3.3-4.3-4.4-6.7l-7.4-0.2l-2.4-12l6.8-3c0.2-2.6,0.7-5.3,1.6-7.8l-5.1-5.4l6.8-10.2L402.1,151.9L402.1,151.9z
							 M411.4,166.8c-4,6-2.4,14.2,3.6,18.2c6,4,14.2,2.4,18.2-3.6c4-6,2.4-14.2-3.6-18.2C423.7,159.2,415.5,160.8,411.4,166.8z"/>
					</g>
				</g>
			</g>
		</g>
		<g>
			<g>
				<g>
					<g>
						<path class="st7" d="M346.9,147.1c1.1-0.7,2.4-1.2,3.6-1.6l0.7-3.6l6.1-0.1l0.9,3.6c1.3,0.3,2.5,0.8,3.7,1.4l3.1-2l4.4,4.2
							l-1.9,3.1c0.7,1.1,1.2,2.4,1.6,3.6l3.6,0.7l0.1,6.1l-3.6,0.9c-0.3,1.3-0.8,2.5-1.4,3.7l2,3.1l-4.2,4.4l-3.1-1.9
							c-1.1,0.7-2.4,1.2-3.6,1.6l-0.7,3.6l-6.1,0.1l-0.9-3.6c-1.3-0.3-2.5-0.8-3.7-1.4l-3.1,2l-4.4-4.2l1.9-3.1
							c-0.7-1.1-1.2-2.4-1.6-3.6l-3.6-0.7l-0.1-6.1l3.6-0.9c0.3-1.3,0.8-2.5,1.4-3.7l-2-3.1l4.2-4.4L346.9,147.1L346.9,147.1z
							 M350.1,155.2c-2.5,2.6-2.4,6.7,0.2,9.2c2.6,2.5,6.7,2.4,9.2-0.2c2.5-2.6,2.4-6.7-0.2-9.2
							C356.7,152.5,352.6,152.6,350.1,155.2z"/>
					</g>
				</g>
			</g>
			<g>
				<g>
					<g>
						<g>
							<path class="st7" d="M350.1,155.2c0,0,0.3-0.5,1.2-1.1c0.9-0.6,2.3-1.2,4.2-1c0.9,0.1,1.9,0.4,2.9,1c0.9,0.6,1.8,1.5,2.3,2.6
								c0.3,0.6,0.5,1.2,0.6,1.8c0.1,0.6,0.1,1.3,0,2c-0.2,1.4-0.8,2.7-1.8,3.7c-1,1-2.3,1.7-3.7,1.9c-0.7,0.1-1.3,0.1-2,0
								c-0.6-0.1-1.3-0.3-1.8-0.5c-1.2-0.5-2.1-1.3-2.7-2.2c-0.6-0.9-1-1.9-1.1-2.8c-0.3-1.9,0.3-3.4,0.9-4.3
								C349.6,155.5,350.1,155.2,350.1,155.2c0,0-0.4,0.4-0.9,1.3c-0.5,0.9-1,2.4-0.7,4.2c0.1,0.9,0.5,1.8,1.1,2.7
								c0.6,0.8,1.5,1.6,2.6,2.1c0.5,0.2,1.1,0.4,1.7,0.5c0.6,0.1,1.3,0.1,1.9,0c1.3-0.2,2.5-0.9,3.5-1.8c0.9-1,1.5-2.3,1.7-3.5
								c0.1-0.6,0.1-1.3,0-1.9c-0.1-0.6-0.3-1.2-0.5-1.7c-0.5-1.1-1.3-1.9-2.2-2.5c-0.9-0.6-1.8-0.9-2.7-1c-1.8-0.2-3.3,0.3-4.1,0.9
								C350.5,154.8,350.1,155.2,350.1,155.2z"/>
						</g>
					</g>
				</g>
			</g>
			<g>
				<g>
					<g>
						<g>
							<path class="st7" d="M346.9,147.1c0,0-0.1,0-0.2-0.1c-0.1-0.1-0.3-0.2-0.6-0.3c-0.5-0.3-1.3-0.8-2.4-1.4l0.1,0
								c-1.1,1.1-2.5,2.6-4.2,4.4l0-0.1c0.6,0.9,1.3,2,2,3l0,0.1l0,0.1c-0.6,1.1-1.1,2.3-1.4,3.6l0,0.1l-0.1,0
								c-1.1,0.3-2.3,0.6-3.5,0.9l0.1-0.1c0,1.9,0.1,3.9,0.1,6l-0.1-0.1c1.1,0.2,2.3,0.5,3.6,0.7l0.1,0l0,0.1
								c0.3,1.2,0.9,2.4,1.6,3.6l0.1,0.1l-0.1,0.1c-0.6,1-1.2,2-1.9,3.1l0-0.2c1.4,1.3,2.8,2.7,4.4,4.2l-0.2,0c1-0.6,2-1.3,3.1-2
								l0.1-0.1l0.1,0.1c1.1,0.6,2.3,1.1,3.6,1.4l0.1,0l0,0.1c0.3,1.1,0.6,2.3,0.9,3.6l-0.2-0.1c1.9,0,4-0.1,6.1-0.1l-0.2,0.1
								c0.2-1.1,0.5-2.4,0.7-3.6l0-0.1l0.1,0c1.2-0.3,2.4-0.9,3.6-1.6l0,0l0.1-0.1l0.1,0.1c1,0.6,2.1,1.3,3.1,1.9l-0.2,0
								c1.4-1.5,2.8-2.9,4.2-4.4l0,0.2c-0.7-1-1.3-2-2-3.1l-0.1-0.1l0.1-0.1c0.6-1.2,1.1-2.4,1.4-3.6l0-0.1l0.1,0
								c1.2-0.3,2.4-0.6,3.6-0.9l-0.1,0.2c0-2.1-0.1-4.1-0.1-6.1l0.1,0.2c-1.2-0.3-2.4-0.5-3.6-0.7l-0.1,0l0-0.1
								c-0.4-1.3-0.9-2.5-1.5-3.6l-0.1-0.1l0.1-0.1c0.7-1.1,1.3-2.1,1.9-3.1l0,0.2c-1.5-1.5-3-2.9-4.3-4.2l0.2,0
								c-1.1,0.7-2.1,1.4-3.1,2l-0.1,0l-0.1,0c-1.2-0.7-2.4-1.1-3.6-1.4l-0.1,0l0-0.1c-0.3-1.3-0.6-2.5-0.9-3.6l0.1,0.1
								c-2.3,0-4.3,0.1-6.1,0.1l0.1-0.1c-0.3,1.4-0.6,2.6-0.8,3.6l0,0l0,0c-1.3,0.4-2.2,0.8-2.8,1.1c-0.3,0.1-0.5,0.3-0.7,0.3
								C346.9,147.1,346.9,147.1,346.9,147.1c0,0,0.1-0.1,0.2-0.1c0.1-0.1,0.3-0.2,0.6-0.4c0.6-0.3,1.5-0.7,2.8-1.1l0,0
								c0.2-1,0.4-2.2,0.7-3.6l0-0.1l0.1,0c1.7,0,3.7-0.1,6-0.1l0.1,0l0,0.1c0.3,1.1,0.6,2.3,0.9,3.5l-0.1-0.1
								c1.2,0.3,2.5,0.8,3.7,1.4l-0.1,0c1-0.6,2-1.3,3.1-2l0.1-0.1l0.1,0.1c1.4,1.3,2.8,2.7,4.4,4.2l0.1,0.1l-0.1,0.1
								c-0.6,1-1.2,2.1-1.9,3.1l0-0.2c0.7,1.1,1.2,2.3,1.6,3.7l-0.1-0.1c1.2,0.2,2.4,0.5,3.6,0.7l0.1,0l0,0.1c0,2,0.1,4,0.1,6l0,0.1
								l-0.1,0c-1.2,0.3-2.4,0.6-3.6,0.9l0.1-0.1c-0.3,1.3-0.8,2.5-1.5,3.7l0-0.2c0.7,1,1.3,2,2,3.1l0.1,0.1l-0.1,0.1
								c-1.4,1.4-2.8,2.9-4.2,4.4l-0.1,0.1l-0.1-0.1c-1-0.6-2.1-1.3-3.1-1.9l0.2,0l0,0c-1.2,0.7-2.4,1.2-3.7,1.6l0.1-0.1
								c-0.3,1.2-0.5,2.4-0.7,3.6l0,0.1l-0.1,0c-2.1,0-4.1,0.1-6.1,0.1l-0.1,0l0-0.1c-0.3-1.2-0.6-2.4-0.9-3.6l0.1,0.1
								c-1.3-0.3-2.6-0.9-3.7-1.5l0.2,0c-1.1,0.7-2.1,1.4-3.1,2l-0.1,0.1l-0.1-0.1c-1.5-1.5-3-2.9-4.3-4.2l-0.1-0.1l0.1-0.1
								c0.7-1.1,1.3-2.2,1.9-3.1l0,0.2c-0.7-1.2-1.2-2.5-1.6-3.7l0.1,0.1c-1.3-0.3-2.5-0.5-3.6-0.8l-0.1,0l0-0.1
								c0-2.1-0.1-4.1-0.1-6.1l0-0.1l0.1,0c1.2-0.3,2.4-0.6,3.6-0.9l-0.1,0.1c0.3-1.4,0.9-2.6,1.5-3.7l0,0.1c-0.7-1.1-1.4-2.1-2-3.1
								l0-0.1l0.1-0.1c1.7-1.8,3.1-3.2,4.2-4.3l0,0l0,0c1,0.6,1.8,1.1,2.3,1.4c0.3,0.2,0.4,0.3,0.6,0.4
								C346.8,147.1,346.9,147.1,346.9,147.1z"/>
						</g>
					</g>
				</g>
			</g>
		</g>
		<g>
			<g>
				<g>
					<g>
						<path class="st0" d="M367.9,328.1L367.9,328.1l-20.7-3.2l0,0l-0.9-12.6c-4.2-1.8-8.1-4.2-11.6-7l-11.6,5l0,0l-12.4-16.8l0,0
							l8.3-9.5c-1.7-4.2-2.7-8.7-3.2-13.2l-11.7-4.6l0,0l3.2-20.6l0,0l12.6-0.9c1.8-4.2,4.2-8.1,7-11.6l-5-11.6l0,0l16.8-12.4l0,0
							l9.5,8.3c4.2-1.7,8.7-2.7,13.2-3.2l4.6-11.7l0,0l20.6,3.2l0,0l0.9,12.6c4.2,1.8,8.1,4.2,11.6,7l11.6-5l0,0l12.4,16.8l0,0
							l-8.3,9.5c1.7,4.2,2.7,8.7,3.2,13.2l11.7,4.6l0,0l-3.2,20.6l0,0l-12.6,0.9c-1.8,4.2-4.2,8.1-7,11.6l5,11.6l0,0l-16.8,12.4l0,0
							l-9.5-8.3c-4.2,1.7-8.7,2.7-13.2,3.2L367.9,328.1z M347.3,324.9l20.6,3.2l4.6-11.7l0,0c4.5-0.5,9-1.6,13.2-3.2l0,0l0,0
							l9.5,8.3L412,309l-5-11.6l0,0c2.9-3.5,5.2-7.4,7-11.6l0,0l0,0l12.6-0.9l3.2-20.6l-11.7-4.6l0,0c-0.5-4.5-1.6-9-3.2-13.2l0,0
							l0,0l8.2-9.5l-12.3-16.8l-11.6,5l0,0c-3.5-2.9-7.4-5.2-11.6-7l0,0l0,0l-0.9-12.6l-20.6-3.2l-4.6,11.7l0,0
							c-4.5,0.5-9,1.6-13.2,3.2l0,0l0,0l-9.5-8.3l-16.8,12.3l5,11.6l0,0c-2.9,3.5-5.2,7.5-7,11.6l0,0l0,0l-12.6,0.9l-3.2,20.6
							l11.7,4.6l0,0c0.5,4.5,1.6,9,3.2,13.2l0,0l0,0l-8.3,9.5l12.3,16.8l11.6-5l0,0c3.5,2.9,7.5,5.2,11.6,7l0,0l0,0L347.3,324.9z
							 M367.7,287.1c-1.1,0-2.3-0.1-3.4-0.3c-2.9-0.4-5.6-1.4-8.1-2.9c-2.6-1.5-4.8-3.6-6.6-6c-1.8-2.4-3-5.2-3.7-8.1
							c-0.7-2.8-0.8-5.7-0.3-8.6c0.4-2.9,1.4-5.6,2.9-8.1c1.5-2.6,3.6-4.8,6-6.6c2.4-1.8,5.2-3,8.1-3.7c2.8-0.7,5.7-0.8,8.6-0.3
							c2.9,0.4,5.6,1.4,8.1,2.9c2.6,1.5,4.8,3.6,6.6,6c1.8,2.4,3,5.2,3.7,8.1c0.7,2.8,0.8,5.7,0.3,8.6c-0.4,2.9-1.4,5.6-2.9,8.1
							c-1.5,2.6-3.6,4.8-6,6.6c-2.4,1.8-5.2,3-8.1,3.7C371.2,286.9,369.5,287.1,367.7,287.1z M354.5,246.6L354.5,246.6
							c-2.4,1.8-4.4,4-6,6.6c-1.5,2.5-2.5,5.2-2.9,8.1c-0.4,2.9-0.3,5.8,0.3,8.6c0.7,2.9,1.9,5.6,3.7,8.1c1.8,2.4,4,4.4,6.6,6
							c2.5,1.5,5.2,2.5,8.1,2.9c2.9,0.4,5.8,0.3,8.6-0.3c2.9-0.7,5.6-1.9,8.1-3.7c2.4-1.8,4.4-4,6-6.6c1.5-2.5,2.5-5.2,2.9-8.1
							c0.4-2.9,0.3-5.8-0.3-8.6c-0.7-2.9-1.9-5.6-3.7-8.1c-1.8-2.4-4-4.4-6.6-6c-2.5-1.5-5.2-2.5-8.1-2.9c-2.9-0.4-5.8-0.3-8.6,0.3
							C359.6,243.6,356.9,244.9,354.5,246.6L354.5,246.6z"/>
					</g>
				</g>
			</g>
			<g>
				<g>
					<g>
						<g>
							<path class="st8" d="M354.5,246.6c0,0,1.4-1.4,4.7-2.9c3.2-1.4,8.7-2.7,15-0.9c3.1,0.9,6.4,2.5,9.2,5.2
								c2.8,2.6,5.2,6.1,6.4,10.3c0.6,2.1,1,4.3,0.9,6.5c0,2.3-0.3,4.6-1,6.8c-1.3,4.5-4.3,8.7-8.3,11.7c-4,2.9-8.9,4.5-13.6,4.4
								c-2.4,0-4.7-0.4-6.8-1.1c-2.2-0.7-4.2-1.6-6-2.9c-3.6-2.4-6.2-5.7-7.9-9.2c-1.7-3.5-2.2-7.1-2.2-10.3c0.2-6.6,3-11.4,5.4-14
								C352.7,247.6,354.5,246.6,354.5,246.6c0.1,0.1-1.6,1.2-3.8,4c-2.2,2.7-4.8,7.4-4.9,13.7c0,3.1,0.6,6.6,2.2,9.8
								c1.6,3.2,4.1,6.4,7.6,8.6c1.7,1.2,3.6,2.1,5.7,2.7c2,0.6,4.2,1,6.4,1c4.5,0,9-1.4,12.9-4.2c3.8-2.8,6.6-6.7,7.9-11
								c0.7-2.1,1-4.3,1-6.4c0-2.1-0.3-4.2-0.9-6.2c-1.1-4-3.4-7.3-6-9.8c-2.6-2.5-5.7-4.1-8.7-5.1c-6-1.8-11.3-0.7-14.5,0.5
								C356.1,245.5,354.6,246.8,354.5,246.6z"/>
						</g>
					</g>
				</g>
			</g>
			<g>
				<g>
					<g>
						<g>
							<path class="st8" d="M348.2,217.4c0,0-0.2-0.1-0.6-0.5c-0.5-0.4-1.1-0.9-1.8-1.5c-1.7-1.4-4.1-3.5-7.2-6.1l0.3,0
								c-4.3,3.2-9.9,7.4-16.7,12.4l0.1-0.4c1.5,3.5,3.2,7.4,5.1,11.5l0.1,0.2l-0.1,0.2c-2.6,3.3-5.1,7.2-7,11.6l-0.1,0.2l-0.3,0
								c-3.9,0.3-8.2,0.6-12.6,0.9l0.4-0.4c-1,6.5-2,13.4-3.1,20.6l-0.3-0.5c3.6,1.4,7.6,3,11.7,4.6l0.3,0.1l0,0.3
								c0.4,4.2,1.5,8.7,3.2,13.1l0.1,0.3l-0.2,0.3c-2.6,3-5.4,6.2-8.2,9.5l0-0.7c3.9,5.3,8.1,11,12.4,16.8l-0.7-0.2
								c3.6-1.6,7.6-3.3,11.6-5l0.3-0.1l0.3,0.2c3.3,2.6,7.2,5.1,11.5,7l0.3,0.1l0,0.4c0.3,3.9,0.6,8.2,0.9,12.6l-0.5-0.6
								c6.5,1,13.5,2.1,20.6,3.2l-0.7,0.4c1.5-3.7,3-7.7,4.6-11.7l0.1-0.4l0.4,0c4.2-0.5,8.7-1.5,13-3.2l0,0l0.4-0.1l0.3,0.3
								c3.2,2.8,6.4,5.5,9.5,8.3l-0.8,0c5.7-4.2,11.3-8.3,16.8-12.3l-0.2,0.8c-1.7-3.9-3.4-7.7-5-11.6l-0.2-0.4l0.2-0.3
								c2.9-3.5,5.2-7.4,7-11.5l0.2-0.3l0.4,0c4.3-0.3,8.4-0.6,12.6-0.9l-0.6,0.5c1.1-7,2.2-13.9,3.2-20.6l0.4,0.6
								c-4-1.6-7.9-3.1-11.7-4.6l-0.3-0.1l0-0.3c-0.5-4.6-1.6-9-3.2-13.1l-0.1-0.3l0.2-0.3c2.8-3.3,5.6-6.4,8.3-9.5l0,0.7
								c-4.3-5.9-8.4-11.5-12.3-16.8l0.6,0.2c-4.1,1.8-7.9,3.4-11.6,5l-0.3,0.1l-0.2-0.2c-3.7-3-7.6-5.3-11.5-7l-0.2-0.1l0-0.3
								c-0.3-4.6-0.6-8.7-0.8-12.6l0.3,0.3c-8-1.3-14.8-2.3-20.6-3.3l0.3-0.2c-1.9,4.7-3.4,8.5-4.7,11.7l0,0.1l-0.1,0
								c-4.6,0.5-7.9,1.4-10,2c-1,0.3-1.8,0.6-2.4,0.8C348.5,217.3,348.2,217.4,348.2,217.4c0,0,0.3-0.1,0.8-0.3
								c0.5-0.2,1.3-0.5,2.4-0.9c2.1-0.7,5.5-1.7,10-2.2l-0.2,0.1c1.2-3.2,2.7-7.1,4.5-11.8l0.1-0.2l0.2,0
								c5.8,0.9,12.6,1.9,20.6,3.1l0.3,0l0,0.3c0.3,3.9,0.6,8,0.9,12.6l-0.3-0.4c4,1.7,7.9,4,11.8,7.1l-0.5-0.1
								c3.7-1.6,7.5-3.3,11.5-5.1l0.4-0.2l0.2,0.3c3.9,5.3,8,10.9,12.4,16.8l0.3,0.3l-0.3,0.3c-2.7,3.1-5.4,6.3-8.2,9.5l0.1-0.6
								c1.6,4.2,2.8,8.7,3.3,13.4l-0.4-0.5c3.8,1.5,7.8,3,11.7,4.6l0.4,0.2l-0.1,0.5c-1,6.7-2.1,13.6-3.1,20.6l-0.1,0.5l-0.5,0
								c-4.1,0.3-8.3,0.6-12.6,0.9l0.5-0.4c-1.8,4.2-4.2,8.1-7.1,11.8l0.1-0.6c1.7,3.8,3.3,7.7,5,11.6l0.2,0.5l-0.4,0.3
								c-5.5,4.1-11.1,8.2-16.8,12.3l-0.4,0.3l-0.4-0.3c-3.1-2.7-6.3-5.5-9.5-8.3l0.7,0.1l0,0c-4.4,1.7-9,2.8-13.4,3.3l0.5-0.4
								c-1.6,4-3.2,8-4.6,11.7l-0.2,0.5l-0.5-0.1c-7.1-1.1-14.1-2.2-20.6-3.2l-0.5-0.1l0-0.5c-0.3-4.3-0.6-8.6-0.9-12.6l0.4,0.5
								c-4.4-1.9-8.4-4.4-11.8-7.1l0.6,0.1c-4,1.7-8,3.5-11.6,5L323,311l-0.3-0.4c-4.3-5.8-8.5-11.5-12.3-16.8l-0.3-0.4l0.3-0.3
								c2.9-3.3,5.7-6.6,8.3-9.5l-0.1,0.6c-1.8-4.5-2.8-9.1-3.2-13.4l0.3,0.4c-4.1-1.6-8.1-3.2-11.7-4.6l-0.4-0.1l0.1-0.4
								c1.1-7.2,2.2-14.1,3.2-20.6l0.1-0.4l0.4,0c4.4-0.3,8.7-0.6,12.6-0.9l-0.4,0.3c2-4.4,4.4-8.4,7.1-11.7l-0.1,0.4
								c-1.8-4.2-3.5-8.1-5-11.6l-0.1-0.2l0.2-0.2c6.9-5,12.6-9.1,16.9-12.2l0.1-0.1l0.1,0.1c3,2.7,5.4,4.8,7,6.2
								c0.8,0.7,1.4,1.2,1.8,1.6C348,217.1,348.2,217.3,348.2,217.4z"/>
						</g>
					</g>
				</g>
			</g>
		</g>
	</g>
</g>
<g id="Plants">
	<g>
		<g>
			<path class="st6" d="M449.6,366.4c1.4-6.6,1.9-13.6,1.8-20.3c-0.1-6.8-1.6-13.6-5.2-19.4c-3.9,6.2-5.8,13.6-5.1,20.9
				c0.7,7.3,3.2,13.6,8.2,19"/>
		</g>
		<g>
			<path class="st6" d="M440.9,384.5c0.1-7.3,0-14.6-1.7-21.7c-1.7-7.1-5.3-13.9-11-18.3c-2.1,7.4-1.9,15.5,0.6,22.7
				C431.3,374.5,434.6,380,440.9,384.5"/>
		</g>
		<g>
			<path class="st6" d="M429.8,406c1-6.5,1.8-13.1,1.1-19.6c-0.7-6.5-3-13.1-7.7-17.7c-2.8,6.4-3.5,13.6-2.2,20.4
				C422.5,395.9,424.8,401.2,429.8,406"/>
		</g>
		<g>
			<path class="st6" d="M421.8,421.4c-0.4-7.4-0.9-14.8-3.1-21.9c-2.2-7.1-6.2-13.8-12.3-17.9c-1.7,7.6-1,15.8,2,23
				C411.5,411.8,415.2,417.1,421.8,421.4"/>
		</g>
		<g>
			<path class="st6" d="M409.9,439.5c0.2-6.8,0.3-13.6-1.1-20.2s-4.6-13-9.9-17.3c-2.1,6.9-2.1,14.4,0.1,21.2
				C401.2,430,404.2,435.1,409.9,439.5"/>
		</g>
		<g>
			<path class="st6" d="M400,455c0.2-6.8,0.3-13.6-1.1-20.2c-1.5-6.6-3.9-12.4-9.1-16.7c-2.1,6.9-2.8,13.7-0.6,20.6
				C391.3,445.5,394.3,450.7,400,455"/>
		</g>
		<g>
			<path class="st6" d="M440.9,384.3c4.4-3,9.7-5.7,14.7-7.5c4.1-1.5,8.2-2.9,12.5-3.4c4.3-0.5,8.8-0.2,12.7,1.7
				c-5,5.2-11.5,8.9-18.6,10.6C455.2,387.3,447.7,386.8,440.9,384.3"/>
		</g>
		<g>
			<path class="st6" d="M409.9,439.6c3.5-2.4,7.9-4.7,11.9-6.1c3.3-1.2,6.7-2.3,10.2-2.8c3.5-0.4,7.2-0.1,10.4,1.4
				c-4.1,4.2-9.4,7.3-15.1,8.6C421.5,442,415.4,441.6,409.9,439.6"/>
		</g>
		<g>
			<path class="st6" d="M402.1,451.9c4-1.6,9.4-4.8,13.6-5.3c3.5-0.4,7-0.8,10.6-0.4c3.5,0.4,7,1.5,9.8,3.7c-4.9,3.2-10.8,5-16.7,5
				C413.6,454.9,407,455.1,402.1,451.9"/>
		</g>
		<g>
			<path class="st6" d="M431.5,404.7c4.4-3,9.7-5.7,14.7-7.5c4.1-1.5,8.2-2.9,12.5-3.4c4.3-0.5,8.8-0.2,12.7,1.7
				c-5,5.2-11.5,8.9-18.6,10.6C445.8,407.6,438.3,407.2,431.5,404.7"/>
		</g>
		<g>
			<path class="st6" d="M418.8,426.6c3.9-3.5,8.9-6.9,13.6-9.3c3.9-2,7.8-3.9,12-4.9c4.2-1.1,8.7-1.3,12.8,0.1
				c-4.3,5.8-10.3,10.3-17.1,12.8C433.3,427.7,425.8,428.2,418.8,426.6"/>
		</g>
		<g>
			<path class="st6" d="M448.6,368.7c7.4-0.6,14.7-3,21-6.9c6.3-3.9,11.7-9.4,15.5-15.8c-5.5,0.7-11,2-15.8,4.7
				C461.4,355.3,456,363.2,448.6,368.7"/>
		</g>
		<g>
			<path class="st6" d="M457,351.7c5.4-2.6,9.8-7.2,12.1-12.8c2.3-5.5,2.5-11.9,0.5-17.6c-4.8,3.3-8.6,8.1-10.8,13.5
				c-2.2,5.4-2.8,11.4-1.8,17.2"/>
		</g>
		<g>
			<g>
				<path class="st8" d="M399.1,456.3c0,0,0.1-0.1,0.2-0.3c0.1-0.2,0.3-0.5,0.6-0.9c0.5-0.8,1.3-1.9,2.3-3.4c1-1.5,2.2-3.3,3.6-5.4
					c1.4-2.1,3-4.5,4.6-7.2c1.7-2.7,3.5-5.6,5.4-8.8c1.9-3.2,3.9-6.6,6-10.3c4.1-7.3,8.6-15.4,13-24c8.9-17.2,16.4-33.1,21.8-44.6
					c2.7-5.7,4.8-10.4,6.3-13.6c0.7-1.6,1.3-2.8,1.7-3.7c0.2-0.4,0.3-0.7,0.5-1c0.1-0.2,0.2-0.3,0.2-0.3c0,0,0,0.1-0.1,0.3
					c-0.1,0.2-0.2,0.6-0.4,1c-0.4,0.9-0.9,2.1-1.6,3.7c-1.4,3.2-3.5,7.9-6.2,13.7c-5.3,11.6-12.7,27.5-21.6,44.7
					c-4.4,8.6-8.9,16.7-13.1,24c-2.1,3.6-4.1,7.1-6.1,10.3c-1.9,3.2-3.8,6.1-5.5,8.8c-1.7,2.7-3.3,5.1-4.7,7.2
					c-1.4,2.1-2.6,3.9-3.7,5.3c-1,1.4-1.8,2.5-2.4,3.3c-0.3,0.4-0.5,0.6-0.6,0.9C399.2,456.2,399.1,456.3,399.1,456.3z"/>
			</g>
		</g>
	</g>
	<g>
		<g>
			<path class="st6" d="M54.2,389.5c-2.6-5.8-4.6-12-5.9-18.2c-1.3-6.2-1.3-12.8,0.7-18.8c4.9,4.8,8.1,11.3,9,18.1
				c0.9,6.8-0.1,13.1-3.6,19"/>
		</g>
		<g>
			<path class="st6" d="M65.9,404.3c-1.6-6.6-3.1-13.4-2.9-20.2c0.1-6.8,1.9-13.8,6.3-19.1c3.5,6.3,4.9,13.8,4.1,21
				C72.7,393.1,70.7,398.8,65.9,404.3"/>
		</g>
		<g>
			<path class="st6" d="M80.5,421.7c-2.2-5.7-4.3-11.6-5-17.7c-0.7-6.1,0.1-12.6,3.4-17.8c3.9,5.3,6.1,11.7,6.2,18.3
				C85.1,410.9,84.1,416.2,80.5,421.7"/>
		</g>
		<g>
			<path class="st6" d="M91,434.1c-1.2-6.8-2.3-13.7-1.7-20.7c0.5-6.9,2.8-13.9,7.6-18.9c3.1,6.6,4.1,14.3,2.9,21.5
				C98.5,423.2,96.1,428.8,91,434.1"/>
		</g>
		<g>
			<path class="st6" d="M105.6,448.2c-1.6-6.1-3.1-12.4-3.1-18.7c0-6.4,1.5-12.9,5.5-17.9c3.4,5.8,4.9,12.7,4.3,19.4
				C111.7,437.7,110,443,105.6,448.2"/>
		</g>
		<g>
			<path class="st6" d="M65.9,404.1c-4.6-1.8-10.1-3.2-15-3.9c-4-0.5-8.1-0.9-12.2-0.5c-4.1,0.4-8.1,1.7-11.3,4.2
				c5.7,3.7,12.4,5.8,19.2,5.8C53.4,409.8,60.2,407.8,65.9,404.1"/>
		</g>
		<g>
			<path class="st6" d="M105.7,448.3c-3.7-1.5-8.2-2.6-12.2-3.1c-3.3-0.4-6.6-0.7-9.9-0.4c-3.3,0.3-6.6,1.4-9.2,3.4
				c4.6,3,10.1,4.7,15.6,4.7C95.5,452.9,101,451.3,105.7,448.3"/>
		</g>
		<g>
			<path class="st6" d="M78.7,420.8c-4.6-1.8-10.1-3.2-15-3.9c-4-0.5-8.1-0.9-12.2-0.5c-4.1,0.4-8.1,1.7-11.3,4.2
				c5.7,3.7,12.4,5.8,19.2,5.8C66.2,426.4,73,424.5,78.7,420.8"/>
		</g>
		<g>
			<path class="st6" d="M94.8,438.2c-4.3-2.4-9.6-4.5-14.4-5.7c-3.9-1-7.9-1.9-12-2c-4.1-0.1-8.2,0.6-11.7,2.7
				c5.1,4.4,11.6,7.3,18.3,8.2C81.7,442.3,88.7,441.2,94.8,438.2"/>
		</g>
		<g>
			<path class="st6" d="M55.6,391.4c-6.9,1-14.1,0.3-20.7-2c-6.6-2.3-12.6-6.2-17.5-11.3c5.2-0.5,10.5-0.5,15.4,1.1
				C41.1,381.8,47.6,387.8,55.6,391.4"/>
		</g>
		<g>
			<path class="st6" d="M44.4,377.5c-5.5-1.3-10.5-4.6-13.7-9.2s-4.7-10.4-4.1-16c5.1,2.1,9.5,5.6,12.7,10.1c3.1,4.5,5,9.9,5.2,15.3
				"/>
		</g>
		<g>
			<g>
				<path class="st8" d="M109.2,452.1c0,0-0.1-0.1-0.2-0.2c-0.2-0.2-0.4-0.4-0.7-0.6c-0.6-0.6-1.4-1.4-2.5-2.4
					c-1.1-1-2.4-2.3-3.9-3.8c-1.5-1.5-3.2-3.2-5.1-5.2c-7.4-7.7-17.4-18.7-27.8-31.3c-10.4-12.6-19.5-24.3-25.9-32.8
					c-3.2-4.3-5.8-7.7-7.6-10.1c-0.9-1.2-1.6-2.1-2-2.8c-0.2-0.3-0.4-0.5-0.5-0.7c-0.1-0.2-0.2-0.3-0.2-0.3c0,0,0.1,0.1,0.2,0.2
					c0.1,0.2,0.3,0.4,0.6,0.7c0.5,0.7,1.2,1.6,2.1,2.7c1.9,2.4,4.5,5.8,7.7,10c6.5,8.5,15.6,20.2,26,32.7
					c10.4,12.6,20.3,23.6,27.6,31.4c1.8,2,3.5,3.7,5,5.2c1.5,1.5,2.8,2.8,3.8,3.9c1,1,1.8,1.9,2.4,2.5c0.3,0.3,0.5,0.5,0.6,0.6
					C109.1,452.1,109.2,452.1,109.2,452.1z"/>
			</g>
		</g>
	</g>
</g>
<g id="Chair">
	<g>
		<g>
			<g>
				<path class="st7" d="M403.6,456.3l12.7-134.1c1-10.6-7.2-19.7-17.8-20l-141.1-2.8c-9.6-0.2-17.8,7.2-18.6,16.8L228,456.2
					L403.6,456.3z"/>
			</g>
		</g>
		<g>
			<g>
				<g>
					<path class="st8" d="M383.6,456.2c0,0,0-0.2,0.1-0.5c0-0.3,0.1-0.8,0.2-1.4c0.1-1.3,0.3-3.1,0.6-5.4c0.5-4.7,1.2-11.4,2-19.7
						c1.6-16.7,3.9-39.7,6.4-65.1c1.9-19.8,3.6-38.1,5.1-53.1l0,0l0,0c0-0.7,0-1.5-0.1-2.2c0-0.7,0-1.5-0.2-2.2
						c-0.4-1.4-1.2-2.7-2.3-3.5c-1.1-0.9-2.4-1.3-3.8-1.4c-1.3,0-2.5,0-3.7-0.1c-4.8-0.1-8.9-0.1-12.4-0.2c-3.4,0-6.1-0.1-7.9-0.1
						c-0.9,0-1.6,0-2.1,0c-0.5,0-0.7,0-0.7,0s0.2,0,0.7,0c0.5,0,1.2,0,2.1,0.1c1.8,0.1,4.5,0.1,7.9,0.2c3.4,0.1,7.6,0.2,12.4,0.3
						c1.2,0,2.4,0.1,3.7,0.1c1.2,0.1,2.5,0.5,3.5,1.3c1,0.8,1.8,2,2.2,3.3c0.2,0.7,0.2,1.4,0.2,2.1c0,0.7,0,1.5,0.1,2.2l0,0
						c-1.5,14.9-3.2,33.2-5.2,53c-2.4,25.4-4.6,48.4-6.2,65.1c-0.8,8.3-1.4,15.1-1.8,19.7c-0.2,2.3-0.4,4.1-0.5,5.4
						c0,0.6-0.1,1.1-0.1,1.4C383.6,456.1,383.6,456.2,383.6,456.2z"/>
				</g>
			</g>
		</g>
	</g>
</g>
<g id="Character">
	<g>
		<g>
			<path class="st7" d="M223.6,221.2c-0.7-0.7-1.6-1.3-2.6-1.6l0.2,0c-0.2,0-0.4-0.1-0.6-0.1c-0.7-0.2-1.4-0.1-2,0.3l0,0
				c-1.1,0.4-2,1.3-2.6,2.3c-0.9,1.9-0.5,4.2,0.8,5.8c1.1,1.4,3,2.3,4.7,1.8c1.6-0.4,2.7-1.9,3.1-3.5
				C225.3,224.5,224.9,222.5,223.6,221.2z"/>
		</g>
		<g>
			<path class="st6" d="M215.6,196.9c-6.7-1.8-12.3-7-14.6-13.6c-2.3-6.6-1.2-14.2,2.9-19.8c-4.1,1.1-8.3-2.8-9.1-7
				c-0.8-4.2,0.6-8.6,2.2-12.6c3.7-9.2,8.2-18.3,15.9-24.5c7.6-6.2,19-8.5,27.2-3.2c0.1-3.6,4.3-5.4,7.8-6
				c15.3-2.5,31.6,1.5,43.6,11.3c12,9.8,19.4,25.5,18.6,41.1c5.2,8.1,1.9,20.5-6.7,24.8c1.5,9.3-0.3,19.2-5,27.3
				c-4.7,8.2-12.4,14.6-21.2,17.7"/>
		</g>
		<g>
			<g>
				<g>
					<g>
						<g>
							<g>
								<path class="st9" d="M220.2,188.1c0.9-13.4,9.9-29.7,23.2-28.2l41.5,10.8c4,0.5,7.1,3.9,7,8L286.7,279c0.1,0,0.2,0,0.3,0.1
									c0,0-9.6,28.2-37.1,19.5c-5.4-1.7-7.9-7.7-9-13.8l-0.3,0c0-0.7,0-1.4,0-2.1c-0.9-7.1-0.1-13.8-0.1-13.8l0,0
									c0-8.1,0-11.4,0-11.3c0,0-17.1-3-20.4-25.3C218.4,221.1,219.1,203,220.2,188.1z"/>
							</g>
						</g>
					</g>
					<g>
						<g>
							<g>
								<g>
									<g>
										<g>
											<g>
												<g>
													<g>
														<g>
															<g>
																<g>
																	<g>
																		<g>
																			<g>
																				<g>
																					<g>
																						<g>
																							<g>
																								<path class="st8" d="M227.6,202.3c-0.1,1.5,1.2,2.8,2.7,2.9c1.6,0.1,2.9-1,3-2.6c0.1-1.5-1.2-2.8-2.7-2.9
																									C229,199.6,227.6,200.8,227.6,202.3z"/>
																							</g>
																						</g>
																					</g>
																				</g>
																			</g>
																		</g>
																	</g>
																</g>
															</g>
														</g>
														<g>
															<g>
																<g>
																	<g>
																		<g>
																			<g>
																				<g>
																					<g>
																						<g>
																							<g>
																								<g>
																									<path class="st8" d="M224,197.6c0.4,0.4,2.5-1.2,5.6-1.2c3.1,0,5.3,1.6,5.7,1.2c0.2-0.2-0.2-0.8-1.2-1.6
																										c-1-0.7-2.6-1.4-4.5-1.4c-1.9,0-3.5,0.7-4.5,1.4C224.2,196.7,223.9,197.4,224,197.6z"/>
																								</g>
																							</g>
																						</g>
																					</g>
																				</g>
																			</g>
																		</g>
																	</g>
																</g>
															</g>
														</g>
													</g>
													<g>
														<g>
															<g>
																<g>
																	<g>
																		<g>
																			<g>
																				<g>
																					<g>
																						<g>
																							<g>
																								<path class="st8" d="M257.2,202.8c-0.1,1.5,1.2,2.8,2.7,2.9c1.6,0.1,2.9-1,3-2.6c0.1-1.5-1.2-2.8-2.7-2.9
																									C258.6,200.1,257.3,201.3,257.2,202.8z"/>
																							</g>
																						</g>
																					</g>
																				</g>
																			</g>
																		</g>
																	</g>
																</g>
															</g>
														</g>
														<g>
															<g>
																<g>
																	<g>
																		<g>
																			<g>
																				<g>
																					<g>
																						<g>
																							<g>
																								<g>
																									<path class="st8" d="M254.3,198.4c0.4,0.4,2.5-1.2,5.6-1.2c3.1,0,5.3,1.6,5.7,1.2c0.2-0.2-0.2-0.8-1.2-1.6
																										c-1-0.7-2.6-1.4-4.5-1.4c-1.9,0-3.5,0.7-4.5,1.4C254.4,197.5,254.1,198.2,254.3,198.4z"/>
																								</g>
																							</g>
																						</g>
																					</g>
																				</g>
																			</g>
																		</g>
																	</g>
																</g>
															</g>
														</g>
													</g>
													<g>
														<g>
															<g>
																<g>
																	<g>
																		<g>
																			<g>
																				<g>
																					<g>
																						<g>
																							<g>
																								<path class="st8" d="M242.9,221.1c0-0.2-1.9-0.5-5-0.9c-0.8-0.1-1.5-0.2-1.7-0.8c-0.2-0.6,0.2-1.4,0.5-2.3
																									c0.8-1.9,1.5-3.9,2.4-6c3.3-8.5,5.7-15.5,5.3-15.6c-0.3-0.1-3.3,6.6-6.6,15.1c-0.8,2.1-1.5,4.1-2.3,6
																									c-0.3,0.9-0.8,1.9-0.4,3.1c0.2,0.6,0.8,1,1.3,1.2c0.5,0.2,0.9,0.2,1.3,0.2
																									C241,221.2,242.9,221.3,242.9,221.1z"/>
																							</g>
																						</g>
																					</g>
																				</g>
																			</g>
																		</g>
																	</g>
																</g>
															</g>
														</g>
													</g>
													<g>
														<g>
															<g>
																<g>
																	<g>
																		<g>
																			<g>
																				<g>
																					<g>
																						<g>
																							<path class="st10" d="M240.6,257.5c0,0,15,1.1,29.9-7.8c0,0-7.3,15.3-29.6,13L240.6,257.5z"/>
																						</g>
																					</g>
																				</g>
																			</g>
																		</g>
																	</g>
																</g>
															</g>
														</g>
													</g>
													<g>
														<g>
															<g>
																<g>
																	<g>
																		<g>
																			<g>
																				<g>
																					<g>
																						<g>
																							<path class="st10" d="M244.2,228.5c1.1-1.5,3.1-2.2,5-2c1.3,0.2,2.7,0.8,3.5,1.9c0.8,1.1,1,2.6,0.2,3.7
																								c-0.8,1.2-2.6,1.4-4,1c-1.5-0.4-2.7-1.4-3.9-2.4c-0.3-0.3-0.7-0.5-0.9-0.9c-0.2-0.4-0.2-0.8,0-1.1"/>
																						</g>
																					</g>
																				</g>
																			</g>
																		</g>
																	</g>
																</g>
															</g>
														</g>
													</g>
													<g>
														<g>
															<g>
																<g>
																	<g>
																		<g>
																			<g>
																				<g>
																					<g>
																						<g>
																							<g>
																								<path class="st8" d="M252,223.3c-0.5,0-0.5,3.3-3.4,5.7c-2.9,2.4-6.4,2-6.5,2.4c0,0.2,0.8,0.7,2.3,0.7
																									c1.5,0.1,3.6-0.4,5.4-1.8c1.8-1.4,2.5-3.4,2.6-4.7C252.6,224.1,252.2,223.3,252,223.3z"/>
																							</g>
																						</g>
																					</g>
																				</g>
																			</g>
																		</g>
																	</g>
																</g>
															</g>
														</g>
													</g>
												</g>
											</g>
										</g>
										<g>
											<g>
												<g>
													<g>
														<g>
															<g>
																<g>
																	<g>
																		<g>
																			<g>
																				<path class="st8" d="M252.9,193c0.3,0.8,3.4,0.5,7,0.9c3.6,0.4,6.5,1.5,7,0.7c0.2-0.4-0.3-1.1-1.5-2
																					c-1.2-0.8-3-1.6-5.2-1.9c-2.2-0.3-4.1,0.1-5.5,0.6C253.5,191.9,252.8,192.6,252.9,193z"/>
																			</g>
																		</g>
																	</g>
																</g>
															</g>
														</g>
													</g>
												</g>
											</g>
										</g>
										<g>
											<g>
												<g>
													<g>
														<g>
															<g>
																<g>
																	<g>
																		<g>
																			<g>
																				<path class="st8" d="M225.2,188.7c0.5,0.7,2.7,0,5.2,0c2.5-0.1,4.7,0.5,5.2-0.2c0.2-0.4-0.1-1.1-1.1-1.7
																					c-0.9-0.7-2.5-1.2-4.2-1.2c-1.8,0-3.3,0.7-4.2,1.4C225.3,187.6,225,188.4,225.2,188.7z"/>
																			</g>
																		</g>
																	</g>
																</g>
															</g>
														</g>
													</g>
												</g>
											</g>
										</g>
									</g>
								</g>
							</g>
						</g>
					</g>
				</g>
			</g>
		</g>
		<g>
			<g>
				<path class="st8" d="M277.9,199.7c-0.1,0,0-1.4-0.6-3.9c-0.3-1.2-0.9-2.7-1.8-4.2c-0.9-1.5-2.3-3.1-4.1-4.5
					c-1.8-1.3-4.1-2.5-6.7-3c-2.6-0.4-5.5-0.4-8.3,0.7c-1.4,0.5-2.8,1.2-4,2.2c-0.6,0.4-1.2,1-1.8,1.5c-0.5,0.6-1.1,1.2-1.6,1.8
					c-2,2.6-3.1,5.9-3.1,9.4c0,3.4,1.1,6.8,3.1,9.4c0.5,0.7,1,1.2,1.6,1.8c0.6,0.5,1.2,1.1,1.8,1.5c1.2,0.9,2.6,1.7,4,2.2
					c2.8,1.1,5.7,1.2,8.3,0.7c2.6-0.5,4.9-1.6,6.7-3c1.8-1.4,3.1-3,4.1-4.5c0.9-1.5,1.5-3,1.8-4.2
					C277.9,201.2,277.8,199.7,277.9,199.7c0,0,0,0.1,0,0.3c0,0.2,0,0.5,0,0.8c0,0.3,0,0.8-0.1,1.2c-0.1,0.5-0.1,1.1-0.3,1.7
					c-0.3,1.3-0.8,2.8-1.7,4.3c-0.9,1.6-2.3,3.2-4.1,4.7c-1.8,1.4-4.2,2.6-6.9,3.1c-2.7,0.5-5.7,0.4-8.6-0.7
					c-1.5-0.5-2.9-1.3-4.1-2.2c-0.7-0.5-1.3-1-1.9-1.6c-0.6-0.6-1.1-1.2-1.6-1.9c-2-2.7-3.2-6.1-3.2-9.7c0-3.6,1.2-7,3.2-9.7
					c0.5-0.7,1.1-1.3,1.6-1.9c0.6-0.5,1.2-1.1,1.9-1.6c1.3-1,2.7-1.7,4.1-2.2c2.9-1.1,5.9-1.2,8.6-0.7c2.7,0.5,5,1.7,6.9,3.1
					c1.8,1.4,3.2,3.1,4.1,4.7c0.9,1.6,1.5,3.1,1.7,4.3c0.2,0.6,0.2,1.2,0.3,1.7c0.1,0.5,0.1,0.9,0.1,1.2c0,0.3,0,0.6,0,0.8
					C277.9,199.6,277.9,199.7,277.9,199.7z"/>
			</g>
		</g>
		<g>
			<g>
				<path class="st8" d="M303.4,188.7c0,0,0-0.1-0.1-0.3c-0.1-0.2-0.1-0.5-0.2-0.9c-0.1-0.4-0.2-0.9-0.3-1.5c-0.2-0.6-0.3-1.3-0.6-2
					c-0.9-3-2.6-7.3-5.6-12c-3-4.7-7.5-9.8-13.5-14.2c-6-4.3-13.6-7.7-21.9-9.5c-8.4-1.8-16.6-1.8-24-0.8
					c-7.4,0.9-13.8,2.9-18.9,5.3c-2.6,1.1-4.7,2.5-6.6,3.7c-1.8,1.3-3.3,2.5-4.5,3.5c-0.6,0.5-1.1,1-1.5,1.4c-0.4,0.4-0.7,0.8-1,1.1
					c-0.3,0.3-0.5,0.5-0.6,0.7c-0.1,0.2-0.2,0.2-0.2,0.2c0,0,0.1-0.1,0.2-0.3c0.2-0.2,0.4-0.4,0.6-0.7c0.3-0.3,0.6-0.7,1-1.2
					c0.4-0.4,0.9-0.9,1.5-1.5c1.1-1.1,2.6-2.3,4.4-3.6c1.9-1.2,4-2.6,6.6-3.8c5.1-2.4,11.6-4.4,19-5.4c7.4-1,15.7-1.1,24.1,0.8
					c8.4,1.8,16.1,5.2,22.1,9.6c6,4.4,10.5,9.6,13.5,14.3c3,4.8,4.6,9.1,5.4,12.1c0.2,0.8,0.4,1.4,0.5,2c0.1,0.6,0.2,1.1,0.3,1.5
					c0.1,0.4,0.1,0.7,0.2,0.9C303.4,188.6,303.4,188.7,303.4,188.7z"/>
			</g>
		</g>
		<g>
			<g>
				<path class="st8" d="M308.8,167.2c0,0,0-0.1,0-0.2c0-0.2-0.1-0.4-0.1-0.7c-0.1-0.6-0.2-1.5-0.4-2.6c-0.5-2.2-1.4-5.5-3.4-9.1
					c-2-3.6-5-7.5-9.1-11.1c-4-3.6-9.1-6.9-14.6-9.9c-11-6-21.6-10.3-29.4-13.1c-3.9-1.4-7.1-2.4-9.3-3.1c-1.1-0.3-1.9-0.6-2.5-0.8
					c-0.3-0.1-0.5-0.2-0.7-0.2c-0.1-0.1-0.2-0.1-0.2-0.1c0,0,0.1,0,0.2,0c0.2,0,0.4,0.1,0.7,0.2c0.6,0.2,1.5,0.4,2.6,0.7
					c2.2,0.6,5.4,1.6,9.3,2.9c7.8,2.7,18.4,6.9,29.5,13c5.5,3,10.6,6.3,14.7,10c4.1,3.6,7.1,7.6,9.1,11.3c2,3.6,2.9,6.9,3.3,9.2
					c0.2,1.1,0.3,2,0.3,2.6c0,0.3,0,0.5,0,0.7C308.8,167.1,308.8,167.2,308.8,167.2z"/>
			</g>
		</g>
		<g>
			<path class="st6" d="M240.3,166.2c0,0,20.9-0.3,36.7,23.3c10.4,15.6,12.6,35.1,12.6,35.1l8.1-37.2l-6.1-16.9l-14.4-8.2l-27.4-1.5
				l-10.3,5.1"/>
		</g>
		<g>
			<path class="st6" d="M281.3,168.2c-33.3-8-59.9,3-64.8,29.1l-8.9-14.6l19.5-23.5l19-4.9l38.2,5.8L281.3,168.2z"/>
		</g>
		<g>
			<g>
				<path class="st8" d="M302.8,165.9c0,0,0-0.1-0.1-0.3c0-0.2-0.1-0.6-0.2-0.9c-0.1-0.4-0.1-0.9-0.3-1.5c-0.2-0.6-0.3-1.3-0.6-2
					c-0.4-1.5-1.2-3.3-2.3-5.3c-1.1-2-2.6-4.1-4.5-6.2c-1.9-2.1-4.3-4.2-7.1-6c-2.8-1.8-6-3.4-9.6-4.6c-7.1-2.4-15.5-3.3-24.2-3.1
					c-8.7,0.2-17,1-24.3,2.9c-3.6,1-7,2.2-10,3.7c-3,1.5-5.6,3.2-7.9,5c-4.5,3.5-7.2,7.4-8.8,10.1c-0.4,0.7-0.7,1.3-1,1.9
					c-0.3,0.6-0.5,1-0.6,1.4c-0.2,0.4-0.3,0.7-0.4,0.9c-0.1,0.2-0.1,0.3-0.1,0.3c0,0,0.4-1.7,1.9-4.6c1.5-2.8,4.2-6.7,8.7-10.3
					c2.2-1.8,4.9-3.6,7.9-5.1c3-1.5,6.4-2.8,10.1-3.8c7.3-2,15.7-2.8,24.4-3c8.7-0.2,17.1,0.7,24.4,3.2c3.6,1.2,6.9,2.8,9.7,4.7
					c2.8,1.9,5.2,4,7.1,6.1c1.9,2.1,3.4,4.3,4.5,6.3c1.1,2,1.8,3.8,2.2,5.4c0.3,0.8,0.4,1.5,0.5,2.1c0.1,0.6,0.2,1.1,0.3,1.5
					c0,0.4,0.1,0.7,0.1,1C302.8,165.8,302.8,165.9,302.8,165.9z"/>
			</g>
		</g>
		<g>
			<g>
				<path class="st1" d="M219,188.4c0,0-0.5,0-1.4-0.3c-0.9-0.3-2.1-0.8-3.4-1.7c-1.3-1-2.7-2.4-3.8-4.2c-1.1-1.8-2.1-4-2.7-6.4
					c-1.1-4.9-0.8-9.4-0.1-12.6c0.3-1.6,0.7-2.8,1.1-3.7c0.2-0.4,0.3-0.7,0.4-0.9c0.1-0.2,0.2-0.3,0.2-0.3c0.1,0-0.8,1.8-1.4,5
					c-0.5,3.1-0.8,7.6,0.3,12.4c0.6,2.4,1.5,4.5,2.6,6.3c1.1,1.8,2.4,3.2,3.6,4.2C217,188.1,219.1,188.3,219,188.4z"/>
			</g>
		</g>
		<g>
			<g>
				<path class="st8" d="M289.5,167.3c0,0-0.1,0-0.2-0.1c-0.2-0.1-0.4-0.2-0.6-0.3c-0.3-0.1-0.6-0.3-1-0.4c-0.4-0.2-0.9-0.3-1.4-0.5
					c-2.1-0.8-5.2-1.7-9.2-2.2c-4-0.5-8.8-0.6-14.1,0.1c-2.6,0.3-5.4,0.8-8.2,1.4c-2.8,0.6-5.8,1.3-8.7,2.2
					c-11.8,3.4-20.9,10.9-25,17.7c-2.1,3.4-3.1,6.6-3.7,8.7c-0.3,1.1-0.5,1.9-0.6,2.5c-0.1,0.3-0.1,0.5-0.1,0.7
					c0,0.1-0.1,0.2-0.1,0.2c0,0,0-0.1,0-0.2c0-0.2,0.1-0.4,0.1-0.7c0.1-0.6,0.2-1.5,0.5-2.6c0.5-2.2,1.5-5.4,3.5-8.9
					c4.1-7,13.3-14.6,25.2-18c3-0.9,5.9-1.6,8.7-2.2c2.8-0.6,5.6-1.1,8.3-1.4c5.3-0.6,10.2-0.5,14.2,0c4,0.5,7.2,1.6,9.3,2.4
					c0.5,0.2,1,0.4,1.4,0.6c0.4,0.2,0.7,0.4,1,0.5c0.2,0.1,0.4,0.2,0.6,0.3C289.4,167.3,289.5,167.3,289.5,167.3z"/>
			</g>
		</g>
		<g>
			<g>
				<path class="st8" d="M245.9,167.4c0,0,0.3,0,0.7,0c0.5,0,1.2,0.1,2.1,0.3c1.8,0.3,4.3,1,7.2,2.4c5.8,2.8,13.1,8.4,18.9,16.4
					c2.9,4,5.1,8.2,7,12c1.9,3.8,3.4,7.4,4.5,10.4c1.1,3,1.8,5.6,2.1,7.3c0.2,0.9,0.3,1.6,0.3,2c0.1,0.5,0.1,0.7,0.1,0.7
					c0,0-0.1-0.2-0.2-0.7c-0.1-0.5-0.2-1.1-0.4-2c-0.4-1.7-1.1-4.3-2.3-7.3c-1.1-3-2.7-6.5-4.6-10.3c-1.9-3.8-4.1-7.9-7-11.9
					c-5.8-7.9-12.9-13.5-18.7-16.3c-2.9-1.4-5.4-2.2-7.1-2.6c-0.9-0.2-1.6-0.3-2-0.4C246.1,167.4,245.9,167.4,245.9,167.4z"/>
			</g>
		</g>
		<g>
			<g>
				<path class="st8" d="M240.1,199.7c-0.1,0,0-1.4-0.6-3.9c-0.3-1.2-0.9-2.7-1.8-4.2c-0.9-1.5-2.3-3.1-4.1-4.5
					c-1.8-1.3-4.1-2.5-6.7-3c-2.6-0.4-5.5-0.4-8.3,0.7c-1.4,0.5-2.8,1.2-4,2.2c-0.6,0.4-1.2,1-1.8,1.5c-0.5,0.6-1.1,1.2-1.6,1.8
					c-2,2.6-3.1,5.9-3.1,9.4c0,3.4,1.1,6.8,3.1,9.4c0.5,0.7,1,1.2,1.6,1.8c0.6,0.5,1.2,1.1,1.8,1.5c1.2,0.9,2.6,1.7,4,2.2
					c2.8,1.1,5.7,1.2,8.3,0.7c2.6-0.5,4.9-1.6,6.7-3c1.8-1.4,3.1-3,4.1-4.5c0.9-1.5,1.5-3,1.8-4.2
					C240.1,201.2,240,199.7,240.1,199.7c0,0,0,0.1,0,0.3c0,0.2,0,0.5,0,0.8c0,0.3,0,0.8-0.1,1.2c-0.1,0.5-0.1,1.1-0.3,1.7
					c-0.3,1.3-0.8,2.8-1.7,4.3c-0.9,1.6-2.3,3.2-4.1,4.7c-1.8,1.4-4.2,2.6-6.9,3.1c-2.7,0.5-5.7,0.4-8.6-0.7
					c-1.5-0.5-2.9-1.3-4.1-2.2c-0.7-0.5-1.3-1-1.9-1.6c-0.6-0.6-1.1-1.2-1.6-1.9c-2-2.7-3.2-6.1-3.2-9.7c0-3.6,1.2-7,3.2-9.7
					c0.5-0.7,1.1-1.3,1.6-1.9c0.6-0.5,1.2-1.1,1.9-1.6c1.3-1,2.7-1.7,4.1-2.2c2.9-1.1,5.9-1.2,8.6-0.7c2.7,0.5,5,1.7,6.9,3.1
					c1.8,1.4,3.2,3.1,4.1,4.7c0.9,1.6,1.5,3.1,1.7,4.3c0.2,0.6,0.2,1.2,0.3,1.7c0.1,0.5,0.1,0.9,0.1,1.2c0,0.3,0,0.6,0,0.8
					C240.1,199.6,240.1,199.7,240.1,199.7z"/>
			</g>
		</g>
		<g>
			<path class="st7" d="M290.4,220c-0.7-0.7-1.6-1.3-2.6-1.6l0.2,0c-0.2,0-0.4-0.1-0.6-0.1c-0.7-0.2-1.4-0.1-2,0.3l0,0
				c-1.1,0.4-2,1.3-2.6,2.3c-0.9,1.9-0.5,4.2,0.8,5.8c1.1,1.4,3,2.3,4.7,1.8c1.6-0.4,2.7-1.9,3.1-3.5
				C292,223.3,291.6,221.3,290.4,220z"/>
		</g>
		<g>
			<g>
				<path class="st1" d="M227.1,178.2c0,0-0.4-0.1-1-0.5c-0.3-0.2-0.7-0.4-1.1-0.7c-0.4-0.3-0.9-0.6-1.4-1c-1-0.8-2.1-1.8-3.2-3
					c-1.1-1.2-2.2-2.7-3.2-4.3c-1-1.7-1.7-3.3-2.3-4.9c-0.5-1.6-0.9-3-1.1-4.3c-0.1-0.6-0.2-1.2-0.2-1.7c-0.1-0.5-0.1-0.9-0.1-1.3
					c0-0.7,0-1.1,0-1.1c0.1,0,0.2,1.5,0.7,4c0.2,1.2,0.7,2.6,1.2,4.2c0.6,1.5,1.3,3.2,2.3,4.8c1,1.6,2,3.1,3.1,4.3
					c1.1,1.2,2.1,2.3,3.1,3.1C225.8,177.3,227.1,178.1,227.1,178.2z"/>
			</g>
		</g>
		<g>
			<g>
				<path class="st1" d="M228.5,150.1c0.1,0-0.6,1.5-1.3,3.9c-0.7,2.4-1.5,5.8-1.7,9.6c-0.2,3.8,0.2,7.3,0.8,9.7
					c0.5,2.5,1,3.9,0.9,4c0,0-0.2-0.3-0.4-1c-0.3-0.7-0.5-1.6-0.9-2.9c-0.6-2.5-1.1-6-0.9-9.8c0.2-3.9,1-7.3,1.9-9.7
					c0.4-1.2,0.8-2.1,1.1-2.8C228.3,150.4,228.5,150,228.5,150.1z"/>
			</g>
		</g>
		<g>
			<g>
				<path class="st1" d="M251.2,164.7c-0.1,0-0.5-1.1-1.3-2.8c-0.8-1.8-2-4.1-3.6-6.6c-1.6-2.5-3.3-4.5-4.5-6
					c-1.3-1.4-2.1-2.3-2.1-2.4c0,0,0.3,0.2,0.7,0.5c0.4,0.4,1,0.9,1.7,1.6c1.4,1.4,3.1,3.5,4.7,6c1.6,2.5,2.8,4.9,3.5,6.7
					c0.4,0.9,0.6,1.6,0.8,2.2C251.1,164.4,251.2,164.7,251.2,164.7z"/>
			</g>
		</g>
		<g>
			<g>
				<path class="st1" d="M257.8,148.8c0.1,0,0.3,0.8,0.6,2.1c0.3,1.3,0.5,3.2,0.4,5.3c-0.1,2.1-0.4,3.9-0.7,5.2
					c-0.3,1.3-0.7,2.1-0.7,2.1c-0.2,0,0.9-3.2,1-7.3C258.4,152.1,257.6,148.8,257.8,148.8z"/>
			</g>
		</g>
		<g>
			<g>
				<path class="st1" d="M269,152.6c0.1,0,0.6,2.5-0.2,5.6c-0.8,3.1-2.6,5-2.7,4.9c-0.1-0.1,1.4-2.1,2.2-5.1
					C269.1,155.1,268.8,152.6,269,152.6z"/>
			</g>
		</g>
		<g>
			<g>
				<path class="st7" d="M278.7,193.3c-0.1,0,0.1-1.7,0.1-4.5c0-2.8-0.3-6.6-1.3-10.7c-1-4.1-2.5-7.7-3.8-10.1
					c-1.3-2.5-2.3-3.9-2.2-3.9c0,0,0.3,0.3,0.7,1c0.5,0.6,1.1,1.6,1.8,2.8c1.4,2.4,3,6,4,10.2c1,4.2,1.3,8.1,1.1,10.9
					c0,1.4-0.1,2.5-0.3,3.3C278.8,192.9,278.7,193.3,278.7,193.3z"/>
			</g>
		</g>
		<g>
			<g>
				<path class="st1" d="M299.3,176.5c0,0,0.1,0.5,0.1,1.4c0,0.4,0,1,0,1.6c0,0.6,0,1.4-0.1,2.2c-0.1,1.6-0.4,3.5-0.8,5.6
					c-0.5,2.1-1.1,4.3-2,6.6c-0.9,2.3-2,4.4-3.1,6.2c-1.1,1.8-2.2,3.4-3.3,4.6c-0.5,0.6-1,1.2-1.4,1.6c-0.4,0.5-0.8,0.9-1.1,1.2
					c-0.6,0.6-1,1-1,0.9c0,0,0.3-0.4,0.9-1.1c0.3-0.3,0.7-0.7,1.1-1.2c0.4-0.5,0.9-1,1.3-1.7c1-1.3,2-2.8,3.1-4.6
					c1.1-1.8,2.1-3.9,3-6.1c0.9-2.3,1.6-4.5,2.1-6.5c0.5-2,0.8-3.9,0.9-5.5c0.1-0.8,0.1-1.5,0.2-2.1c0.1-0.6,0.1-1.2,0.1-1.6
					C299.3,177,299.3,176.5,299.3,176.5z"/>
			</g>
		</g>
		<g>
			<g>
				<path class="st1" d="M274.2,138.2c0.1,0,0.1,0.8,0,2.1c-0.2,1.3-0.7,3.1-1.8,4.8c-1.1,1.7-2.4,3-3.5,3.7c-1.1,0.7-1.8,1-1.9,1
					c0-0.1,0.7-0.5,1.6-1.3c1-0.8,2.2-2,3.3-3.7c1-1.6,1.6-3.3,1.8-4.5C274.1,139,274.1,138.2,274.2,138.2z"/>
			</g>
		</g>
		<g>
			<g>
				<path class="st1" d="M293.7,148.8c0.1,0,0.2,0.8-0.1,2.1c-0.2,1.3-0.8,3-2,4.6c-1.2,1.6-2.7,2.6-3.9,3.1c-1.2,0.5-2,0.6-2,0.6
					c0-0.1,0.7-0.3,1.8-0.9c1.1-0.6,2.5-1.6,3.6-3.1c1.1-1.5,1.8-3.1,2.1-4.3C293.6,149.6,293.6,148.8,293.7,148.8z"/>
			</g>
		</g>
		<g>
			<g>
				<path class="st1" d="M300.7,157.4c0,0-0.3,0.7-1.1,1.6c-0.8,0.9-2.1,2-3.8,2.8c-1.7,0.8-3.4,1.1-4.6,1.2c-1.2,0.1-2-0.1-1.9-0.1
					c0-0.2,3,0.1,6.3-1.5C298.9,159.8,300.6,157.3,300.7,157.4z"/>
			</g>
		</g>
		<g>
			<g>
				<path class="st1" d="M254.5,146.7c-0.1,0.1-1.4-2-1.6-4.9c-0.2-2.9,0.9-5.1,1-5c0.2,0-0.7,2.2-0.5,5
					C253.5,144.6,254.6,146.6,254.5,146.7z"/>
			</g>
		</g>
		<g>
			<g>
				<path class="st7" d="M251.4,147.5c0,0-0.6-0.4-1.4-1.3c-0.8-0.9-1.7-2.3-2.3-3.9c-0.7-1.7-1-3.3-1.1-4.4c-0.1-1.2,0-1.9,0.1-1.9
					c0.2,0,0.2,2.9,1.5,6.1C249.5,145.3,251.5,147.4,251.4,147.5z"/>
			</g>
		</g>
		<g>
			<g>
				<path class="st1" d="M233.8,138.2c0.1,0,0.4,2.3-0.2,5.2c-0.6,2.8-1.9,4.8-2,4.8c-0.1-0.1,0.9-2.1,1.5-4.9
					C233.7,140.5,233.7,138.2,233.8,138.2z"/>
			</g>
		</g>
		<g>
			<g>
				<path class="st7" d="M218.8,152.3c0,0.1-0.5-0.1-1.1-0.5c-0.6-0.4-1.4-1.2-2-2.2c-0.6-1-0.9-2.1-1-2.8c-0.1-0.8,0-1.2,0.1-1.2
					c0.2,0,0.2,1.9,1.4,3.8C217.2,151.2,218.9,152.1,218.8,152.3z"/>
			</g>
		</g>
		<g>
			<g>
				<path class="st1" d="M226.6,113.7c0.1,0.1-1,1.2-2.3,3.4c-1.3,2.1-2.7,5.4-3.2,9.2c-0.4,3.8,0.2,7.3,1,9.7
					c0.8,2.4,1.6,3.8,1.5,3.8c0,0-0.3-0.3-0.6-0.9c-0.4-0.6-0.8-1.6-1.2-2.8c-0.9-2.4-1.6-5.9-1.1-9.9c0.5-3.9,2-7.2,3.4-9.3
					c0.7-1.1,1.4-1.9,1.8-2.4C226.3,113.9,226.6,113.6,226.6,113.7z"/>
			</g>
		</g>
		<g>
			<g>
				<path class="st7" d="M206.5,124.9c0.1,0-0.2,1.3-0.2,3.3c0,2,0.4,4.9,1.8,7.7c1.4,2.8,3.5,4.8,5.2,6c1.7,1.2,2.9,1.7,2.8,1.8
					c0,0-0.3-0.1-0.9-0.3c-0.5-0.2-1.3-0.6-2.2-1.2c-1.8-1.1-4-3.2-5.4-6.1c-1.5-2.9-1.9-5.9-1.7-8c0-1.1,0.2-1.9,0.3-2.5
					C206.3,125.2,206.4,124.9,206.5,124.9z"/>
			</g>
		</g>
		<g>
			<g>
				<path class="st1" d="M245.1,118.8c0,0,0.2,0.2,0.4,0.7c0.2,0.4,0.4,1.1,0.6,2c0.4,1.7,0.7,4.2,0.2,6.8c-0.5,2.7-1.6,4.9-2.6,6.3
					c-0.5,0.7-1,1.3-1.3,1.6c-0.3,0.3-0.5,0.5-0.6,0.5c-0.1-0.1,0.7-0.9,1.6-2.3c0.9-1.5,1.9-3.6,2.4-6.2c0.5-2.6,0.3-5,0-6.6
					C245.4,119.9,245,118.9,245.1,118.8z"/>
			</g>
		</g>
		<g>
			<g>
				<path class="st7" d="M255.2,122.1c0.1,0,0.3,0.8,0.4,2.2c0.1,1.4-0.1,3.3-0.8,5.3c-0.7,2-1.8,3.6-2.7,4.7
					c-0.9,1-1.6,1.5-1.6,1.5c-0.1-0.1,0.5-0.7,1.4-1.7c0.8-1.1,1.8-2.7,2.5-4.6c0.7-1.9,0.9-3.8,0.9-5.1
					C255.2,123,255.1,122.1,255.2,122.1z"/>
			</g>
		</g>
		<g>
			<g>
				<path class="st1" d="M271.3,127.9c0.1,0,0.4,0.4,0.6,1.2c0.3,0.8,0.5,2,0.4,3.2c-0.1,1.3-0.5,2.4-1,3.1
					c-0.4,0.7-0.8,1.1-0.8,1.1c-0.1-0.1,1.1-1.8,1.3-4.2C272,129.8,271.1,127.9,271.3,127.9z"/>
			</g>
		</g>
		<g>
			<g>
				<path class="st1" d="M288.4,138.9c0.1,0.1-0.7,0.9-2,1.5c-1.3,0.6-2.4,0.6-2.4,0.5c0-0.1,1-0.4,2.2-0.9
					C287.4,139.4,288.3,138.8,288.4,138.9z"/>
			</g>
		</g>
		<g>
			<g>
				<path class="st7" d="M298.5,146.9c0.1-0.1,0.9,1.5,0.7,3.5c-0.1,2.1-1,3.5-1.1,3.4c-0.1-0.1,0.5-1.5,0.6-3.5
					C298.9,148.5,298.4,146.9,298.5,146.9z"/>
			</g>
		</g>
		<g>
			<g>
				<path class="st7" d="M282.8,115.7c0,0,0.2,0.2,0.4,0.6c0.2,0.4,0.6,1,0.9,1.8c0.6,1.6,1,4,0.6,6.6c-0.4,2.6-1.6,4.7-2.7,6
					c-0.5,0.7-1,1.1-1.4,1.4c-0.4,0.3-0.6,0.4-0.6,0.4c-0.1-0.1,0.7-0.7,1.7-2.1c1-1.3,2.1-3.4,2.5-5.9c0.4-2.5,0.1-4.8-0.4-6.4
					C283.2,116.6,282.7,115.7,282.8,115.7z"/>
			</g>
		</g>
		<g>
			<g>
				<path class="st1" d="M295.6,126.2c0.1,0,0,0.9-0.5,2.2c-0.5,1.3-1.5,3-3.1,4.4c-1.6,1.4-3.4,2.2-4.7,2.5
					c-1.3,0.3-2.2,0.3-2.2,0.2c0-0.1,0.8-0.2,2.1-0.6c1.3-0.4,2.9-1.2,4.5-2.5c1.5-1.3,2.5-2.9,3.1-4.1
					C295.3,127,295.5,126.1,295.6,126.2z"/>
			</g>
		</g>
		<g>
			<g>
				<path class="st7" d="M305,138.2c0.1,0,0,0.6-0.3,1.4c-0.3,0.9-0.9,2-1.9,2.9c-1,1-2.1,1.6-3,1.8c-0.9,0.3-1.4,0.3-1.4,0.2
					c-0.1-0.2,2.2-0.5,4.1-2.4C304.4,140.4,304.8,138.1,305,138.2z"/>
			</g>
		</g>
	</g>
	<g>
		<g>
			<g>
				<g>
					<g>
						<polygon class="st8" points="214.3,284.9 239.1,270.6 287.7,265.8 288.1,272.9 274.9,372.3 285.6,456.2 207.7,456.2 						"/>
					</g>
				</g>
			</g>
			<g>
				<g>
					<g>
						<g>
							<path class="st8" d="M237.3,280.8l-1.5-14.3c-0.3-2.5,1.6-4.8,4.1-5l45.4-4.1c1.2-0.1,2.3,0.8,2.3,2.1l0.5,17l-13.1,22.3
								l-13.5,4.3h-16.5l-9.5-10.1L237.3,280.8z"/>
						</g>
					</g>
				</g>
				<g>
					<g>
						<g>
							<g>
								<path class="st7" d="M281.4,271c0,0-0.7-0.1-1.8-0.2c-1.2-0.1-2.9-0.2-4.9-0.1c-2.1,0.1-4.6,0.5-7.3,1
									c-2.7,0.6-5.7,1.4-8.8,2.1c-3.1,0.8-6.1,1.4-8.9,1.6c-2.8,0.2-5.3,0-7.4-0.5c-2.1-0.5-3.6-1.3-4.6-1.9
									c-0.5-0.3-0.9-0.6-1.1-0.8c-0.2-0.2-0.4-0.3-0.3-0.3c0,0,0.5,0.4,1.6,0.9c1,0.6,2.6,1.3,4.6,1.7c2,0.5,4.5,0.6,7.3,0.4
									c2.7-0.2,5.7-0.9,8.8-1.6c3.1-0.8,6.1-1.5,8.8-2.1c2.7-0.6,5.2-0.9,7.4-0.9c2.1-0.1,3.8,0.1,5,0.3c0.6,0.1,1,0.2,1.3,0.3
									C281.2,270.9,281.4,271,281.4,271z"/>
							</g>
						</g>
					</g>
				</g>
				<g class="st11">
					<g>
						<g>
							<g>
								<path d="M238.3,273.2c-1.2,3.3-1.2,7.5,1.2,10c2,2.1,5.2,2.6,8.1,2c2.8-0.6,5.4-2.1,7.9-3.5c6.2-3.7,12.6-7.6,19.7-9.1
									c0.5-0.1,0.9-0.2,1.3-0.5s0.4-1,0-1.2c-0.2-0.1-0.4-0.1-0.6-0.2c-6.3-0.6-12.3,1.9-18.5,3.2c-6.2,1.4-13.2,2.8-18.9-0.5"/>
							</g>
						</g>
					</g>
				</g>
				<g>
					<g>
						<g>
							<g>
								<path class="st7" d="M247,261c0,0.1-0.9,0.3-1.6,1.5c-0.7,1.2-0.6,3.1-0.6,5.2c0.1,4.2,0.8,7.6,0.6,7.7
									c-0.1,0-0.3-0.8-0.6-2.2c-0.3-1.4-0.5-3.3-0.6-5.4c0-1.1,0-2.1,0.1-3c0.1-0.9,0.4-1.8,0.8-2.4c0.4-0.6,0.9-1,1.3-1.1
									C246.8,261,247,261,247,261z"/>
							</g>
						</g>
					</g>
				</g>
				<g>
					<g>
						<g>
							<g>
								<path class="st7" d="M259,273.4c-0.2,0,0.2-3.1-0.3-6.9c-0.5-3.8-1.8-6.7-1.6-6.7c0.1,0,0.5,0.7,0.9,1.8
									c0.5,1.2,1,2.9,1.2,4.8c0.3,1.9,0.3,3.7,0.1,5C259.3,272.7,259.1,273.4,259,273.4z"/>
							</g>
						</g>
					</g>
				</g>
				<g>
					<g>
						<g>
							<g>
								<path class="st7" d="M273.6,258.6c0.1,0,0.5,0.6,0.9,1.7c0.4,1.1,0.7,2.7,0.6,4.5c-0.1,1.8-0.7,3.4-1.2,4.4
									c-0.5,1-1,1.6-1.1,1.6c-0.2-0.1,1.5-2.5,1.7-6C274.8,261.3,273.4,258.6,273.6,258.6z"/>
							</g>
						</g>
					</g>
				</g>
			</g>
		</g>
		<g>
			<g>
				<path class="st8" d="M181.1,407.4c0,0,11-81,14.2-95.7c4.1-18.7,19-26.8,19-26.8l3.1,146.8L204,448.5l-14.9,5.7
					c-3.4,1.3-7.2,1.4-10.7,0.2l-14.4-5l-1.2-27.4l12.1-3.5L181.1,407.4z"/>
			</g>
		</g>
		<g>
			<g>
				<g>
					<g>
						<path class="st8" d="M330.6,283.5c11.2,4.3,19.4,14,22.1,25.7c8.6,37.8,23.3,88.1,23.5,104.3c0.3,20.7-8.7,34.8-20.5,37.4
							c-6.7,1.5-52.7,0.7-77.6,0.2c-9.2-0.2-16.9-7.1-18-16.3v0c-1.3-10,5.7-19.2,15.7-20.7l50.5-7.4l-9.4-52.4l9.3-72.6
							L330.6,283.5z"/>
					</g>
				</g>
			</g>
			<g>
				<g>
					<path class="st8" d="M286.8,267.3l20.2,8.3l19.2,6.2l0.5,57.6l-11.4,116.7l-40.1,0.2l0.1-52.1c-1.5-25.1,0.1-50.3,4.9-75
						l6.1-49.5"/>
				</g>
			</g>
			<g>
				<g>
					<g>
						<g>
							<path class="st8" d="M316.4,349.1c0,0,0.1,0.2,0.1,0.6c0.1,0.4,0.2,1,0.3,1.7c0.3,1.5,0.7,3.6,1.1,6.2
								c0.9,5.3,2.2,12.5,3.6,20.5c1.3,8,2.5,15.2,3.4,20.5c0.4,2.6,0.7,4.7,1,6.2c0.1,0.7,0.2,1.2,0.2,1.7c0,0.4,0.1,0.6,0,0.6
								c0,0-0.1-0.2-0.2-0.6c-0.1-0.4-0.2-1-0.3-1.7c-0.3-1.5-0.7-3.6-1.1-6.2c-0.9-5.2-2.2-12.5-3.6-20.5c-1.4-8-2.6-15.2-3.4-20.5
								c-0.4-2.6-0.7-4.7-1-6.2c-0.1-0.7-0.2-1.2-0.2-1.7C316.4,349.3,316.4,349.1,316.4,349.1z"/>
						</g>
					</g>
				</g>
			</g>
			<g>
				<g>
					<g>
						<g>
							<path class="st8" d="M335.3,291.7c0,0-0.5,0.2-1.5,0.6c-1,0.4-2.4,0.9-4.1,1.8c-3.4,1.7-7.7,4.8-11.1,9.5
								c-0.9,1.2-1.6,2.4-2.2,3.6c-0.6,1.2-1,2.5-1.3,3.7c-0.7,2.4-0.9,4.7-1.1,6.5c-0.2,1.9-0.2,3.4-0.2,4.5c0,1.1,0,1.6,0,1.7
								c0,0-0.1-0.6-0.2-1.6c-0.1-1.1-0.1-2.6,0-4.5c0.1-1.9,0.4-4.2,1-6.6c0.3-1.2,0.8-2.5,1.3-3.8c0.6-1.3,1.4-2.5,2.2-3.7
								c3.5-4.8,8-7.9,11.4-9.5c1.7-0.8,3.2-1.3,4.2-1.6C334.7,291.8,335.3,291.7,335.3,291.7z"/>
						</g>
					</g>
				</g>
			</g>
		</g>
		<g>
			<g>
				<g>
					<path class="st8" d="M274.6,414.5c0,0,0.2,0,0.7,0c0.5-0.1,1.2-0.1,2-0.3c1.8-0.3,4.3-0.6,7.4-1c6.3-0.9,14.8-2.2,24.3-3.6
						c6.5-1,12.6-1.9,17.7-2.7l-0.1,0c2.5,0.4,4.6,1.4,6.1,2.7c1.6,1.3,2.6,2.7,3.4,4c1.4,2.6,1.4,4.4,1.5,4.3c0,0,0-0.1,0-0.3
						c0-0.2,0-0.5-0.1-0.9c-0.1-0.8-0.4-1.9-1.1-3.3c-0.7-1.3-1.7-2.8-3.4-4.2c-1.6-1.3-3.8-2.5-6.3-2.9l0,0l0,0
						c-5.1,0.8-11.2,1.7-17.7,2.6c-9.5,1.5-18,2.8-24.3,3.8c-3.1,0.5-5.5,0.9-7.4,1.2c-0.8,0.1-1.5,0.3-2,0.4
						C274.9,414.4,274.6,414.4,274.6,414.5z"/>
				</g>
			</g>
		</g>
		<g>
			<g>
				<g>
					<path class="st8" d="M278.7,451.2c0,0,0.2,0,0.5-0.2c0.3-0.1,0.8-0.3,1.3-0.6c1.1-0.6,2.7-1.6,4.2-3.3c1.5-1.7,2.9-4.1,3.8-6.9
						c0.9-2.9,1.2-6.2,0.7-9.7c-0.5-3.5-2.1-6.5-4-8.8c-1.9-2.3-4.1-4-6.1-5c-2-1-3.8-1.6-5-1.8c-0.6-0.1-1.1-0.1-1.4-0.2
						c-0.3,0-0.5,0-0.5,0c0,0.2,2.9,0.2,6.8,2.3c1.9,1.1,4.1,2.7,5.9,5c1.8,2.3,3.3,5.2,3.8,8.6c0.5,3.3,0.2,6.6-0.7,9.4
						c-0.9,2.8-2.2,5.2-3.6,6.8c-1.4,1.7-2.9,2.8-4,3.4C279.3,450.9,278.7,451.1,278.7,451.2z"/>
				</g>
			</g>
		</g>
		<g class="st12">
			<g>
				<polygon points="317.1,352.8 309.6,409.1 319.1,407 322.1,382.4 				"/>
			</g>
		</g>
		<g class="st11">
			<g>
				<g>
					<path d="M162.9,422.1c4-0.8,9.8-0.9,13.7,0c4,0.9,7.2,3.4,9.2,7c1.8,3.3,2.3,7.1,1.6,10.8c-0.7,3.2-1.3,6.5-3.6,8.7
						c-3.4,3.3-6.8,4.4-11.2,3.6l-8.6-2.8L162.9,422.1z"/>
				</g>
			</g>
		</g>
		<g>
			<g>
				<g>
					<path class="st8" d="M170.3,451.6c0,0,0.2,0.1,0.6,0.2c0.4,0.1,0.9,0.3,1.7,0.5c1.5,0.3,3.8,0.5,6.5-0.4
						c1.3-0.4,2.7-1.1,3.9-2.2c1.2-1.1,2.3-2.5,3.1-4.1c0.8-1.6,1.4-3.5,1.8-5.4c0.3-1.9,0.6-4,0.1-6.1c-0.4-2.1-1.3-4-2.3-5.7
						c-1-1.7-2.3-3.2-3.8-4.2c-1.5-1.1-3.1-1.7-4.7-2.1c-1.6-0.4-3.1-0.5-4.5-0.5c-2.7,0-4.9,0.2-6.5,0.4c-0.7,0.1-1.3,0.2-1.7,0.3
						c-0.4,0.1-0.6,0.1-0.6,0.1c0,0,0.2,0,0.6,0c0.5,0,1-0.1,1.7-0.1c1.5-0.1,3.7-0.3,6.4-0.2c1.4,0.1,2.8,0.2,4.4,0.6
						c1.5,0.4,3.1,1,4.5,2.1c2.9,2,5,5.7,5.9,9.6c0.4,2,0.2,4-0.1,5.9c-0.3,1.9-0.9,3.7-1.7,5.3c-0.8,1.6-1.8,3-3,4
						c-1.2,1.1-2.5,1.8-3.7,2.2c-2.6,0.9-4.8,0.7-6.3,0.5C171.1,451.9,170.3,451.6,170.3,451.6z"/>
				</g>
			</g>
		</g>
		<g class="st11">
			<g>
				<g>
					<path d="M273.4,414.8c4,1.1,8.3,2.3,11,5.5c1.9,2.1,3.7,5.9,4.2,8.7c1.1,6,0.3,10.7-2.9,16c-1,1.7-3.2,4.2-4.9,5.1
						c-2,1.1-4.4,1.3-6.6,0.9c-6-1-11.1-5.8-12.9-11.7c-1.8-5.9-0.8-13.3,2.6-18.4C265.4,418.4,270.6,415.7,273.4,414.8"/>
				</g>
			</g>
		</g>
		<g>
			<g>
				<path class="st7" d="M346.7,428.7c0,0-0.2-0.4-0.4-1.2c-0.2-0.8-0.6-1.9-1.1-3.3c-1-2.7-2.5-6.5-5.2-10.1
					c-2.7-3.5-6.2-5.8-9-6.7c-2.8-1-4.6-0.9-4.6-1c0,0,0.5-0.1,1.3,0c0.8,0,2,0.2,3.4,0.7c2.8,0.9,6.5,3.1,9.3,6.7
					c2.8,3.6,4.3,7.5,5.2,10.3c0.4,1.4,0.8,2.6,0.9,3.4C346.7,428.3,346.7,428.7,346.7,428.7z"/>
			</g>
		</g>
		<g>
			<g>
				<path class="st7" d="M312,325.3c0,0,0.1,0.3,0.2,0.8c0.1,0.6,0.3,1.4,0.5,2.3c0.5,2,1.1,5,1.9,8.6c1.5,7.3,3.5,17.4,5.5,28.6
					c1.9,11.2,3.5,21.4,4.5,28.7c0.5,3.7,0.9,6.7,1.1,8.7c0.1,1,0.2,1.8,0.3,2.4c0.1,0.5,0.1,0.8,0.1,0.8c0,0-0.1-0.3-0.2-0.8
					c-0.1-0.6-0.2-1.4-0.4-2.4c-0.3-2.1-0.8-5.1-1.3-8.7c-1.1-7.4-2.7-17.5-4.6-28.7c-2-11.2-3.9-21.3-5.3-28.6
					c-0.7-3.6-1.3-6.6-1.7-8.6c-0.2-1-0.3-1.8-0.5-2.4C312,325.6,311.9,325.3,312,325.3z"/>
			</g>
		</g>
		<g>
			<g>
				<path class="st7" d="M329.1,284.8c0,0.1-1.1,0.7-2.8,1.9c-1.7,1.2-3.9,3.1-6,5.5c-2.1,2.4-3.6,5-4.5,6.8
					c-0.9,1.9-1.4,3.1-1.5,3.1c0,0,0-0.3,0.2-0.9c0.2-0.6,0.5-1.4,0.9-2.4c0.9-1.9,2.3-4.5,4.4-7c2.1-2.5,4.4-4.4,6.2-5.5
					c0.9-0.6,1.6-1,2.2-1.3C328.8,284.9,329.1,284.8,329.1,284.8z"/>
			</g>
		</g>
		<g>
			<g>
				<path class="st7" d="M208.6,418.4c0,0,0-0.1,0-0.3c0-0.2,0-0.4,0-0.7c0-0.7,0-1.6,0-2.9c0-2.5-0.1-6.1-0.3-10.5
					c-0.1-2.2-0.4-4.6-0.8-7.2c-0.4-2.6-1-5.3-1.7-8.1c-1.4-5.7-3.4-11.9-3.8-18.7c-0.4-6.8,0.9-13.3,2.4-18.9
					c1.5-5.7,3.2-10.7,4.4-15c1.2-4.3,2-7.8,2.4-10.2c0.2-1.2,0.3-2.2,0.4-2.8c0-0.3,0.1-0.5,0.1-0.7c0-0.2,0-0.2,0.1-0.2
					c0,0,0,0.1,0,0.3c0,0.2,0,0.4-0.1,0.7c-0.1,0.6-0.1,1.6-0.3,2.8c-0.3,2.5-1.1,6-2.3,10.3c-1.2,4.3-2.8,9.3-4.3,15
					c-1.5,5.6-2.8,12-2.4,18.8c0.4,6.7,2.4,12.9,3.8,18.6c0.7,2.9,1.3,5.6,1.7,8.2c0.4,2.6,0.6,5,0.7,7.2c0.2,4.4,0.2,8,0.2,10.5
					c0,1.2,0,2.2,0,2.9c0,0.3,0,0.5,0,0.7C208.6,418.4,208.6,418.4,208.6,418.4z"/>
			</g>
		</g>
		<g>
			<g>
				<path class="st1" d="M312.6,302.6c0,0-0.1,0-0.3-0.1c-0.2-0.1-0.5-0.2-0.9-0.3c-0.8-0.2-2-0.5-3.6-0.7
					c-3.1-0.4-7.8-0.1-13.1,1.8c-2.7,0.9-5.4,2.3-8.3,3.9c-2.9,1.6-5.8,3.6-9,5.6c-3.2,2-6.5,4.1-10.2,5.8c-3.7,1.7-7.8,3-12.2,3.3
					c-4.4,0.3-8.6-0.7-12.4-2.4c-3.7-1.7-7.1-3.8-10.2-5.9c-3.1-2.1-6-4.1-8.9-5.7c-2.9-1.6-5.7-2.8-8.5-3.5
					c-2.7-0.6-5.3-0.7-7.5-0.5c-2.2,0.3-4.1,0.8-5.5,1.5c-2.8,1.4-3.9,2.9-4,2.8c0,0,0.1-0.1,0.2-0.2c0.1-0.2,0.4-0.4,0.7-0.7
					c0.6-0.5,1.6-1.3,3-2c1.4-0.7,3.3-1.3,5.5-1.6c2.2-0.3,4.9-0.2,7.6,0.4c2.8,0.6,5.7,1.8,8.6,3.4c2.9,1.6,5.9,3.6,9,5.7
					c3.1,2.1,6.4,4.2,10.1,5.8c3.7,1.6,7.8,2.6,12.1,2.3c4.3-0.3,8.3-1.6,12-3.3c3.7-1.7,7-3.7,10.2-5.7c3.2-2,6.1-3.9,9-5.6
					c2.9-1.6,5.7-3,8.4-3.9c5.4-1.9,10.1-2.1,13.2-1.6c1.6,0.2,2.8,0.5,3.6,0.8c0.4,0.1,0.7,0.2,0.9,0.3
					C312.5,302.5,312.6,302.6,312.6,302.6z"/>
			</g>
		</g>
		<g>
			<g>
				<path class="st1" d="M350.8,313.2c0,0-0.3,0.4-1,1.1c-0.3,0.4-0.7,0.8-1.3,1.2c-0.5,0.5-1.1,1-1.8,1.5c-0.7,0.5-1.5,1.1-2.4,1.6
					c-0.9,0.6-1.8,1.1-2.9,1.6c-2.1,1-4.5,1.9-7.1,2.5c-2.6,0.6-5.2,0.8-7.5,0.8c-1.2,0-2.3,0-3.3-0.2c-1-0.1-2-0.3-2.8-0.4
					c-0.9-0.1-1.6-0.4-2.3-0.6c-0.7-0.2-1.2-0.4-1.7-0.6c-0.9-0.3-1.4-0.6-1.4-0.6c0-0.1,2,0.7,5.4,1.3c0.9,0.1,1.8,0.3,2.8,0.4
					c1,0.1,2.1,0.1,3.2,0.1c2.3,0,4.8-0.3,7.4-0.9c2.6-0.6,4.9-1.5,7-2.4c1-0.5,2-1,2.9-1.5c0.9-0.5,1.7-1,2.4-1.5
					C349.3,314.8,350.8,313.1,350.8,313.2z"/>
			</g>
		</g>
		<g>
			<g>
				<path class="st1" d="M208.1,332.3c0,0.1-0.9,0.2-2.4,0.1c-1.5-0.1-3.5-0.4-5.6-1.1c-2.1-0.7-3.9-1.7-5.1-2.5
					c-1.2-0.8-1.9-1.4-1.8-1.5c0.1-0.1,3,2.1,7.1,3.5C204.5,332.2,208.1,332.1,208.1,332.3z"/>
			</g>
		</g>
		<g>
			<g>
				<path class="st1" d="M314.2,338.6c0,0.1-1.1-1-3.6-2.2c-2.4-1.2-6.3-2.2-11.2-2c-4.9,0.1-10.5,1.3-16.7,3
					c-6.2,1.6-13,3.7-20.3,5.1c-3.7,0.7-7.3,1.1-10.8,1.2c-3.5,0.1-6.9-0.1-10.1-0.5c-6.4-0.8-12-2.3-16.7-3.6
					c-4.7-1.4-8.4-2.7-11-3.6c-1.3-0.4-2.2-0.8-2.9-1.1c-0.3-0.1-0.6-0.2-0.8-0.3c-0.2-0.1-0.3-0.1-0.3-0.1c0,0,0.1,0,0.3,0.1
					c0.2,0.1,0.5,0.1,0.8,0.2c0.7,0.2,1.7,0.6,3,1c2.6,0.8,6.3,2.1,11,3.4c4.7,1.3,10.3,2.7,16.7,3.5c3.2,0.4,6.6,0.6,10,0.4
					c3.5-0.1,7.1-0.6,10.7-1.2c7.3-1.4,14.1-3.4,20.3-5c6.2-1.6,11.9-2.9,16.8-2.9c4.9-0.1,8.8,0.9,11.3,2.2
					c0.3,0.2,0.6,0.3,0.9,0.4c0.3,0.2,0.5,0.3,0.7,0.5c0.4,0.3,0.8,0.5,1.1,0.8c0.3,0.2,0.5,0.4,0.6,0.5
					C314.1,338.5,314.2,338.5,314.2,338.6z"/>
			</g>
		</g>
	</g>
	<g>
		<g>
			<g>
				<g>
					<g>
						<path class="st9" d="M136.9,450.7c0,0,10.4,1.5,14.4,3.2c4.3,1.8,9.7,0.7,13.3-1.6c3.6-2.4,5.8-4.5,5.8-4.5l13.4,0.1
							c0,0,6.6-6.5,3-16.5c-0.6-1.7-1.3-3.1-3-5.3c-1.6-1.7-4-3.2-8.3-4l-15.9,3.1c0,0-20.2-0.3-28.4-0.7c-2-0.1-3.9,0.4-5.5,1.5
							c-1.9,1.3-4.1,3-3.9,4.1c0.1,0.8-1.2,6,2.7,9.3c0,0-3.5,2.7-1.7,5.2l0.9,1.1c0,0-2.4,3-1.2,4.3c1.2,1.3,11.6,7.7,15.4,6.3
							C141.6,455,138.5,451.4,136.9,450.7"/>
					</g>
				</g>
			</g>
		</g>
		<g>
			<g>
				<g>
					<path class="st10" d="M127.2,434c0,0,0.5,0.2,1.3,0.5c0.8,0.3,2,0.8,3.5,1.3c0.7,0.3,1.6,0.5,2.5,0.8c0.9,0.3,1.9,0.5,2.9,0.8
						c1,0.4,2.1,0.9,2.8,1.8c0.7,0.9,1.2,2.3,0.7,3.5c-0.3,0.6-0.8,1.1-1.3,1.4c-0.6,0.3-1.2,0.4-1.8,0.5c-1.2,0.1-2.3-0.1-3.3-0.2
						c-2.1-0.4-3.9-1-5.4-1.5c-1.5-0.6-2.7-1.1-3.5-1.5c-0.8-0.4-1.2-0.6-1.2-0.6c0,0,0.5,0.1,1.3,0.5c0.8,0.3,2,0.8,3.5,1.3
						c1.5,0.5,3.3,1.1,5.4,1.4c1,0.1,2.1,0.3,3.2,0.2c0.6,0,1.1-0.2,1.6-0.4c0.5-0.3,0.9-0.6,1.1-1.2c0.4-1,0-2.3-0.6-3.1
						c-0.7-0.8-1.7-1.3-2.6-1.7c-1-0.4-1.9-0.6-2.8-0.9c-0.9-0.3-1.7-0.6-2.5-0.8c-1.5-0.6-2.7-1.1-3.5-1.5
						C127.6,434.3,127.2,434,127.2,434z"/>
				</g>
			</g>
		</g>
		<g>
			<g>
				<g>
					<path class="st10" d="M128.3,426.4c0,0,0.5,0.2,1.3,0.5c0.8,0.3,2,0.8,3.5,1.3c1.5,0.5,3.3,1.1,5.3,1.6c1,0.3,2.1,0.5,3.1,1.3
						c0.5,0.4,0.8,1,0.9,1.6c0.1,0.6,0,1.3-0.3,1.9c-0.6,1.2-1.7,1.9-2.8,2.3c-1.1,0.4-2.3,0.4-3.3,0.2c-2.1-0.4-3.8-1.2-5.3-1.7
						c-1.4-0.5-2.6-1-3.5-1.3c-0.8-0.3-1.3-0.5-1.3-0.5c0,0,0.5,0.1,1.3,0.4c0.9,0.3,2.1,0.7,3.6,1.2c1.5,0.5,3.3,1.2,5.3,1.6
						c1,0.2,2.1,0.1,3.2-0.2c1-0.3,2-1,2.5-2.1c0.5-1,0.4-2.3-0.5-3c-0.8-0.7-1.9-1-2.9-1.2c-2-0.6-3.8-1.2-5.3-1.7
						c-1.5-0.6-2.7-1.1-3.5-1.5C128.7,426.7,128.3,426.5,128.3,426.4z"/>
				</g>
			</g>
		</g>
		<g>
			<g>
				<g>
					<path class="st9" d="M170.3,429.8L161,426c0,0-25.7-12.6-26.1-12c-0.5,0.6-1.9,0.5-1.6,3.7c0.2,3.2,15.2,9.9,15.7,11
						c0.5,1.1-0.5,6.6,5,10.7c5.5,4.1,9.5,4.3,9.5,4.3"/>
				</g>
			</g>
			<g>
				<g>
					<g>
						<path class="st10" d="M163.5,443.6c0,0-0.1,0-0.2,0c-0.1,0-0.4,0-0.6-0.1c-0.6-0.1-1.4-0.3-2.4-0.6c-1-0.4-2.2-0.9-3.6-1.7
							c-1.3-0.8-2.8-1.7-4.2-3.1c-1.4-1.4-2.5-3.3-3.1-5.5c-0.3-1.1-0.4-2.3-0.5-3.5c0-0.1,0-0.3-0.1-0.4c0-0.1-0.1-0.2-0.2-0.3
							c-0.2-0.2-0.5-0.3-0.7-0.5c-0.5-0.3-1.1-0.6-1.6-0.9c-2.2-1.2-4.6-2.5-7-3.9c-1.2-0.7-2.4-1.5-3.6-2.3
							c-0.6-0.4-1.1-0.9-1.7-1.4c-0.3-0.3-0.5-0.6-0.7-0.9c-0.1-0.2-0.2-0.4-0.2-0.6c0-0.2,0-0.4,0-0.6c0-0.7,0-1.5,0.4-2.2
							c0.2-0.4,0.5-0.6,0.8-0.8c0.1-0.1,0.3-0.2,0.4-0.3c0,0,0,0,0.1-0.1c0.1-0.1,0.1,0,0.2-0.1c0.1,0,0.1,0,0.2,0
							c0.1,0,0.2,0,0.3,0.1c1.4,0.5,2.7,1.1,3.9,1.6c2.5,1.1,5,2.3,7.3,3.4c4.6,2.2,8.7,4.2,12.2,5.9c0.9,0.4,1.7,0.9,2.5,1.2
							c0.8,0.3,1.6,0.6,2.3,0.9c1.4,0.6,2.6,1.1,3.6,1.5c1,0.4,1.7,0.7,2.3,1c0.2,0.1,0.4,0.2,0.6,0.3c0.1,0.1,0.2,0.1,0.2,0.1
							c0,0-0.1,0-0.2-0.1c-0.2-0.1-0.4-0.1-0.6-0.2c-0.6-0.2-1.3-0.5-2.3-0.9c-1-0.4-2.2-0.9-3.7-1.5c-0.7-0.3-1.5-0.6-2.3-0.9
							c-0.8-0.4-1.6-0.8-2.5-1.2c-3.5-1.7-7.6-3.6-12.2-5.8c-2.3-1.1-4.7-2.2-7.3-3.3c-1.3-0.6-2.6-1.1-3.9-1.6
							c-0.1,0-0.2,0-0.2-0.1c0,0-0.1,0-0.1,0c0,0,0,0,0,0c0-0.1,0-0.1,0-0.1c0,0,0,0,0,0c0.3,0.2,0.1,0.1,0.1,0.1l0,0
							c-0.1,0.2-0.3,0.3-0.5,0.4c-0.3,0.2-0.6,0.4-0.7,0.7c-0.3,0.6-0.4,1.3-0.4,2c0,0.4,0,0.7,0.2,1c0.2,0.3,0.4,0.6,0.6,0.8
							c0.5,0.5,1,1,1.6,1.4c1.1,0.9,2.3,1.6,3.5,2.3c2.4,1.4,4.7,2.7,7,4c0.6,0.3,1.1,0.6,1.6,1c0.3,0.2,0.5,0.3,0.8,0.5
							c0.1,0.1,0.3,0.2,0.4,0.4c0.1,0.2,0.1,0.3,0.1,0.5c0.1,1.2,0.2,2.4,0.5,3.5c0.5,2.2,1.6,4.1,2.9,5.4c1.4,1.3,2.8,2.3,4.1,3.1
							c1.3,0.8,2.5,1.3,3.5,1.7c1,0.4,1.8,0.6,2.4,0.7c0.3,0.1,0.5,0.1,0.6,0.1C163.4,443.6,163.5,443.6,163.5,443.6z"/>
					</g>
				</g>
			</g>
		</g>
		<g>
			<g>
				<g>
					<path class="st10" d="M134.9,444.3c0,0,0.4,0.1,1,0.3c0.6,0.3,1.5,0.7,2.4,1.5c0.5,0.4,0.9,0.8,1.4,1.4
						c0.4,0.6,0.8,1.3,0.7,2.2c-0.1,0.9-0.9,1.6-1.8,1.8c-0.9,0.3-1.8,0.1-2.7-0.1c-3.5-1.1-6.4-2.5-8.5-3.6c-1-0.6-1.8-1.1-2.4-1.5
						c-0.5-0.4-0.8-0.6-0.8-0.6c0,0,0.3,0.2,0.9,0.5c0.6,0.3,1.4,0.8,2.4,1.4c2.1,1.1,5.1,2.4,8.5,3.5c0.8,0.3,1.7,0.4,2.5,0.2
						c0.8-0.2,1.4-0.8,1.5-1.5c0.1-0.7-0.2-1.4-0.6-1.9c-0.4-0.5-0.9-1-1.3-1.4C136.3,444.7,134.8,444.3,134.9,444.3z"/>
				</g>
			</g>
		</g>
	</g>
	<g>
		<g>
			<g>
				<g>
					<path class="st9" d="M281.9,418.7l-16.5,0.3c0,0-24.7-8.9-29.8-8.1c-4.6,0.8-21.3,11.9-24.6,14.1c-0.4,0.2-0.6,0.6-0.8,1l0,0
						c-0.7,1.8,0.2,3.8,2,4.6l0.3,0.1l-0.2,0.5c-0.2,0.6-0.3,1.3-0.3,2c0.1,2.4,3.3,3.1,4.5,1l-0.6,1.1c-0.3,0.5-0.4,1-0.3,1.5
						l0.1,1c0.1,1.1,0.8,2.1,1.9,2.5l0,0c1,0.3,2.2,0,2.9-0.8c2.1-2.3,6.7-7,9.8-7.5c2.8-0.5,7.4-0.5,10.1-0.5
						c1.4,0,2.7,0.9,3.2,2.2l0,0c-1.8,0.1-14.7,6.8-19.2,9.2c-1.4,0.7-2.5,2.1-2.6,3.7c-0.2,1.4,0.6,2.9,3.4,2.3
						c6-1.4,16.9-6.4,16.9-6.4s5.6-1.6,9.2,1c5.1,3.6,7.4,4.9,11.8,3.5c4.4-1.5,7.6-3.5,7.6-3.5l14.9,1.5
						C285.7,444.9,294.9,430,281.9,418.7z"/>
				</g>
			</g>
		</g>
		<g>
			<g>
				<g>
					<g>
						<path class="st10" d="M243.8,423.2c0,0.1-1.8-0.5-4.6-0.6c-2.9-0.2-6.9,0.1-11,1.9c-4.1,1.7-7.1,4.4-9,6.7
							c-1.9,2.2-2.7,3.8-2.7,3.8c0,0,0.2-0.4,0.5-1.1c0.4-0.7,1-1.7,1.9-2.9c1.8-2.3,4.9-5.1,9-6.9c4.1-1.8,8.3-2.1,11.2-1.8
							c1.5,0.1,2.6,0.4,3.4,0.6C243.4,423,243.8,423.2,243.8,423.2z"/>
					</g>
				</g>
			</g>
		</g>
		<g>
			<g>
				<g>
					<g>
						<path class="st10" d="M241.2,417.2c0,0.1-1.8-0.7-4.8-0.8c-3-0.1-7.3,0.8-11.2,3.2c-4,2.4-6.9,5.5-9.1,7.7
							c-1,1.1-1.8,2-2.5,2.6c-0.6,0.6-0.9,1-0.9,0.9c0,0,0.3-0.4,0.8-1.1c0.5-0.7,1.3-1.6,2.4-2.7c2.1-2.3,5-5.4,9.1-7.8
							c4-2.5,8.4-3.3,11.5-3.1c1.5,0.1,2.8,0.4,3.6,0.7c0.4,0.1,0.7,0.3,0.9,0.4C241.1,417.2,241.2,417.2,241.2,417.2z"/>
					</g>
				</g>
			</g>
		</g>
	</g>
</g>
<g id="Speech_Bubble">
	<g>
		<g>
			<path class="st1" d="M172.4,180.6c-13.5-31.2-49.7-45.6-80.9-32.2c-31.2,13.5-45.6,49.7-32.2,80.9c13.5,31.2,49.7,45.6,80.9,32.2
				c11.6-5,20.8-13.1,27.2-22.9l0,0l23.8-0.4l-15.5-18.8C178.8,207,177.9,193.4,172.4,180.6z"/>
		</g>
		<g>
			<g>
				<g>
					<g>
						<g>
							<path class="st8" d="M91.4,148.2c0,0-0.3,0.1-1,0.4c-0.7,0.3-1.6,0.8-2.9,1.3c-0.6,0.3-1.3,0.6-2.1,1
								c-0.7,0.4-1.5,0.9-2.4,1.5c-0.9,0.5-1.8,1.1-2.8,1.7c-0.9,0.7-1.9,1.5-3,2.3c-4.1,3.2-8.9,7.7-13.1,14
								c-4.2,6.2-7.9,14.1-9.7,23.4c-1.7,9.3-1.4,19.9,2,30.6c1,2.6,1.8,5.3,3.2,7.9c0.7,1.3,1.2,2.6,2,3.9c0.8,1.2,1.5,2.5,2.3,3.8
								c3.4,4.9,7.3,9.6,12.2,13.5c4.9,3.9,10.4,7.3,16.5,9.8c6.1,2.4,12.7,3.9,19.5,4.3c6.8,0.4,13.8-0.2,20.6-2.3
								c1.7-0.4,3.4-1.1,5-1.7c1.7-0.6,3.3-1.2,4.9-2c3.2-1.5,6.3-3.4,9.3-5.5c6.4-4.5,11.8-10.3,16-16.6l-0.6,0.3
								c7.9-0.2,15.7-0.4,23.3-0.6l1.4,0l-0.9-1.1c-5.2-6.4-10.2-12.7-15-18.8l0.1,0.6c2.4-9.8,2.3-19.8,0.1-28.9
								c-1.1-4.5-2.6-8.9-4.6-12.8c-1-2-1.9-4-3.1-5.7c-0.6-0.9-1.1-1.8-1.7-2.7c-0.6-0.9-1.3-1.7-1.9-2.5
								c-10.3-13.3-24.3-20.4-36.2-22.8c-6-1.3-11.5-1.6-16.2-1.3c-1.2,0.1-2.3,0.1-3.4,0.2c-1.1,0.2-2.1,0.3-3.1,0.5
								c-1,0.2-2,0.3-2.9,0.5c-0.9,0.2-1.7,0.5-2.5,0.7c-1.6,0.5-3,0.8-4.2,1.2c-1.2,0.5-2.1,0.8-3,1.2c-0.7,0.3-1.3,0.5-1.8,0.7
								C91.6,148.1,91.4,148.2,91.4,148.2c0,0,0.2,0,0.6-0.2c0.5-0.2,1.1-0.4,1.8-0.6c0.8-0.3,1.8-0.6,3-1.1
								c1.2-0.4,2.6-0.7,4.2-1.1c6.3-1.5,16.1-2.9,27.9-0.2c11.7,2.5,25.4,9.6,35.4,22.7c0.6,0.8,1.3,1.6,1.9,2.5
								c0.5,0.9,1.1,1.8,1.7,2.7c1.2,1.8,2.1,3.7,3.1,5.6c2,3.9,3.4,8.1,4.5,12.6c2.1,8.9,2.1,18.7-0.2,28.3l-0.1,0.3l0.2,0.3
								c4.8,6.1,9.8,12.3,15,18.8l0.5-1.1c-7.6,0.2-15.4,0.4-23.3,0.6l-0.4,0l-0.2,0.3c-4.1,6.2-9.4,11.8-15.6,16.3
								c-2.9,2-5.9,3.8-9.1,5.3c-1.6,0.8-3.2,1.4-4.8,2c-1.6,0.6-3.2,1.3-4.9,1.6c-6.6,2-13.5,2.7-20.1,2.2
								c-6.7-0.4-13.1-1.9-19.1-4.2c-6-2.4-11.4-5.7-16.2-9.5c-4.8-3.8-8.7-8.5-12-13.2c-0.8-1.2-1.5-2.5-2.3-3.7
								c-0.8-1.2-1.3-2.5-2-3.8c-1.4-2.5-2.2-5.2-3.2-7.7c-3.4-10.4-3.7-20.9-2.1-30c1.7-9.2,5.3-17,9.3-23.1
								c4-6.2,8.7-10.7,12.8-14c1-0.8,2-1.6,2.9-2.3c1-0.6,1.9-1.2,2.7-1.8c0.8-0.5,1.6-1,2.3-1.5c0.7-0.4,1.4-0.7,2-1.1
								c1.2-0.6,2.1-1.1,2.8-1.4C91.1,148.4,91.4,148.3,91.4,148.2z"/>
						</g>
					</g>
				</g>
			</g>
		</g>
		<g>
			<g>
				<g>
					<g>
						<g>
							<path class="st0" d="M133.4,236.4l3.6,0c2,0,3.6-1.6,3.6-3.6l-0.1-54.4c0-2-1.6-3.6-3.6-3.6l-3.6,0c-2,0-3.6,1.6-3.6,3.6
								l0.1,54.4C129.8,234.8,131.4,236.4,133.4,236.4z"/>
						</g>
					</g>
					<g>
						<g>
							<path class="st0" d="M115.8,236.5l3.6,0c2,0,3.6-1.6,3.6-3.6l-0.1-54.4c0-2-1.6-3.6-3.6-3.6l-3.6,0c-2,0-3.6,1.6-3.6,3.6
								l0.1,54.4C112.2,234.9,113.8,236.5,115.8,236.5z"/>
						</g>
					</g>
					<g>
						<g>
							<path class="st0" d="M95.9,236.5l3.6,0c2,0,3.6-1.6,3.6-3.6l-0.1-54.4c0-2-1.6-3.6-3.6-3.6l-3.6,0c-2,0-3.6,1.6-3.6,3.6
								l0.1,54.4C92.3,234.9,93.9,236.5,95.9,236.5z"/>
						</g>
					</g>
					<g>
						<g>
							<g>
								<path class="st8" d="M135.1,236.4c0,0-0.5,0-1.3-0.2c-0.8-0.2-2.1-0.9-3-2.3c-0.4-0.7-0.7-1.6-0.7-2.6c0-1,0-2.2,0-3.4
									c0-2.4,0-5.2,0-8.3c0-6.2,0-13.5,0-21.6c0-4.1,0-8.3,0-12.7c0-1.1,0-2.2,0-3.3c0-1.1-0.1-2.3,0.2-3.3c0.6-2.1,2.7-3.6,5-3.4
									c2.2,0,4.3,1.6,4.8,3.7c0.3,1,0.1,2.2,0.2,3.3c0,1.1,0,2.2,0,3.3c0,4.4,0,8.7,0,12.7c0,8.1,0.1,15.4,0.1,21.6
									c0,3.1,0,5.8,0.1,8.3c0,1.2,0,2.4,0,3.4c0,1-0.4,1.9-0.9,2.6c-1,1.4-2.3,1.9-3.1,2.1C135.5,236.4,135.1,236.4,135.1,236.4
									c0,0,0.5,0.1,1.4,0c0.9-0.2,2.3-0.7,3.3-2.1c0.5-0.7,0.9-1.7,1-2.7c0-1.1,0-2.2,0-3.4c0-2.4,0-5.2,0-8.3
									c0-6.2,0-13.5,0-21.6c0-4.1,0-8.3,0-12.7c0-1.1,0-2.2,0-3.3c0-0.6,0-1.1,0-1.7c0-0.5,0-1.2-0.2-1.8
									c-0.5-2.4-2.9-4.2-5.4-4.2c-1.2-0.1-2.5,0.3-3.5,1c-1,0.7-1.8,1.8-2.1,2.9c-0.2,0.6-0.2,1.2-0.2,1.8c0,0.6,0,1.1,0,1.7
									c0,1.1,0,2.2,0,3.3c0,4.4,0,8.7,0,12.7c0,8.1,0.1,15.4,0.1,21.6c0,3.1,0,5.8,0.1,8.3c0,1.2,0,2.4,0,3.4c0,1.1,0.3,2,0.8,2.8
									c1,1.5,2.3,2.1,3.2,2.3C134.6,236.5,135.1,236.4,135.1,236.4z"/>
							</g>
						</g>
					</g>
					<g>
						<g>
							<g>
								<path class="st8" d="M117.4,236.5c0,0-0.5,0-1.3-0.2c-0.8-0.2-2.1-0.9-3-2.3c-0.4-0.7-0.7-1.6-0.7-2.6c0-1,0-2.2,0-3.4
									c0-2.4,0-5.2,0-8.3c0-6.2,0-13.5,0-21.6c0-4.1,0-8.3,0-12.7c0-1.1,0-2.2,0-3.3c0-1.1-0.1-2.3,0.2-3.3c0.6-2.1,2.7-3.6,5-3.4
									c2.2,0,4.3,1.6,4.8,3.7c0.3,1,0.1,2.2,0.2,3.3c0,1.1,0,2.2,0,3.3c0,4.4,0,8.7,0,12.7c0,8.1,0.1,15.4,0.1,21.6
									c0,3.1,0,5.8,0.1,8.3c0,1.2,0,2.4,0,3.4c0,1-0.4,1.9-0.9,2.6c-1,1.4-2.3,1.9-3.1,2.1C117.9,236.5,117.4,236.4,117.4,236.5
									c0,0,0.5,0.1,1.4,0c0.9-0.2,2.3-0.7,3.3-2.1c0.5-0.7,0.9-1.7,1-2.7c0-1.1,0-2.2,0-3.4c0-2.4,0-5.2,0-8.3
									c0-6.2,0-13.5,0-21.6c0-4.1,0-8.3,0-12.7c0-1.1,0-2.2,0-3.3c0-0.6,0-1.1,0-1.7c0-0.5,0-1.2-0.2-1.8
									c-0.5-2.4-2.9-4.2-5.4-4.2c-1.2-0.1-2.5,0.3-3.5,1c-1,0.7-1.8,1.8-2.1,2.9c-0.2,0.6-0.2,1.2-0.2,1.8c0,0.6,0,1.1,0,1.7
									c0,1.1,0,2.2,0,3.3c0,4.4,0,8.7,0,12.7c0,8.1,0.1,15.4,0.1,21.6c0,3.1,0,5.8,0.1,8.3c0,1.2,0,2.4,0,3.4c0,1.1,0.3,2,0.8,2.8
									c1,1.5,2.3,2.1,3.2,2.3C117,236.6,117.4,236.5,117.4,236.5z"/>
							</g>
						</g>
					</g>
					<g>
						<g>
							<g>
								<path class="st8" d="M97.5,236.5c0,0-0.5,0-1.3-0.2c-0.8-0.2-2.1-0.9-3-2.3c-0.4-0.7-0.7-1.6-0.7-2.6c0-1,0-2.2,0-3.4
									c0-2.4,0-5.2,0-8.3c0-6.2,0-13.5,0-21.6c0-4.1,0-8.3,0-12.7c0-1.1,0-2.2,0-3.3c0-1.1-0.1-2.3,0.2-3.3c0.6-2.1,2.7-3.6,5-3.4
									c2.2,0,4.3,1.6,4.8,3.7c0.3,1,0.1,2.2,0.2,3.3c0,1.1,0,2.2,0,3.3c0,4.4,0,8.7,0,12.7c0,8.1,0.1,15.4,0.1,21.6
									c0,3.1,0,5.8,0.1,8.3c0,1.2,0,2.4,0,3.4c0,1-0.4,1.9-0.9,2.6c-1,1.4-2.3,1.9-3.1,2.1C98,236.5,97.5,236.5,97.5,236.5
									c0,0,0.5,0.1,1.4,0c0.9-0.2,2.3-0.7,3.3-2.1c0.5-0.7,0.9-1.7,1-2.7c0-1.1,0-2.2,0-3.4c0-2.4,0-5.2,0-8.3
									c0-6.2,0-13.5,0-21.6c0-4.1,0-8.3,0-12.7c0-1.1,0-2.2,0-3.3c0-0.6,0-1.1,0-1.7c0-0.5,0-1.2-0.2-1.8
									c-0.5-2.4-2.9-4.2-5.4-4.2c-1.2-0.1-2.5,0.3-3.5,1c-1,0.7-1.8,1.8-2.1,2.9c-0.2,0.6-0.2,1.2-0.2,1.8c0,0.6,0,1.1,0,1.7
									c0,1.1,0,2.2,0,3.3c0,4.4,0,8.7,0,12.7c0,8.1,0.1,15.4,0.1,21.6c0,3.1,0,5.8,0.1,8.3c0,1.2,0,2.4,0,3.4c0,1.1,0.3,2,0.8,2.8
									c1,1.5,2.3,2.1,3.2,2.3C97,236.6,97.5,236.5,97.5,236.5z"/>
							</g>
						</g>
					</g>
				</g>
			</g>
			<g>
				<path class="st6" d="M125.1,187c0,4.2-3.4,7.6-7.5,7.6c-4.2,0-7.6-3.4-7.6-7.5c0-4.2,3.4-7.6,7.5-7.6
					C121.7,179.5,125,182.9,125.1,187z"/>
			</g>
			<g>
				<path class="st6" d="M105.2,205.7c0,4.2-3.4,7.6-7.5,7.6c-4.2,0-7.6-3.4-7.6-7.5c0-4.2,3.4-7.6,7.5-7.6
					C101.8,198.2,105.1,201.5,105.2,205.7z"/>
			</g>
			<g>
				
					<ellipse transform="matrix(0.3675 -0.93 0.93 0.3675 -116.5953 262.7095)" class="st6" cx="134.8" cy="217.1" rx="7.6" ry="7.6"/>
			</g>
		</g>
	</g>
</g>
<g id="Device">
	<g>
		<g>
			<g>
				<g>
					<path class="st7" d="M79.7,456.3h150.8l-19.5-105.9c-0.7-3.8-4-6.5-7.8-6.5H67.7c-5,0-8.7,4.5-7.8,9.4L79.7,456.3z"/>
				</g>
			</g>
			<g>
				<g>
					<path class="st7" d="M230.5,456.3h57.2l-0.2-0.2c-5.1-3.8-11.3-6-17.6-6.2l-40.9-1.2L230.5,456.3z"/>
				</g>
			</g>
		</g>
		<g>
			<g>
				<g>
					<path class="st8" d="M194.3,344.1c0,0,0.4-0.1,1.2-0.1c0.8,0,2,0.2,3.4,0.8c1.3,0.7,2.9,1.9,4,3.7c1.2,1.8,2,4.2,2.5,6.8
						c0.5,2.7,0.9,5.7,1.5,8.8c0.5,3.2,1.1,6.6,1.8,10.1c1.3,7.1,2.9,14.9,4.6,23.1c3.4,16.3,6.6,31.1,8.6,41.9
						c1,5.4,1.8,9.7,2.4,12.7c0.3,1.5,0.5,2.6,0.6,3.5c0.1,0.4,0.1,0.7,0.2,0.9c0,0.2,0.1,0.3,0.1,0.3s0-0.1,0-0.3
						c0-0.2-0.1-0.5-0.1-0.9c-0.1-0.8-0.3-2-0.5-3.5c-0.5-3-1.2-7.4-2.2-12.8c-2-10.8-5.1-25.6-8.5-41.9c-1.7-8.2-3.3-16-4.6-23.1
						c-0.7-3.6-1.3-6.9-1.8-10.1c-0.6-3.2-1-6.1-1.5-8.8c-0.5-2.7-1.4-5.1-2.6-6.9c-1.2-1.8-2.8-3-4.2-3.7c-1.4-0.7-2.6-0.8-3.4-0.7
						C194.7,344,194.3,344.1,194.3,344.1z"/>
				</g>
			</g>
		</g>
		<g>
			<g>
				
					<ellipse transform="matrix(0.7071 -0.7071 0.7071 0.7071 -240.8807 213.997)" class="st3" cx="137.9" cy="397.8" rx="7.3" ry="7.3"/>
			</g>
		</g>
	</g>
</g>
<g id="Desk">
	<g>
		<g>
			<path class="st8" d="M476.2,456.2c0,0.1-97.5,0.3-217.8,0.3c-120.3,0-217.9-0.1-217.9-0.3S138,456,258.4,456
				C378.7,456,476.2,456.1,476.2,456.2z"/>
		</g>
	</g>
</g>
</svg>
